<?xml version="1.0" encoding="UTF-8" standalone="no"?>
<!-- Created with Inkscape (http://www.inkscape.org/) -->

<svg
   width="211.19032mm"
   height="202.18712mm"
   viewBox="0 0 211.19033 202.18711"
   version="1.1"
   id="svg5"
   inkscape:version="1.1 (c4e8f9e, 2021-05-24)"
   sodipodi:docname="camaras.svg"
   xmlns:inkscape="http://www.inkscape.org/namespaces/inkscape"
   xmlns:sodipodi="http://sodipodi.sourceforge.net/DTD/sodipodi-0.dtd"
   xmlns:xlink="http://www.w3.org/1999/xlink"
   xmlns="http://www.w3.org/2000/svg"
   xmlns:svg="http://www.w3.org/2000/svg">
  <sodipodi:namedview
     id="namedview7"
     pagecolor="#ffffff"
     bordercolor="#666666"
     borderopacity="1.0"
     inkscape:pageshadow="2"
     inkscape:pageopacity="0.0"
     inkscape:pagecheckerboard="0"
     inkscape:document-units="mm"
     showgrid="false"
     inkscape:zoom="0.46235269"
     inkscape:cx="360.1147"
     inkscape:cy="367.68468"
     inkscape:window-width="1366"
     inkscape:window-height="695"
     inkscape:window-x="0"
     inkscape:window-y="0"
     inkscape:window-maximized="1"
     inkscape:current-layer="layer1" />
  <defs
     id="defs2">
    <linearGradient
       inkscape:collect="always"
       id="linearGradient13921">
      <stop
         style="stop-color:#17344e;stop-opacity:1;"
         offset="0"
         id="stop13917" />
      <stop
         style="stop-color:#17344e;stop-opacity:0;"
         offset="1"
         id="stop13919" />
    </linearGradient>
    <filter
       inkscape:label="Sharpen"
       inkscape:menu="Image Effects"
       inkscape:menu-tooltip="Sharpen edges and boundaries within the object, force=0.15"
       style="color-interpolation-filters:sRGB"
       id="filter1826"
       x="-4.2139598e-08"
       y="-4.2210817e-08"
       width="1.0000001"
       height="1.0000001">
      <feConvolveMatrix
         targetY="1"
         targetX="1"
         in="SourceGraphic"
         divisor="1"
         kernelMatrix="0 -0.3 0 -0.3 2.2 -0.3 0 -0.3 0"
         order="3 3"
         result="result1"
         id="feConvolveMatrix1822" />
      <feBlend
         in2="SourceGraphic"
         mode="normal"
         result="fbSourceGraphic"
         id="feBlend1824" />
      <feColorMatrix
         result="fbSourceGraphicAlpha"
         in="fbSourceGraphic"
         values="0 0 0 -1 0 0 0 0 -1 0 0 0 0 -1 0 0 0 0 1 0"
         id="feColorMatrix1982" />
      <feConvolveMatrix
         id="feConvolveMatrix1984"
         order="3 3"
         kernelMatrix="0 -0.15 0 -0.15 1.6 -0.15 0 -0.15 0"
         divisor="1"
         in="fbSourceGraphic"
         targetX="1"
         targetY="1" />
      <feGaussianBlur
         stdDeviation="8.1409275e-05"
         id="feGaussianBlur3389" />
    </filter>
    <linearGradient
       inkscape:collect="always"
       xlink:href="#linearGradient13921"
       id="linearGradient13923"
       x1="4423.3799"
       y1="4338.333"
       x2="1056.76"
       y2="903.21899"
       gradientUnits="userSpaceOnUse" />
  </defs>
  <g
     inkscape:label="Capa 1"
     inkscape:groupmode="layer"
     id="layer1"
     transform="translate(1.3181686,-44.345985)">
    <ellipse
       style="opacity:1;fill:#008887;fill-opacity:1;stroke-width:0.289726;paint-order:stroke fill markers"
       id="path15471"
       ry="101.09356"
       rx="105.59516"
       cy="145.43954"
       cx="104.27699" />
    <g
       id="g47"
       transform="matrix(0.03695247,-4.3214671e-5,-4.3951627e-5,-0.03798066,21.365089,232.10173)"
       style="opacity:1;filter:url(#filter1826)">
      <path
         d="M -316.548,2030.3933 4095.8486,-128.72509 -316.548,2030.3933 0,4500 Z"
         style="fill:url(#linearGradient13923);fill-opacity:1;fill-rule:nonzero;stroke:none"
         id="path49"
         sodipodi:nodetypes="ccccc" />
      <path
         d="m 1447.35,3686.33 c 0,-349.97 -283.71,-633.68 -633.678,-633.68 -349.965,0 -633.672,283.71 -633.672,633.68 0,349.96 283.707,633.67 633.672,633.67 349.968,0 633.678,-283.71 633.678,-633.67"
         style="fill:#5bc0d8;fill-opacity:1;fill-rule:nonzero;stroke:none"
         id="path51" />
      <path
         d="m 2883.67,3686.33 c 0,-349.97 -283.7,-633.68 -633.67,-633.68 -349.97,0 -633.67,283.71 -633.67,633.68 0,349.96 283.7,633.67 633.67,633.67 349.97,0 633.67,-283.71 633.67,-633.67"
         style="fill:#58bfb4;fill-opacity:1;fill-rule:nonzero;stroke:none"
         id="path53" />
      <path
         d="m 4320,3686.33 c 0,-349.97 -283.7,-633.68 -633.67,-633.68 -349.97,0 -633.67,283.71 -633.67,633.68 0,349.96 283.7,633.67 633.67,633.67 349.97,0 633.67,-283.71 633.67,-633.67"
         style="fill:#76569e;fill-opacity:1;fill-rule:nonzero;stroke:none"
         id="path55" />
      <path
         d="m 1447.35,2250 c 0,-349.97 -283.71,-633.67 -633.678,-633.67 C 463.707,1616.33 180,1900.03 180,2250 c 0,349.97 283.707,633.67 633.672,633.67 349.968,0 633.678,-283.7 633.678,-633.67"
         style="fill:#dd457c;fill-opacity:1;fill-rule:nonzero;stroke:none"
         id="path57" />
      <path
         d="m 2883.67,2250 c 0,-349.97 -283.7,-633.67 -633.67,-633.67 -349.97,0 -633.67,283.7 -633.67,633.67 0,349.97 283.7,633.67 633.67,633.67 349.97,0 633.67,-283.7 633.67,-633.67"
         style="fill:#f68c24;fill-opacity:1;fill-rule:nonzero;stroke:none"
         id="path59" />
      <path
         d="m 4320,2250 c 0,-349.97 -283.7,-633.67 -633.67,-633.67 -349.97,0 -633.67,283.7 -633.67,633.67 0,349.97 283.7,633.67 633.67,633.67 349.97,0 633.67,-283.7 633.67,-633.67"
         style="fill:#5bc0d8;fill-opacity:1;fill-rule:nonzero;stroke:none"
         id="path61" />
      <path
         d="M 1447.35,813.672 C 1447.35,463.699 1163.64,180 813.672,180 463.707,180 180,463.699 180,813.672 c 0,349.968 283.707,633.668 633.672,633.668 349.968,0 633.678,-283.7 633.678,-633.668"
         style="fill:#76569e;fill-opacity:1;fill-rule:nonzero;stroke:none"
         id="path63" />
      <path
         d="M 2883.67,813.672 C 2883.67,463.699 2599.97,180 2250,180 c -349.97,0 -633.67,283.699 -633.67,633.672 0,349.968 283.7,633.668 633.67,633.668 349.97,0 633.67,-283.7 633.67,-633.668"
         style="fill:#58bfb4;fill-opacity:1;fill-rule:nonzero;stroke:none"
         id="path65" />
      <path
         d="M 4320,813.672 C 4320,463.699 4036.3,180 3686.33,180 c -349.97,0 -633.67,283.699 -633.67,633.672 0,349.968 283.7,633.668 633.67,633.668 349.97,0 633.67,-283.7 633.67,-633.668"
         style="fill:#dd457c;fill-opacity:1;fill-rule:nonzero;stroke:none"
         id="path67" />
      <path
         d="m 4200.07,2708.85 v -418.02 h -95.96 c -57.12,70.89 -132.35,276.15 -305.69,276.15 v 141.87 h 401.65"
         style="fill:#ffffff;fill-opacity:1;fill-rule:nonzero;stroke:none"
         id="path69" />
      <path
         d="m 3923.04,2189.59 v -110.62 h -573.77 v 110.62 c 0,80.84 33.47,153.97 87.23,205.92 4.03,4.03 8.18,7.85 12.43,11.43 l 0.22,0.23 c 28.77,24.84 62.6,43.89 99.66,55.76 27.55,8.85 56.88,13.55 87.34,13.55 30.46,0 59.91,-4.81 87.45,-13.55 27.55,-8.85 53.3,-21.63 76.5,-37.85 13.99,-9.74 26.98,-20.71 38.95,-32.59 51.85,-51.96 83.99,-123.73 83.99,-202.9"
         style="fill:#ffffff;fill-opacity:1;fill-rule:nonzero;stroke:none"
         id="path71" />
      <path
         d="m 3891.81,2078.98 c 0,-141.21 -114.46,-255.64 -255.65,-255.64 -44.69,0 -86.57,11.41 -123.06,31.7 l 9.86,8.28 -118.59,141.07 -9.97,-8.37 c -9.08,25.97 -13.88,53.84 -13.88,82.96 h 511.29"
         style="fill:#f5f5f5;fill-opacity:1;fill-rule:nonzero;stroke:none"
         id="path73" />
      <path
         d="m 3522.96,1863.32 -9.86,-8.28 -50.18,-42.21 -20.49,24.28 -79.16,94.3 -18.92,22.5 50.05,42.11 9.97,8.37 118.59,-141.07"
         style="fill:#2d6e88;fill-opacity:1;fill-rule:nonzero;stroke:none"
         id="path75" />
      <path
         d="m 3442.43,1837.11 -44.9,-37.85 -79.29,94.28 45.03,37.87 79.16,-94.3"
         style="fill:#2d6e88;fill-opacity:1;fill-rule:nonzero;stroke:none"
         id="path77" />
      <path
         d="m 3636.16,1823.34 c -0.17,0 -0.33,0 -0.5,0 0.17,0 0.34,0 0.5,0 141.18,0 255.63,114.43 255.65,255.63 v 0 c -0.02,-141.2 -114.46,-255.63 -255.65,-255.63 m -0.6,0 c -0.14,0 -0.28,0 -0.42,0 0.14,0 0.28,0 0.42,0 m -0.48,0 c -13.39,0.06 -26.52,1.11 -39.34,3.17 12.81,-2.03 25.95,-3.11 39.34,-3.17 m -254.56,254.46 c 0,0.01 0,0.02 0,0.03 0,-0.01 0,-0.02 0,-0.03 m 0,0.27 c 0,0.04 0,0.07 0,0.11 0,-0.04 0,-0.07 0,-0.11 m 0,0.29 c 0,0.06 0,0.12 0,0.18 0,-0.06 0,-0.12 0,-0.18 m 0,0.31 c 0,0.1 0,0.2 0,0.3 v 0 c 0,-0.1 0,-0.2 0,-0.3"
         style="fill:#4492a9;fill-opacity:1;fill-rule:nonzero;stroke:none"
         id="path79" />
      <path
         d="m 3891.81,2078.97 v 0 0.01 0 -0.01 m -511.29,0 v 0 0.01 0 -0.01"
         style="fill:#c8c7c5;fill-opacity:1;fill-rule:nonzero;stroke:none"
         id="path81" />
      <path
         d="m 3636.16,1823.34 c -0.16,0 -0.33,0 -0.5,0 -0.03,0 -0.07,0 -0.1,0 -0.14,0 -0.28,0 -0.42,0 -0.02,0 -0.04,0 -0.06,0 -13.39,0.06 -26.53,1.14 -39.34,3.17 -5.47,0.88 -10.88,1.95 -16.24,3.2 102.35,22.97 181.41,107.4 196.42,212.54 H 3383.2 c -1.74,11.61 -2.63,23.53 -2.68,35.55 0,0.01 0,0.02 0,0.03 0,0.08 0,0.16 0,0.24 0,0.04 0,0.07 0,0.11 0,0.06 0,0.12 0,0.18 0,0.06 0,0.12 0,0.18 0,0.04 0,0.09 0,0.13 0,0.1 0,0.2 0,0.3 v 0.01 h 511.29 v -0.01 c -0.02,-141.2 -114.47,-255.63 -255.65,-255.63"
         style="fill:#bdbcba;fill-opacity:1;fill-rule:nonzero;stroke:none"
         id="path83" />
      <path
         d="m 3800.1,2425.08 c -23.2,16.22 -48.95,29 -76.5,37.85 -27.54,8.74 -56.99,13.55 -87.45,13.55 -30.46,0 -59.79,-4.7 -87.34,-13.55 -37.06,-11.87 -70.89,-30.92 -99.66,-55.76 41.77,40.09 99.55,110.62 99.55,171.77 v 104.69 c 0,6.16 5.04,11.2 11.19,11.2 h 238.52 V 2581.4 h -74.69 v -15.45 c 7.38,-47.7 45.34,-110.65 76.38,-140.87"
         style="fill:#e8e7e6;fill-opacity:1;fill-rule:nonzero;stroke:none"
         id="path85" />
      <path
         d="m 1744.59,2084.08 c -27.28,14.6 -177.05,107.78 -181.49,117.62 -3.7,8.14 2.86,11.63 18.51,20.41 15.55,8.68 57.32,35 79.75,36.92 5.91,0.53 20.73,-1.29 40.82,-4.98 -16.92,-10.04 -48.65,-23.8 -46.43,-40.29 2.12,-16.72 40.82,-70.02 59.01,-93.3 5.19,-6.65 16.41,-20.31 29.83,-36.38"
         style="fill:#cdccca;fill-opacity:1;fill-rule:nonzero;stroke:none"
         id="path87" />
      <path
         d="m 2646.46,2619.26 c 0,0 -16.08,-9.84 -43.26,-26.55 -150.72,-92.86 -644.11,-396.62 -648.23,-399.79 -4.44,-3.59 -22.32,-9.41 -36.92,-4.55 -1.38,0.42 -2.64,0.96 -3.91,1.59 -22.95,11.52 -51.93,22.32 -82.19,31.84 -15.54,4.86 -31.3,9.4 -46.74,13.43 -30.89,8.24 -60.39,14.7 -83.03,18.82 -20.09,3.69 -34.91,5.51 -40.82,4.98 -22.43,-1.92 -64.2,-28.24 -79.75,-36.92 l 804.13,489.06 c 0,0 11.65,6.77 28.88,15.23 30.24,14.7 77.63,34.59 108.3,31.51 48.13,-4.96 123.54,-138.65 123.54,-138.65"
         style="fill:#ffffff;fill-opacity:1;fill-rule:nonzero;stroke:none"
         id="path89" />
      <path
         d="m 1967.12,2043.88 c -0.95,-3.69 -4.12,-7.49 -8.77,-11.42 l -0.43,-0.42 c -17.02,-13.76 -52.46,-28.13 -72.45,-38.5 -45.27,-23.36 -59.86,-5.81 -59.86,-5.81 0,0 -47.29,55.94 -81.02,96.35 -13.42,16.07 -24.64,29.73 -29.83,36.38 -18.19,23.28 -56.89,76.58 -59.01,93.3 -2.22,16.49 29.51,30.25 46.43,40.29 22.64,-4.12 52.14,-10.58 83.03,-18.82 -7.19,-0.64 -13.86,-2.96 -19.78,-6.77 -29.51,-19.26 -29.08,-72.02 0.96,-117.83 29.93,-45.9 78.15,-67.48 107.56,-48.24 29.39,19.25 29.08,72.03 -0.95,117.94 -11.64,17.78 -26.03,31.95 -41.05,41.47 30.26,-9.52 59.24,-20.32 82.19,-31.84 1.27,-0.63 2.53,-1.17 3.91,-1.59 0,0 18.51,-36.59 38.18,-79.65 19.67,-42.94 15.23,-48.12 10.89,-64.84"
         style="fill:#e8e7e6;fill-opacity:1;fill-rule:nonzero;stroke:none"
         id="path91" />
      <path
         d="m 2646.46,2460.3 -214.72,-133.59 -123.73,-76.9 -349.66,-217.35 c 4.65,3.93 7.82,7.73 8.77,11.42 4.34,16.72 8.78,21.9 -10.89,64.84 -19.67,43.06 -38.18,79.65 -38.18,79.65 14.6,-4.86 32.48,0.96 36.92,4.55 4.12,3.17 497.51,306.93 648.23,399.79 3.9,-10.57 12.17,-25.17 20.84,-41.04 6.99,-12.58 14.28,-26.02 19.88,-38.6 10.67,-23.58 15.76,-44.53 2.54,-52.77"
         style="fill:#d8d7d5;fill-opacity:1;fill-rule:nonzero;stroke:none"
         id="path93" />
      <path
         d="m 2530.67,1823.34 c 0,-12.89 -10.44,-23.34 -23.35,-23.34 H 2317.7 c -12.9,0 -23.33,10.45 -23.33,23.34 v 325.78 c 0,12.9 10.43,23.33 23.33,23.33 h 189.62 c 12.91,0 23.35,-10.43 23.35,-23.33 v -325.78"
         style="fill:#ffffff;fill-opacity:1;fill-rule:nonzero;stroke:none"
         id="path95" />
      <path
         d="m 1873.95,2062.39 c -29.41,-19.24 -77.63,2.34 -107.56,48.24 -30.04,45.81 -30.47,98.57 -0.96,117.83 5.92,3.81 12.59,6.13 19.78,6.77 15.44,-4.03 31.2,-8.57 46.74,-13.43 15.02,-9.52 29.41,-23.69 41.05,-41.47 30.03,-45.91 30.34,-98.69 0.95,-117.94"
         style="fill:#2d6e88;fill-opacity:1;fill-rule:nonzero;stroke:none"
         id="path97" />
      <path
         d="m 2899.76,2345.12 c -32.79,-34.91 -86.52,-36.07 -143.41,-37.23 -62.2,-1.27 -126.6,-2.65 -174.2,-44.32 -31.42,-27.5 -51.19,-58.06 -61.33,-95.5 -4.24,-15.24 -6.78,-31.75 -7.83,-49.72 -0.65,-11.32 -9.96,-20 -21.05,-20 l -1.29,0.11 c -11.72,0.64 -20.61,10.7 -19.87,22.33 1.06,18.3 3.5,35.42 7.4,51.61 11.73,48.55 36.61,88.43 76.17,123.01 59.12,51.82 134.61,53.41 201.16,54.79 49.8,1.05 92.85,1.9 113.48,23.89 24.01,25.6 27.6,54.47 26.32,74.15 -2,32.68 -18.82,66.84 -42.92,86.83 -59.23,49.29 -152.85,27.18 -208.47,-22 -5.6,12.58 -12.89,26.02 -19.88,38.6 70.75,57.01 180.65,77.95 255.31,15.87 33.21,-27.5 55.52,-72.24 58.27,-116.77 2.44,-40.08 -10.58,-76.68 -37.86,-105.65"
         style="fill:#a4e1e9;fill-opacity:1;fill-rule:nonzero;stroke:none"
         id="path99" />
      <path
         d="m 2456.82,2271.18 v -184.76 c 0,-41.16 -33.32,-74.48 -74.45,-74.48 -20.53,0 -39.15,8.37 -52.57,21.8 -4.75,4.75 -8.88,10.14 -12.16,16.06 -6.15,10.8 -9.63,23.27 -9.63,36.62 v 163.39 l 123.73,76.9 c 1.18,-0.95 2.23,-1.9 3.29,-2.96 13.43,-13.43 21.79,-32.05 21.79,-52.57"
         style="fill:#ffffff;fill-opacity:1;fill-rule:nonzero;stroke:none"
         id="path101" />
      <path
         d="m 1794.32,2174.62 c 5.35,-13.58 2.02,-27.62 -7.48,-31.38 -9.51,-3.76 -21.56,4.19 -26.92,17.78 -5.37,13.58 -2.02,27.62 7.48,31.37 9.49,3.76 21.55,-4.2 26.92,-17.77"
         style="fill:#ffffff;fill-opacity:1;fill-rule:nonzero;stroke:none"
         id="path103" />
      <path
         d="m 2472.37,1950.71 c -20.52,-17.45 -53.51,-17.45 -79.75,-17.45 -26.34,0 -58.38,11.63 -68.11,37.86 -9.72,26.34 8.47,49.5 -6.87,78.68 3.28,-5.92 7.41,-11.31 12.16,-16.06 13.42,-13.43 32.04,-21.8 52.57,-21.8 41.13,0 74.45,33.32 74.45,74.48 v 15.96 c 10.68,-32.06 23.26,-48.13 31.09,-68.34 7.72,-20.09 4.87,-65.77 -15.54,-83.33"
         style="fill:#e8e7e6;fill-opacity:1;fill-rule:nonzero;stroke:none"
         id="path105" />
      <path
         d="m 1914.14,2189.96 c -22.95,11.52 -51.93,22.32 -82.19,31.84 -15.54,4.86 -31.3,9.4 -46.74,13.43 15.44,-4.02 31.21,-8.56 46.74,-13.42 30.26,-9.53 59.24,-20.32 82.19,-31.85"
         style="fill:#c8c7c5;fill-opacity:1;fill-rule:nonzero;stroke:none"
         id="path107" />
      <path
         d="m 1918.06,2188.37 h -0.01 v 0 c -1.38,0.42 -2.64,0.96 -3.91,1.59 1.27,-0.63 2.54,-1.16 3.91,-1.58 v 0 0 c 0,0 0,0 0.01,-0.01"
         style="fill:#c8c7c5;fill-opacity:1;fill-rule:nonzero;stroke:none"
         id="path109" />
      <path
         d="m 1655.64,2215.39 c -0.01,15.78 30.17,28.95 46.53,38.66 h 0.01 c -16.35,-9.71 -46.55,-22.89 -46.54,-38.66"
         style="fill:#9c9c9b;fill-opacity:1;fill-rule:nonzero;stroke:none"
         id="path111" />
      <path
         d="m 1713.74,2251.86 c -4.01,0.79 -7.88,1.52 -11.56,2.19 v 0 h -0.01 l 0.01,0.01 c 3.68,-0.66 7.55,-1.37 11.56,-2.2"
         style="fill:#c8c7c5;fill-opacity:1;fill-rule:nonzero;stroke:none"
         id="path113" />
      <path
         d="m 1766.77,2239.99 c -1.19,0.29 -2.38,0.59 -3.56,0.88 1.19,-0.26 2.37,-0.57 3.56,-0.88"
         style="fill:#c8c7c5;fill-opacity:1;fill-rule:nonzero;stroke:none"
         id="path115" />
      <path
         d="m 1743.38,2245.56 c -6.44,1.46 -12.67,2.82 -18.64,4.06 1.55,-0.31 3.12,-0.63 4.73,-0.95 4.51,-0.96 9.14,-2.01 13.91,-3.11"
         style="fill:#c8c7c5;fill-opacity:1;fill-rule:nonzero;stroke:none"
         id="path117" />
      <path
         d="m 1748.51,2079.43 c -1.38,1.6 -2.65,3.19 -3.92,4.65 v 0 0 c -13.42,16.1 -24.64,29.73 -29.83,36.4 -18.17,23.27 -56.89,76.57 -59.01,93.28 v 0 0 c -0.08,0.55 -0.11,1.09 -0.11,1.63 -0.01,15.77 30.19,28.95 46.54,38.66 3.68,-0.67 7.55,-1.4 11.56,-2.19 1.18,-0.25 2.37,-0.5 3.57,-0.77 2.43,-0.45 4.9,-0.95 7.43,-1.47 5.97,-1.24 12.2,-2.6 18.64,-4.06 2.62,-0.61 5.28,-1.23 7.99,-1.87 3.59,-0.85 7.29,-1.68 10.99,-2.64 0.28,-0.06 0.57,-0.12 0.85,-0.18 1.18,-0.29 2.37,-0.59 3.56,-0.88 0.12,-0.03 0.24,-0.07 0.36,-0.1 5.92,-1.49 11.94,-3.07 18.08,-4.66 -7.19,-0.64 -13.86,-2.96 -19.78,-6.77 -14.58,-9.52 -21.85,-27.22 -21.86,-48.21 0,-4.99 0.41,-10.17 1.23,-15.47 -3.91,-0.94 -6.97,-2.32 -9.19,-4.12 -24.65,-20.31 4.75,-71.5 12.9,-81.23 m 196.08,54.27 c -12.14,3.69 -32.41,9.07 -55.62,14.47 -3.77,10.76 -9.09,21.64 -15.97,32.16 -11.64,17.78 -26.03,31.95 -41.05,41.47 30.26,-9.52 59.24,-20.32 82.19,-31.84 v 0 0 c 1.27,-0.63 2.53,-1.17 3.91,-1.59 v 0 0 c 0,0 5.98,-11.83 14.76,-29.95 3.55,-7.33 7.55,-15.7 11.78,-24.72"
         style="fill:#b2b2b1;fill-opacity:1;fill-rule:nonzero;stroke:none"
         id="path119" />
      <path
         d="m 1932.81,2158.42 c -8.78,18.12 -14.76,29.95 -14.76,29.95 v 0 0 h 0.01 c 0.21,-0.43 6.15,-12.17 14.75,-29.95"
         style="fill:#a5a5a4;fill-opacity:1;fill-rule:nonzero;stroke:none"
         id="path121" />
      <path
         d="m 1888.97,2148.17 c -0.04,0.01 -0.07,0.02 -0.11,0.02 -29.25,6.84 -63.29,13.61 -92.16,16.82 -0.33,3.13 -1.11,6.38 -2.38,9.61 -4.47,11.3 -13.57,18.7 -21.97,18.7 -1.7,0 -3.36,-0.3 -4.95,-0.93 -8.18,-3.22 -11.8,-14.07 -9.22,-25.69 -5.1,-0.31 -9.6,-0.94 -13.37,-1.91 0,-0.01 0,-0.01 -0.01,-0.01 -0.82,5.3 -1.23,10.48 -1.23,15.47 0.01,20.99 7.28,38.69 21.86,48.21 5.92,3.81 12.59,6.13 19.78,6.77 v 0 0 c 15.44,-4.03 31.2,-8.57 46.74,-13.43 15.02,-9.52 29.41,-23.69 41.05,-41.47 6.88,-10.52 12.2,-21.4 15.97,-32.16"
         style="fill:#245468;fill-opacity:1;fill-rule:nonzero;stroke:none"
         id="path123" />
      <path
         d="m 1796.7,2165.01 c -10.96,1.22 -21.17,1.92 -30.1,1.92 -2.96,0 -5.77,-0.07 -8.42,-0.23 -2.58,11.62 1.04,22.47 9.22,25.69 1.59,0.63 3.25,0.93 4.95,0.93 8.4,0 17.5,-7.4 21.97,-18.7 1.27,-3.23 2.05,-6.48 2.38,-9.61"
         style="fill:#c8c7c5;fill-opacity:1;fill-rule:nonzero;stroke:none"
         id="path125" />
      <path
         d="m 2321.77,1800 h -4.04 c -12.89,0 -23.36,10.47 -23.36,23.39 v 249.39 l 13.64,13.64 v 0 c 0,-13.35 3.48,-25.82 9.63,-36.62 v 0 c 15.32,-29.18 -2.85,-52.34 6.87,-78.68 9.73,-26.23 41.77,-37.86 68.11,-37.86 26.24,0 59.23,0 79.75,17.45 L 2321.77,1800"
         style="fill:#c8c7c5;fill-opacity:1;fill-rule:nonzero;stroke:none"
         id="path127" />
      <path
         d="m 2317.64,2049.8 c -6.15,10.8 -9.63,23.27 -9.63,36.62 0,-13.33 3.48,-25.8 9.63,-36.62"
         style="fill:#c8c7c5;fill-opacity:1;fill-rule:nonzero;stroke:none"
         id="path129" />
      <path
         d="m 2456.82,2271.69 c -0.13,19.01 -7.43,36.36 -19.28,49.43 11.86,-13.07 19.15,-30.43 19.28,-49.43 m -23.5,53.68 c -0.5,0.45 -1.02,0.89 -1.57,1.33 l 0.02,0.01 c 0.53,-0.44 1.05,-0.89 1.55,-1.34"
         style="fill:#c16e1d;fill-opacity:1;fill-rule:nonzero;stroke:none"
         id="path131" />
      <path
         d="m 2308.01,2169.34 v 80.47 l 123.74,76.89 c 0.55,-0.44 1.07,-0.88 1.57,-1.33 0.58,-0.52 1.15,-1.06 1.71,-1.62 0.86,-0.86 1.69,-1.74 2.51,-2.63 11.85,-13.07 19.15,-30.42 19.28,-49.43 0,-0.17 0,-0.34 0,-0.51 v -35.64 c -17.69,23.65 -40.09,26.92 -57.4,26.92 -6.6,0 -12.47,-0.48 -17.05,-0.48 -16.5,0 -74.36,-31.94 -74.36,-92.64"
         style="fill:#c8c7c5;fill-opacity:1;fill-rule:nonzero;stroke:none"
         id="path133" />
      <path
         d="m 1930.37,2186.51 c 0,0 -0.01,0 -0.02,0 0.01,0 0.02,0 0.02,0 v 0 m 0.05,0 c 10.83,0.01 21,3.68 24.39,6.29 0.01,0 0.01,0.01 0.02,0.01 0.01,0.01 0.01,0.01 0.02,0.02 v 0 c 0.02,0.02 0.04,0.03 0.05,0.04 0.02,0.02 0.05,0.03 0.07,0.05 -3.23,-2.61 -13.55,-6.4 -24.55,-6.41 m -12.07,1.76 c -0.03,0.01 -0.06,0.02 -0.09,0.03 0.03,-0.01 0.06,-0.02 0.09,-0.03"
         style="fill:#c16e1d;fill-opacity:1;fill-rule:nonzero;stroke:none"
         id="path135" />
      <path
         d="m 1930.37,2186.51 c 0,0 -0.01,0 -0.02,0 -4.01,0 -8.12,0.51 -12,1.76 -0.03,0.01 -0.06,0.02 -0.09,0.03 -0.07,0.02 -0.13,0.04 -0.2,0.07 -0.01,0.01 -0.01,0.01 -0.01,0.01 3.98,-1.33 8.21,-1.86 12.34,-1.86 10.84,0 21.02,3.67 24.42,6.28 -3.39,-2.61 -13.56,-6.28 -24.39,-6.29 -0.02,0 -0.03,0 -0.05,0 m 24.46,6.3 c 0.01,0.01 0.01,0.01 0.02,0.02 -0.01,-0.01 -0.01,-0.01 -0.02,-0.02 m 0.02,0.02 c 0.02,0.02 0.04,0.03 0.05,0.04 -0.01,-0.01 -0.03,-0.02 -0.05,-0.04"
         style="fill:#c8c7c5;fill-opacity:1;fill-rule:nonzero;stroke:none"
         id="path137" />
      <path
         d="m 2463.27,2506.52 c 41.57,25.61 79.07,48.72 109.15,67.26 4.19,2.57 8.23,5.04 12.11,7.43 -31.85,-19.62 -73.92,-45.53 -121.26,-74.69"
         style="fill:#c8c7c5;fill-opacity:1;fill-rule:nonzero;stroke:none"
         id="path139" />
      <path
         d="m 2595.91,2588.22 c 2.51,1.55 4.94,3.05 7.29,4.49 -2.34,-1.44 -4.78,-2.94 -7.29,-4.49"
         style="fill:#c8c7c5;fill-opacity:1;fill-rule:nonzero;stroke:none"
         id="path141" />
      <path
         d="m 1944.59,2133.7 v 0 0 0 0 c -4.23,9.02 -8.23,17.39 -11.78,24.72 3.55,-7.32 7.56,-15.68 11.81,-24.7 -0.01,-0.01 -0.02,-0.01 -0.03,-0.02"
         style="fill:#b2b2b1;fill-opacity:1;fill-rule:nonzero;stroke:none"
         id="path143" />
      <path
         d="m 1944.62,2133.72 c -4.25,9.02 -8.26,17.38 -11.81,24.7 -8.6,17.78 -14.54,29.52 -14.75,29.95 0.07,-0.03 0.13,-0.05 0.2,-0.07 0.03,-0.01 0.06,-0.02 0.09,-0.03 3.88,-1.25 7.99,-1.76 12,-1.76 0.01,0 0.02,0 0.02,0 v 0 c 0.02,0 0.03,0 0.05,0 11,0.01 21.32,3.8 24.55,6.41 v 0 c 3.24,2.47 304.55,188.06 508.3,313.6 47.34,29.16 89.41,55.07 121.26,74.69 3.96,2.43 7.75,4.77 11.38,7.01 2.51,1.55 4.95,3.05 7.29,4.49 v 0 c 2.54,-6.97 7.08,-15.75 12.27,-25.47 l -19.15,-32.05 c 0,0 -16.17,-9.84 -43.36,-26.55 -125.32,-77.21 -487.43,-300.14 -608.34,-374.92"
         style="fill:#a5a5a4;fill-opacity:1;fill-rule:nonzero;stroke:none"
         id="path145" />
      <path
         d="m 2139.71,3772.15 c 0,-135.76 -50.05,-245.74 -111.92,-245.74 -5.01,0 -9.87,0.64 -14.63,2.05 l -40.81,9.49 c 5.92,0 11.68,1.03 17.21,3.21 48.64,17.97 85.71,110.88 85.71,222.9 0,34.01 -3.46,66.35 -9.48,95.22 23.61,-6.8 51.95,-34.64 62.49,-47.35 4.74,-5.77 8.09,-10 10.66,-13.09 0.48,-8.72 0.77,-17.7 0.77,-26.69"
         style="fill:#e8e7e6;fill-opacity:1;fill-rule:nonzero;stroke:none"
         id="path147" />
      <path
         d="m 2075.22,3764.06 c 0,-112.02 -37.07,-204.93 -85.71,-222.9 -5.53,-2.18 -11.29,-3.21 -17.19,-3.21 -49.66,0 -91.25,77.77 -100.74,180.95 -1.28,14.49 -2.06,29.64 -2.06,45.16 v 2.7 c 0,6.54 0.27,13.1 0.53,19.51 1.28,25.79 4.23,50.43 9.09,73.01 5.26,24.64 12.34,46.85 21.06,65.57 5.76,-7.44 11.67,-15.4 17.43,-23.73 -13.2,-34.01 -22.44,-80.59 -22.44,-137.06 0,-119.21 41.32,-194.16 73.16,-200.06 1.28,-0.25 2.69,-0.38 3.97,-0.38 32.21,0 77.24,76.23 77.24,200.44 0,36.58 -3.97,69.04 -10.26,96.63 6.42,0.13 12.19,0.13 16.69,0.13 1.54,0 3.08,-0.13 4.74,-0.39 1.54,-0.25 3.2,-0.63 4.88,-1.15 h 0.13 c 6.03,-28.87 9.48,-61.21 9.48,-95.22"
         style="fill:#ffffff;fill-opacity:1;fill-rule:nonzero;stroke:none"
         id="path149" />
      <path
         d="m 2641.84,3772.15 c 0,-135.76 -50.08,-245.74 -111.78,-245.74 h -502.27 c 61.87,0 111.92,109.98 111.92,245.74 0,8.99 -0.29,17.97 -0.77,26.69 4.1,-4.75 6.66,-7.18 10.88,-8.59 3.6,-1.16 117.68,-1.16 231.37,-0.9 12.46,0 25.04,0.13 37.36,0.13 101.11,0.25 192.22,0.77 192.22,0.77 0,0 18.34,7.18 28.63,32.97 v -0.26 c 1.65,-16.28 2.44,-33.35 2.44,-50.81"
         style="fill:#f5f5f5;fill-opacity:1;fill-rule:nonzero;stroke:none"
         id="path151" />
      <path
         d="m 2049.6,3764.1 c 0,-124.2 -45,-200.5 -77.2,-200.5 -1.3,0 -2.7,0.2 -4,0.4 -31.8,5.9 -73.2,80.8 -73.2,200.1 0,56.4 9.3,103 22.5,137 l 121.7,-40.4 c 6.2,-27.6 10.2,-60.1 10.2,-96.6"
         style="fill:#2d6e88;fill-opacity:1;fill-rule:nonzero;stroke:none"
         id="path153" />
      <path
         d="m 2009.83,3764.06 c 0,-48.38 -18.22,-87.64 -40.69,-87.64 -22.45,0 -40.55,39.26 -40.55,87.64 0,48.52 18.1,87.65 40.55,87.65 22.47,0 40.69,-39.13 40.69,-87.65"
         style="fill:#4aa6c1;fill-opacity:1;fill-rule:nonzero;stroke:none"
         id="path155" />
      <path
         d="m 2639.36,3822.96 v 0.26 c -10.25,-25.79 -28.62,-32.98 -28.62,-32.98 0,0 -91.11,-0.51 -192.24,-0.76 -12.32,0 -24.91,-0.14 -37.33,-0.14 -113.7,-0.25 -227.78,-0.25 -231.39,0.9 -4.22,1.42 -6.78,3.85 -10.9,8.6 -2.56,3.08 -5.9,7.31 -10.66,13.09 -10.52,12.7 -38.87,40.55 -62.48,47.35 h -0.13 c -1.68,0.52 -3.34,0.9 -4.88,1.15 -1.66,0.26 -3.2,0.39 -4.74,0.39 -4.5,0 -10.27,0 -16.69,-0.13 -29.12,-0.26 -72.64,-0.89 -81.36,-0.89 -10.77,0 -16.04,6.16 -24.51,17.19 -5.26,8.47 -10.53,16.42 -15.8,24.13 -5.76,8.33 -11.67,16.29 -17.43,23.73 -35.54,46.2 -69.04,73.79 -94.7,89.96 -25.42,15.92 -43.25,20.66 -47.73,21.05 0,0 16.16,0 37.71,0 21.56,0 48.51,-0.13 70.2,-0.13 168.35,-0.51 585.42,-1.54 641.49,0 93.53,2.44 138.88,-106.64 138.88,-174.01 0,-16.17 -2.72,-28.87 -6.69,-38.76"
         style="fill:#ffffff;fill-opacity:1;fill-rule:nonzero;stroke:none"
         id="path157" />
      <path
         d="m 1900.2,3924.85 c -8.72,-18.72 -15.8,-40.93 -21.06,-65.57 0,0 -62.1,-4.36 -70.69,0 -8.61,4.36 -43.9,57.1 -64.17,97.27 -24.64,48.77 -16.41,59.67 -8.97,70.46 4.36,6.28 9.99,8.33 22.46,8.85 4.48,-0.39 22.31,-5.13 47.73,-21.05 25.66,-16.17 59.16,-43.76 94.7,-89.96"
         style="fill:#cdccca;fill-opacity:1;fill-rule:nonzero;stroke:none"
         id="path159" />
      <path
         d="m 2839.28,3544.76 v -304.65 h -70.59 v 304.65 h 70.59"
         style="fill:#ffffff;fill-opacity:1;fill-rule:nonzero;stroke:none"
         id="path161" />
      <path
         d="m 2768.69,3443.25 v -101.64 h -261.24 c 1.79,3.47 2.81,7.57 2.81,11.81 v 89.83 h 258.43"
         style="fill:#ffffff;fill-opacity:1;fill-rule:nonzero;stroke:none"
         id="path163" />
      <path
         d="m 2510.26,3501 v -147.58 c 0,-4.24 -1.02,-8.34 -2.81,-11.81 -4.37,-8.34 -12.83,-13.85 -22.85,-13.85 h -92.28 c -14.11,0 -25.66,11.41 -25.66,25.66 V 3501 c 0,14.11 11.55,25.66 25.66,25.66 h 92.28 c 14.25,0 25.66,-11.55 25.66,-25.66"
         style="fill:#ffffff;fill-opacity:1;fill-rule:nonzero;stroke:none"
         id="path165" />
      <path
         d="m 2641.83,3775.07 c -0.01,0.82 -0.01,1.63 -0.02,2.45 0.01,-0.81 0.02,-1.61 0.03,-2.42 -0.01,-0.01 -0.01,-0.02 -0.01,-0.03 m -568.21,29.41 c -0.06,0.63 -0.13,1.26 -0.2,1.9 -0.08,0.96 -0.17,1.92 -0.26,2.87 -1.43,15.54 -3.57,30.49 -6.33,44.66 -0.36,1.9 -0.71,3.7 -1.07,5.37 0.01,-0.01 0.02,-0.01 0.03,-0.01 3.58,-17.17 6.25,-35.56 7.83,-54.79"
         style="fill:#449290;fill-opacity:1;fill-rule:nonzero;stroke:none"
         id="path167" />
      <path
         d="m 2138.95,3743.38 c -0.01,0.01 -0.01,0.01 -0.01,0.02 l -0.15,0.13 c -2.56,3.08 -5.9,7.32 -10.64,13.09 -9.38,11.29 -31.24,20.53 -52.93,30.28 -0.38,5.18 -0.93,11.19 -1.6,17.58 -1.58,19.23 -4.25,37.62 -7.83,54.79 0.12,-0.04 0.24,-0.07 0.36,-0.11 1.94,-0.6 3.91,-1.3 5.87,-2.12 0.94,-0.39 1.88,-0.81 2.83,-1.26 3.04,-1.54 6.09,-3.18 9.01,-4.97 3.02,-1.88 6.17,-4.01 9.09,-6.03 0.37,-0.27 0.74,-0.55 1.12,-0.82 14.61,-10.92 27.67,-24.24 34.08,-32.03 4.74,-5.78 8.08,-10.14 10.64,-13.09 l 0.15,-0.13 c 0,0 0,0 0,-0.01 0.49,-8.68 0.77,-17.61 0.77,-26.55 0,-9.73 -0.26,-19.33 -0.76,-28.77"
         style="fill:#b2b2b1;fill-opacity:1;fill-rule:nonzero;stroke:none"
         id="path169" />
      <path
         d="m 2073.16,3809.25 c -1.25,13.43 -3.07,26.48 -5.32,38.93 -0.34,2 -0.68,3.91 -1.01,5.73 2.76,-14.17 4.9,-29.12 6.33,-44.66"
         style="fill:#c8c7c5;fill-opacity:1;fill-rule:nonzero;stroke:none"
         id="path171" />
      <path
         d="m 2275.22,3733.89 c -69.65,0 -123.08,0.26 -125.51,1.05 -4.23,1.4 -6.8,3.83 -10.76,8.44 0.5,9.44 0.76,19.04 0.76,28.77 v 0 c 0,8.94 -0.28,17.87 -0.77,26.55 1.03,-1.15 1.92,-2.17 2.79,-3.06 0.79,-0.89 1.57,-1.6 2.27,-2.1 0.25,-0.22 0.51,-0.43 0.77,-0.63 1.5,-1.29 3.07,-2.09 4.94,-2.8 2.27,-0.73 49.25,-0.99 112.38,-0.99 36.08,0 77.43,0.08 118.75,0.22 0.11,0 0.22,0 0.33,0 h 37.38 c 100.99,0.26 192.22,0.65 192.22,0.65 0,0 18.34,7.18 28.63,32.97 1.44,-14.64 2.22,-29.86 2.41,-45.44 0.01,-0.82 0.01,-1.63 0.02,-2.45 -0.78,-2.68 -1.65,-5.11 -2.56,-7.41 v 0.25 c -10.27,-25.78 -28.62,-32.97 -28.62,-32.97 0,0 -91.11,-0.51 -192.24,-0.78 -12.32,0 -24.89,-0.13 -37.35,-0.13 -36.45,-0.08 -72.95,-0.14 -105.84,-0.14"
         style="fill:#bdbcba;fill-opacity:1;fill-rule:nonzero;stroke:none"
         id="path173" />
      <path
         d="m 2380.84,3789.34 c 0.08,0 0.15,0 0.22,0 h 0.11 c -0.11,0 -0.22,0 -0.33,0 m -236.07,3.57 c -0.26,0.2 -0.52,0.41 -0.77,0.63 0.1,-0.08 0.21,-0.15 0.31,-0.22 0.15,-0.14 0.31,-0.28 0.46,-0.41 m -50.7,51.05 c -0.38,0.27 -0.75,0.55 -1.12,0.82 0.05,-0.04 0.11,-0.08 0.17,-0.12 0.32,-0.23 0.63,-0.47 0.95,-0.7 m -19.22,11.82 c -0.95,0.45 -1.89,0.87 -2.83,1.26 0.92,-0.38 1.84,-0.79 2.75,-1.22 0.02,-0.01 0.05,-0.03 0.08,-0.04 m -8.7,3.38 c -0.12,0.04 -0.24,0.07 -0.36,0.11 -0.01,0 -0.02,0 -0.03,0.01 v 0 c 0.13,-0.04 0.26,-0.08 0.39,-0.12"
         style="fill:#c8c7c5;fill-opacity:1;fill-rule:nonzero;stroke:none"
         id="path175" />
      <path
         d="m 1905.91,3862.86 c 3.33,14.06 7.29,26.82 11.69,38.18 0.01,-0.02 0.02,-0.03 0.03,-0.05 0.01,-0.01 0.01,-0.01 0.02,-0.02 -4.39,-11.34 -8.35,-24.07 -11.68,-38.1 h -0.01 c -0.02,0 -0.03,0 -0.05,-0.01"
         style="fill:#449290;fill-opacity:1;fill-rule:nonzero;stroke:none"
         id="path177" />
      <path
         d="m 1879.14,3859.28 c 5.26,24.64 12.34,46.85 21.06,65.57 5.75,-7.55 11.65,-15.49 17.4,-23.81 -4.4,-11.36 -8.36,-24.12 -11.69,-38.18 -8.32,-0.89 -17.16,-2.17 -26.77,-3.58"
         style="fill:#c8c7c5;fill-opacity:1;fill-rule:nonzero;stroke:none"
         id="path179" />
      <path
         d="m 1905.97,3862.87 c 3.33,14.03 7.29,26.76 11.68,38.1 5.26,-7.7 10.52,-15.52 15.78,-23.98 2.76,-3.6 5.14,-6.67 7.5,-9.11 0.88,-0.94 1.75,-1.79 2.63,-2.58 -11.01,-0.12 -23.4,-0.9 -37.59,-2.43"
         style="fill:#245468;fill-opacity:1;fill-rule:nonzero;stroke:none"
         id="path181" />
      <path
         d="m 1943.56,3865.3 c -0.88,0.79 -1.75,1.64 -2.63,2.58 0.92,-0.96 1.83,-1.82 2.77,-2.57 -0.05,0 -0.09,-0.01 -0.14,-0.01"
         style="fill:#c8c7c5;fill-opacity:1;fill-rule:nonzero;stroke:none"
         id="path183" />
      <path
         d="m 2073.82,3801.54 h -0.01 c -0.13,1.68 -0.26,3.35 -0.41,5.01 0.01,-0.06 0.02,-0.11 0.02,-0.17 0.14,-1.61 0.27,-3.22 0.4,-4.84"
         style="fill:#449290;fill-opacity:1;fill-rule:nonzero;stroke:none"
         id="path185" />
      <path
         d="m 2073.81,3801.54 c -10.97,8.3 -19.79,16.6 -28.21,24.26 -1.64,12.27 -3.72,23.83 -6.14,34.64 h 16.53 c 1.54,0 3.08,0 4.74,-0.26 1.54,-0.25 3.2,-0.63 4.88,-1.14 h 0.13 c 0.74,-3.57 1.44,-7.19 2.1,-10.86 2.08,-12.36 4.08,-27.75 5.56,-41.63 0.15,-1.66 0.28,-3.33 0.41,-5.01"
         style="fill:#c8c7c5;fill-opacity:1;fill-rule:nonzero;stroke:none"
         id="path187" />
      <path
         d="m 2045.6,3825.8 c -0.04,0.04 -0.09,0.08 -0.13,0.12 -16.18,14.76 -30.81,27.33 -55.2,34.01 15.8,0.13 34.28,0.39 49.03,0.51 h 0.16 c 2.42,-10.81 4.5,-22.37 6.14,-34.64"
         style="fill:#245468;fill-opacity:1;fill-rule:nonzero;stroke:none"
         id="path189" />
      <path
         d="m 2073.42,3806.38 c 0,0.06 -0.01,0.11 -0.02,0.17 -0.07,0.9 -0.15,1.81 -0.24,2.7 0.09,-0.95 0.18,-1.91 0.26,-2.87"
         style="fill:#346f6f;fill-opacity:1;fill-rule:nonzero;stroke:none"
         id="path191" />
      <path
         d="m 2073.4,3806.55 c -1.48,13.88 -3.48,29.27 -5.56,41.63 2.25,-12.45 4.07,-25.5 5.32,-38.93 0.09,-0.89 0.17,-1.8 0.24,-2.7"
         style="fill:#989999;fill-opacity:1;fill-rule:nonzero;stroke:none"
         id="path193" />
      <path
         d="m 2484.62,3327.76 h -7.97 v 0 h 7.95 c 10.02,0 18.48,5.51 22.85,13.85 v 0 h 0.07 c -0.03,-0.04 -0.05,-0.08 -0.07,-0.13 -4.37,-8.33 -12.83,-13.72 -22.83,-13.72 m 25.66,115.49 h -0.02 V 3501 c 0,3 -0.51,5.88 -1.46,8.56 0.96,-2.69 1.48,-5.58 1.48,-8.56 v -57.75"
         style="fill:#449290;fill-opacity:1;fill-rule:nonzero;stroke:none"
         id="path195" />
      <path
         d="m 2487.94,3526.45 c -0.02,0 -0.03,0.01 -0.05,0.01 0.02,0 0.03,-0.01 0.05,-0.01 m -0.07,0.01 c -1.07,0.13 -2.16,0.2 -3.27,0.2 h 0.02 c 1.1,0 2.18,-0.07 3.25,-0.2"
         style="fill:#bdbcba;fill-opacity:1;fill-rule:nonzero;stroke:none"
         id="path197" />
      <path
         d="m 2507.52,3341.61 h -0.07 c 1.79,3.47 2.81,7.57 2.81,11.81 v 89.83 h 0.02 v -89.83 c 0,-4.18 -1,-8.36 -2.76,-11.81"
         style="fill:#c8c7c5;fill-opacity:1;fill-rule:nonzero;stroke:none"
         id="path199" />
      <path
         d="m 2484.6,3327.76 h -7.95 c 0,152.19 -0.51,155.91 -36.33,155.91 h -73.66 V 3501 c 0,13.98 11.55,25.66 25.66,25.66 h 92.28 c 1.11,0 2.2,-0.07 3.27,-0.2 0,0 0.01,0 0.02,0 0.02,0 0.03,-0.01 0.05,-0.01 9.71,-1.27 17.68,-8 20.86,-16.89 0.95,-2.68 1.46,-5.56 1.46,-8.56 v -57.75 -89.83 c 0,-4.24 -1.02,-8.34 -2.81,-11.81 v 0 c -4.37,-8.34 -12.83,-13.85 -22.85,-13.85"
         style="fill:#c8c7c5;fill-opacity:1;fill-rule:nonzero;stroke:none"
         id="path201" />
      <path
         d="m 1278.54,4107.88 -21.85,-82.29 -20.89,-78.54 c 0,0 -329.351,-51.76 -354.554,-55.71 -25.195,-3.98 -28.316,-38.91 -39.082,-93.11 l -551.672,-86.69 -14.961,21.92 -50.281,73.38 -83.809,122.34 1137.099,178.7"
         style="fill:#ffffff;fill-opacity:1;fill-rule:nonzero;stroke:none"
         id="path203" />
      <path
         d="m 1288.66,3842.24 c -44.23,-17.86 -99.35,-35.72 -160.24,-53.07 -79.26,-22.63 -168.393,-44.39 -256.494,-64.13 -200.199,-44.9 -395.309,-79.43 -457.571,-89.12 l -14.621,92.69 442.43,69.57 c 10.707,54.27 13.934,89.14 39.106,93.21 25.179,3.92 354.49,55.62 354.49,55.62 l 20.92,78.59 3.05,0.52 28.93,-183.88"
         style="fill:#f5f5f5;fill-opacity:1;fill-rule:nonzero;stroke:none"
         id="path205" />
      <path
         d="m 1302.95,3535.25 v -78.6 H 969.387 c -21.598,0 -39.285,17.7 -39.285,39.29 0,10.9 4.414,20.76 11.558,27.74 7.145,7.15 16.84,11.57 27.727,11.57 h 333.563"
         style="fill:#f5f5f5;fill-opacity:1;fill-rule:nonzero;stroke:none"
         id="path207" />
      <path
         d="m 1302.95,3456.65 v -115.82 c -71.93,61.06 -272.99,115.82 -307.696,115.82 h 307.696"
         style="fill:#e8e7e6;fill-opacity:1;fill-rule:nonzero;stroke:none"
         id="path209" />
      <path
         d="m 1302.95,3340.83 c -71.93,61.06 -272.99,115.82 -307.696,115.82 h 307.696 v -115.82"
         style="fill:#c7c6c4;fill-opacity:1;fill-rule:nonzero;stroke:none"
         id="path211" />
      <path
         d="m 1382.22,3623.87 v -357.21 h -79.27 v 357.21 h 79.27"
         style="fill:#ffffff;fill-opacity:1;fill-rule:nonzero;stroke:none"
         id="path213" />
      <path
         d="m 1107.47,3618.26 v -83.01 H 964.254 v 83.01 c 0,39.63 32.148,71.61 71.616,71.61 39.63,0 71.6,-31.98 71.6,-71.61"
         style="fill:#cdccca;fill-opacity:1;fill-rule:nonzero;stroke:none"
         id="path215" />
      <path
         d="m 1093.39,3645.27 c 8.51,-33.34 -11.57,-67.36 -45.25,-76.04 -33.5,-8.67 -67.531,11.57 -76.035,45.09 -6.292,24.14 -27.039,55.95 -91.167,75 l -9.012,35.72 c 88.101,19.74 177.234,41.5 256.494,64.13 l 8.85,-34.36 c -47.12,-47.45 -50.01,-85.22 -43.88,-109.54"
         style="fill:#e8e7e6;fill-opacity:1;fill-rule:nonzero;stroke:none"
         id="path217" />
      <path
         d="m 1067.57,3628.91 c 0,-19.37 -15.7,-35.07 -35.07,-35.07 -19.37,0 -35.074,15.7 -35.074,35.07 0,19.38 15.704,35.07 35.074,35.07 19.37,0 35.07,-15.69 35.07,-35.07"
         style="fill:#81d3e1;fill-opacity:1;fill-rule:nonzero;stroke:none"
         id="path219" />
      <path
         d="m 399.738,3728.61 -0.004,0.02 442.411,69.56 c 0.003,0.01 0.003,0.03 0.007,0.04 h 0.012 c 0.594,2.99 1.164,5.92 1.715,8.79 -0.555,-2.89 -1.121,-5.83 -1.715,-8.84 l -442.43,-69.57 m 463.414,150.21 c 0.352,0.56 0.711,1.09 1.079,1.62 1.859,2.59 3.925,4.76 6.257,6.49 -2.793,-2.08 -5.207,-4.79 -7.336,-8.11 m 216.242,43.65 c 20.37,3.2 40.37,6.34 58.89,9.25 55.31,8.69 97.48,15.31 97.48,15.31 v 0.01 0 -0.03 c 0,0 -75.13,-11.79 -156.37,-24.54 m 177.31,103.14 v 0 l 3.03,0.51 -3.03,-0.51"
         style="fill:#4492a9;fill-opacity:1;fill-rule:nonzero;stroke:none"
         id="path221" />
      <path
         d="m 842.152,3798.23 c 0.762,3.81 1.481,7.51 2.168,11.11 -0.144,-0.77 -0.293,-1.54 -0.441,-2.32 -0.551,-2.87 -1.121,-5.8 -1.715,-8.79 v 0 m 22.063,82.21 c 4.285,6.07 9.711,9.79 17.043,10.97 16.168,2.5 157.75,24.73 257.01,40.31 -18.52,-2.91 -38.52,-6.05 -58.89,-9.25 -88.831,-13.95 -184.968,-29.03 -198.12,-31.08 -4.145,-0.67 -7.696,-2.18 -10.786,-4.46 -2.332,-1.73 -4.398,-3.9 -6.257,-6.49 m 371.533,66.6 20.92,78.57 h 0.02 v 0 l -0.02,-0.01 -20.92,-78.56 v 0"
         style="fill:#c8c7c5;fill-opacity:1;fill-rule:nonzero;stroke:none"
         id="path223" />
      <path
         d="m 405.008,3695.61 -5.27,33 442.426,69.57 c 0.594,3.01 1.16,5.95 1.715,8.84 0.148,0.78 0.297,1.55 0.441,2.32 2.391,12.48 4.43,23.73 6.664,33.76 2.739,12.76 5.789,23.3 9.704,31.29 0.777,1.58 1.593,3.06 2.46,4.43 2.129,3.32 4.543,6.03 7.336,8.11 3.09,2.28 6.641,3.79 10.786,4.46 13.152,2.05 109.289,17.13 198.12,31.08 81.24,12.75 156.37,24.54 156.37,24.54 v 0.03 l 20.92,78.56 0.02,0.01 3.03,0.51 2.23,-14.46 -5.28,-20.07 -20.92,-78.59 c 0,0 -329.311,-51.71 -354.49,-55.62 -25.172,-4.08 -28.239,-38.95 -39.125,-93.22 l -437.137,-68.55"
         style="fill:#bdbcba;fill-opacity:1;fill-rule:nonzero;stroke:none"
         id="path225" />
      <path
         d="m 888.414,3686.94 c -2.379,0.85 -4.922,1.54 -7.476,2.38 l -4.258,16.51 -4.571,18.47 8.829,-34.98 c 2.582,-0.77 5.093,-1.55 7.539,-2.36 -0.02,-0.01 -0.043,-0.01 -0.063,-0.02 m 242.266,60.98 c 1.66,1.81 3.38,3.62 5.18,5.46 -1.73,-1.79 -3.41,-3.63 -4.88,-5.38 l -0.3,-0.08 m 6.59,6.89 -8.85,34.36 8.85,-34.36 v 0"
         style="fill:#4492a9;fill-opacity:1;fill-rule:nonzero;stroke:none"
         id="path227" />
      <path
         d="m 871.926,3725.04 v 0.01 c 88.101,19.73 177.224,41.5 256.494,64.12 -79.26,-22.63 -168.393,-44.39 -256.494,-64.13"
         style="fill:#bdbcba;fill-opacity:1;fill-rule:nonzero;stroke:none"
         id="path229" />
      <path
         d="m 888.477,3686.96 c -2.446,0.81 -4.957,1.59 -7.539,2.36 l -8.829,34.98 -0.183,0.74 c 88.101,19.74 177.234,41.5 256.494,64.13 v 0 l 8.85,-34.36 c -0.47,-0.47 -0.94,-0.95 -1.41,-1.43 -1.8,-1.84 -3.52,-3.65 -5.18,-5.46 l -2.26,-0.6 c -74.31,-21.25 -157.287,-41.66 -239.943,-60.36"
         style="fill:#b2b2b1;fill-opacity:1;fill-rule:nonzero;stroke:none"
         id="path231" />
      <path
         d="m 964.293,3620.69 c 0.059,1.76 0.176,3.49 0.363,5.22 -0.183,-1.72 -0.304,-3.46 -0.363,-5.22"
         style="fill:#4492a9;fill-opacity:1;fill-rule:nonzero;stroke:none"
         id="path233" />
      <path
         d="m 1028.17,3545.86 c -27.84,0 -53.166,18.82 -60.346,47.1 -0.851,3.38 -2.035,6.95 -3.57,10.52 v 14.64 c 0,0.86 0.012,1.72 0.039,2.57 0.059,1.76 0.18,3.5 0.363,5.22 0.188,1.72 0.449,3.43 0.789,5.13 3.231,-5.78 5.262,-11.56 6.633,-16.83 7.176,-28.27 32.502,-47.08 60.352,-47.08 5.18,0 10.43,0.64 15.68,2 8.1,2.09 15.42,5.67 21.74,10.38 9.54,7.03 16.82,16.57 21.11,27.39 -0.72,-27.19 -19.2,-51.94 -47.11,-59.03 -5.24,-1.36 -10.5,-2.01 -15.68,-2.01"
         style="fill:#9c9c9b;fill-opacity:1;fill-rule:nonzero;stroke:none"
         id="path235" />
      <path
         d="m 1069.85,3579.51 c 9.62,7.16 16.92,16.91 21.12,27.89 0,-0.17 -0.01,-0.33 -0.01,-0.5 -4.29,-10.82 -11.57,-20.36 -21.11,-27.39"
         style="fill:#b2b2b1;fill-opacity:1;fill-rule:nonzero;stroke:none"
         id="path237" />
      <path
         d="m 1123.11,792.23 c -9.05,-20.949 -27.46,-37.539 -51.28,-43.57 C 1037.45,739.77 970.496,684.121 924.504,650.352 906.09,636.91 891.035,626.82 882.75,624.73 L 455.688,515.531 441.973,569.199 423.434,641.75 c 76.601,5.422 172.359,28.031 280.609,55.781 125.02,31.821 146.148,113.86 208.852,129.828 49.179,12.52 121.085,29.411 141.585,71.192 l 0.17,0.301 c 17.01,-0.454 33.17,-6.481 45.97,-16.75 12.53,-9.942 21.88,-23.973 26.25,-40.704 4.38,-17.046 2.72,-34.238 -3.76,-49.168"
         style="fill:#e5e5e4;fill-opacity:1;fill-rule:nonzero;stroke:none"
         id="path239" />
      <path
         d="m 1056.76,903.219 c -0.61,-1.348 -1.22,-2.867 -2.11,-4.367 l -0.17,-0.301 C 1033.98,856.77 962.074,839.879 912.895,827.359 850.191,811.391 829.063,729.352 704.043,697.531 595.793,669.781 500.035,647.172 423.434,641.75 c -14.942,-1.199 -29.262,-1.82 -42.829,-1.371 -4.078,0 -8.003,0.172 -11.91,0.32 -16.593,1.051 -31.371,3.153 -45.238,6.942 -1.211,0.3 -2.262,0.449 -3.168,0.73 -42.223,12.359 -70.258,38.027 -81.883,83.098 l -4.226,17.051 c -5.418,21.261 -9.942,38.742 28.808,48.531 l 320.426,81.898 113.238,28.942 308.518,78.718 c 21.57,5.59 43.13,-7.398 48.57,-28.808 l 4.37,-16.879 c 3.63,-14.344 2.72,-26.692 -1.35,-37.703"
         style="fill:#ffffff;fill-opacity:1;fill-rule:nonzero;stroke:none"
         id="path241" />
      <path
         d="m 441.973,569.199 -40.567,-10.39 -6.176,24.429 -14.625,57.141 c 13.567,-0.449 27.887,0.172 42.829,1.371 l 18.539,-72.551"
         style="fill:#2d6e88;fill-opacity:1;fill-rule:nonzero;stroke:none"
         id="path243" />
      <path
         d="m 380.652,640.379 14.567,-57.117 -54.785,-14.012 -20.215,79.211 c 1.027,-0.352 2.011,-0.602 3.172,-0.871 13.863,-3.649 28.757,-5.91 45.328,-6.828 3.953,-0.231 7.867,-0.313 11.933,-0.383"
         style="fill:#2d6e88;fill-opacity:1;fill-rule:nonzero;stroke:none"
         id="path245" />
      <path
         d="m 696.605,907.871 -113.238,-28.922 -12.746,49.949 113.223,28.903 12.761,-49.93"
         style="fill:#2d6e88;fill-opacity:1;fill-rule:nonzero;stroke:none"
         id="path247" />
      <path
         d="m 1214.01,820.738 -6.75,-2.129 -84.15,-26.379 c 6.47,14.93 8.14,32.122 3.76,49.168 -4.37,16.731 -13.72,30.762 -26.24,40.704 l 80.83,25.339 4.8,1.52 c 1.08,0.437 2.29,0.738 3.49,0.898 1.06,0.301 2.13,0.442 3.32,0.602 2.09,0.449 4.22,0.59 6.33,0.59 h 0.6 c 19.77,0 38.01,-12.653 44.18,-32.422 7.7,-24.27 -5.87,-50.199 -30.17,-57.891"
         style="fill:#78cfdf;fill-opacity:1;fill-rule:nonzero;stroke:none"
         id="path249" />
      <path
         d="M 1304.05,910.762 V 818.32 l -96.79,0.289 6.75,2.129 c 24.3,7.692 37.87,33.621 30.17,57.891 -6.17,19.769 -24.41,32.422 -44.18,32.422 l 104.05,-0.289"
         style="fill:#66b3c3;fill-opacity:1;fill-rule:nonzero;stroke:none"
         id="path251" />
      <path
         d="M 1379.59,932.48 V 796.781 h -75.54 V 932.48 h 75.54"
         style="fill:#78cfdf;fill-opacity:1;fill-rule:nonzero;stroke:none"
         id="path253" />
      <path
         d="M 1462.54,1034.72 V 694.531 h -82.95 v 340.189 h 82.95"
         style="fill:#ffffff;fill-opacity:1;fill-rule:nonzero;stroke:none"
         id="path255" />
      <path
         d="m 431.617,609.711 -8.172,31.988 c 76.582,5.43 172.317,28.039 280.524,55.789 32.133,8.184 57.394,19.66 78.269,32.5 45.457,27.934 70.09,62.231 99.36,82.571 9.601,6.66 19.711,11.812 31.218,14.742 43.664,11.121 105.304,25.679 132.904,58.07 3.5,4.098 6.45,8.481 8.76,13.18 l 0.14,0.238 c 8.16,-0.148 15.96,-1.668 23.34,-4.367 0.43,-8.16 -0.92,-15.703 -3.49,-22.633 -0.6,-1.348 -1.18,-2.84 -2.11,-4.367 l -0.15,-0.293 c -20.5,-41.77 -92.421,-58.66 -141.601,-71.18 -62.707,-15.98 -83.812,-98.019 -208.832,-129.828 -108.269,-27.75 -204.035,-50.359 -280.629,-55.793 -3.281,-0.297 -6.402,-0.449 -9.531,-0.617"
         style="fill:#b0b0ae;fill-opacity:1;fill-rule:nonzero;stroke:none"
         id="path257" />
      <path
         d="m 782.238,729.988 c 45.442,27.942 70.067,62.262 99.36,82.571 -29.27,-20.34 -53.903,-54.637 -99.36,-82.571 m 263.482,155.383 c 3.48,4.078 6.42,8.438 8.71,13.117 l 0.13,0.301 c 0.02,0 0.04,0 0.06,0 l -0.14,-0.238 c -2.31,-4.699 -5.26,-9.082 -8.76,-13.18"
         style="fill:#c8c7c5;fill-opacity:1;fill-rule:nonzero;stroke:none"
         id="path259" />
      <path
         d="m 406.699,608.84 c -2.828,0 -5.617,0.039 -8.371,0.121 -3.285,0 -6.59,0.141 -9.738,0.301 l -7.926,31.078 c 3.055,-0.102 6.149,-0.149 9.277,-0.149 10.731,0 21.891,0.571 33.422,1.5 0.028,0 0.055,0 0.082,0.008 l 8.172,-31.988 c -0.039,0 -0.078,0 -0.117,0 -8.473,-0.551 -16.777,-0.871 -24.801,-0.871"
         style="fill:#245468;fill-opacity:1;fill-rule:nonzero;stroke:none"
         id="path261" />
      <path
         d="m 327.344,620.539 c -0.012,0.012 -0.028,0.012 -0.039,0.02 l -7.086,27.75 c 0.015,0 0.027,-0.008 0.043,-0.008 l 7.082,-27.762"
         style="fill:#594478;fill-opacity:1;fill-rule:nonzero;stroke:none"
         id="path263" />
      <path
         d="m 388.59,609.262 c -0.024,0 -0.047,0 -0.07,0 l -3.157,7.457 c -3.527,0.222 -6.933,0.293 -10.238,0.293 -2.316,0 -4.586,-0.032 -6.816,-0.063 -2.231,-0.039 -4.426,-0.07 -6.59,-0.07 -7.086,0 -13.856,0.351 -20.641,2.191 -1.215,0.309 -3.812,0.18 -4.711,0.481 -1.265,0.347 -2.308,0.429 -3.269,0.429 -0.399,0 -0.782,-0.011 -1.157,-0.019 -0.378,-0.02 -0.75,-0.031 -1.125,-0.031 -1.05,0 -2.136,0.101 -3.472,0.609 l -7.082,27.762 c 0.898,-0.289 1.929,-0.442 3.113,-0.742 13.879,-3.758 28.656,-5.868 45.254,-6.93 3.914,-0.149 7.832,-0.289 11.906,-0.289 0.043,0 0.086,0 0.129,0 l 7.926,-31.078"
         style="fill:#245468;fill-opacity:1;fill-rule:nonzero;stroke:none"
         id="path265" />
      <path
         d="m 1301.16,2500.41 -37.74,-237.39 H 370.219 l -44.031,237.39 h 974.972"
         style="fill:#e8e7e6;fill-opacity:1;fill-rule:nonzero;stroke:none"
         id="path267" />
      <path
         d="m 1195.86,2219.37 c -25.54,-188.07 -186.94,-333.14 -382.184,-333.14 -195.121,0 -356.528,145.07 -382.071,333.14 h 764.255"
         style="fill:#2d6e88;fill-opacity:1;fill-rule:nonzero;stroke:none"
         id="path269" />
      <path
         d="m 1236,2263.02 c 0,-24.15 -19.63,-43.65 -43.66,-43.65 H 441.426 c -24.035,0 -43.66,19.5 -43.66,43.65 H 1236"
         style="fill:#1d3f4f;fill-opacity:1;fill-rule:nonzero;stroke:none"
         id="path271" />
      <path
         d="M 553.199,2263.02 H 444.805 l -47.039,237.4 H 535.84 l 17.359,-237.4"
         style="fill:#ffffff;fill-opacity:1;fill-rule:nonzero;stroke:none"
         id="path273" />
      <path
         d="m 773.645,1938.32 c -15.239,0 -29.434,1.22 -35.145,2.38 -38.699,6.9 -90.199,25.7 -122,47.8 -38.703,26.3 -69.297,52.5 -95.602,91.3 -13.796,19.3 -36.898,70.9 -28.597,97.2 5.574,15.13 27.554,17.63 47.156,17.63 7.473,0 14.602,-0.36 20.344,-0.53 37.699,-1.1 66.398,-12.4 65.199,-61.4 -1.699,-72 37.102,-111.7 139.398,-141.6 15.504,-4.5 70.102,-21 59.102,-41.7 -4.574,-8.62 -28.262,-11.08 -49.855,-11.08"
         style="fill:#468b9f;fill-opacity:1;fill-rule:nonzero;stroke:none"
         id="path275" />
      <path
         d="m 905.523,2108.6 c 0,-42.54 -34.472,-77.01 -76.984,-77.01 -42.656,0 -77.129,34.47 -77.129,77.01 0,42.51 34.473,77.1 77.129,77.1 42.512,0 76.984,-34.59 76.984,-77.1"
         style="fill:#3c94b4;fill-opacity:1;fill-rule:nonzero;stroke:none"
         id="path277" />
      <path
         d="m 810.355,2088.33 c -20,0 -36.101,16.24 -36.101,36.24 0,19.88 16.101,36.09 36.101,36.09 20,0 36.231,-16.21 36.231,-36.09 0,-20 -16.231,-36.24 -36.231,-36.24"
         style="fill:#85c6d0;fill-opacity:1;fill-rule:nonzero;stroke:none"
         id="path279" />
      <path
         d="m 813.676,1886.23 c -0.164,0 -0.332,0 -0.496,0 0.164,0 0.332,0 0.496,0 195.224,0 356.624,145.07 382.184,333.13 v 0 C 1170.32,2031.3 1008.92,1886.23 813.676,1886.23 m -0.692,0 c -0.097,0 -0.187,0 -0.285,0 0.098,0 0.188,0 0.285,0 m -0.55,0 c -0.024,0 -0.047,0 -0.071,0 0.024,0 0.043,0 0.071,0 m 381.206,333.14 h -1.3 c 24.03,0 43.66,19.5 43.66,43.65 h -77.88 105.3 l 37.74,237.39 -37.74,-237.39 H 1236 c 0,-23.72 -18.93,-42.96 -42.36,-43.65"
         style="fill:#ac3a61;fill-opacity:1;fill-rule:nonzero;stroke:none"
         id="path281" />
      <path
         d="m 1263.42,2263.02 h -105.3 l 18.87,237.39 h 124.17 l -37.74,-237.39"
         style="fill:#b2b2b1;fill-opacity:1;fill-rule:nonzero;stroke:none"
         id="path283" />
      <path
         d="m 813.676,1886.23 c -0.164,0 -0.332,0 -0.496,0 -0.067,0 -0.133,0 -0.196,0 -0.097,0 -0.187,0 -0.285,0 -0.09,0 -0.179,0 -0.265,0 -0.028,0 -0.047,0 -0.071,0 -17.41,0.06 -34.468,1.31 -51.269,3.66 239.126,44.36 306.326,158.64 329.476,329.47 h -3.52 c 0.44,0 0.87,0 1.3,0.01 h 103.99 v 0 h 1.3 c -0.43,-0.01 -0.87,-0.01 -1.3,-0.01 h 3.52 C 1170.3,2031.3 1008.9,1886.23 813.676,1886.23"
         style="fill:#245468;fill-opacity:1;fill-rule:nonzero;stroke:none"
         id="path285" />
      <path
         d="m 1192.34,2219.37 h -103.99 c 23.42,0.69 42.34,19.93 42.34,43.65 h 27.43 77.88 c 0,-24.15 -19.63,-43.65 -43.66,-43.65 v 0"
         style="fill:#19313b;fill-opacity:1;fill-rule:nonzero;stroke:none"
         id="path287" />
      <path
         d="m 4152.21,1044.17 -196.3,-87.26 -28.02,-12.461 -92.06,-40.91 c -0.62,1.633 -1.33,3.281 -2.04,4.91 -22.11,49.789 -80.6,72.211 -130.41,50.031 -49.92,-22.011 -72.42,-80.519 -50.23,-130.429 0.72,-1.539 1.44,-3.063 2.25,-4.602 L 3446.54,730.48 c -25.89,-11.371 -56.05,0.09 -67.51,25.981 l -72.53,163.141 -24.64,55.539 -9.31,20.859 c -11.45,25.77 0.2,55.86 25.98,67.51 l 705.77,313.51 c 25.76,11.45 56.05,-0.21 67.5,-25.98 l 106.38,-239.46 c 11.45,-25.77 -0.21,-55.94 -25.97,-67.41"
         style="fill:#f5f5f5;fill-opacity:1;fill-rule:nonzero;stroke:none"
         id="path289" />
      <path
         d="m 3815.9,1183.02 c -6.38,0 -12.45,3.68 -15.22,9.88 -3.73,8.39 0.06,18.21 8.44,21.93 l 191.63,85.15 c 2.2,0.98 4.49,1.44 6.75,1.44 6.37,0 12.44,-3.67 15.18,-9.87 3.73,-8.39 -0.04,-18.21 -8.44,-21.93 l -191.6,-85.17 c -2.2,-0.97 -4.49,-1.43 -6.74,-1.43"
         style="fill:#bdbcba;fill-opacity:1;fill-rule:nonzero;stroke:none"
         id="path291" />
      <path
         d="m 3841.86,1124.6 c -6.38,0 -12.46,3.69 -15.2,9.88 -3.75,8.39 0.04,18.21 8.42,21.95 l 191.62,85.13 c 2.2,0.98 4.49,1.45 6.75,1.45 6.37,0 12.44,-3.68 15.18,-9.87 3.74,-8.38 -0.04,-18.23 -8.42,-21.95 l -191.62,-85.15 c -2.19,-0.98 -4.48,-1.44 -6.73,-1.44"
         style="fill:#bdbcba;fill-opacity:1;fill-rule:nonzero;stroke:none"
         id="path293" />
      <path
         d="m 3867.79,1066.18 c -6.36,0 -12.42,3.68 -15.17,9.87 -3.74,8.39 0.05,18.22 8.43,21.94 l 191.63,85.16 c 2.18,0.98 4.47,1.44 6.72,1.44 6.37,0 12.45,-3.69 15.21,-9.89 3.71,-8.38 -0.05,-18.21 -8.45,-21.94 l -191.62,-85.13 c -2.2,-0.98 -4.49,-1.45 -6.75,-1.45"
         style="fill:#bdbcba;fill-opacity:1;fill-rule:nonzero;stroke:none"
         id="path295" />
      <path
         d="m 3299.86,779.27 -144.91,-64.418 -64.41,144.949 144.93,64.398 64.39,-144.929"
         style="fill:#5bc0d8;fill-opacity:1;fill-rule:nonzero;stroke:none"
         id="path297" />
      <path
         d="m 3369.78,777.281 -57.63,-25.621 -87.93,197.852 57.64,25.609 87.92,-197.84"
         style="fill:#3684a3;fill-opacity:1;fill-rule:nonzero;stroke:none"
         id="path299" />
      <path
         d="m 3839.41,844.211 c -2.66,-10.641 -7.15,-20.762 -13.19,-29.969 v -0.113 c -10.03,-15.438 -24.54,-28.109 -42.55,-36.199 -2.46,-1.219 -5.02,-2.25 -7.58,-3.071 -10.63,-3.789 -21.38,-5.527 -32.11,-5.527 -36.32,-0.203 -71.19,19.848 -88.58,54.117 -0.81,1.539 -1.53,3.063 -2.25,4.602 -22.19,49.91 0.31,108.418 50.23,130.429 49.81,22.18 108.3,-0.242 130.41,-50.031 0.71,-1.629 1.42,-3.277 2.04,-4.91 7.47,-19.648 8.29,-40.199 3.58,-59.328"
         style="fill:#ffffff;fill-opacity:1;fill-rule:nonzero;stroke:none"
         id="path301" />
      <path
         d="m 3861.41,752.559 c -8.08,0.711 -16.37,0.113 -24.34,-1.618 -15.76,-3.293 -30.8,-11.062 -43.07,-23.132 -6.14,-6.137 -11.15,-12.899 -14.94,-20.047 l -35.08,61.57 c 10.73,0 21.48,1.738 32.11,5.527 2.56,0.821 5.12,1.852 7.58,3.071 18.01,8.09 32.52,20.761 42.55,36.199 l 35.19,-61.57"
         style="fill:#e8e7e6;fill-opacity:1;fill-rule:nonzero;stroke:none"
         id="path303" />
      <path
         d="m 4123.53,659.031 c 0,-16.269 2.45,-32 7.06,-46.859 h -208.56 c 21.78,26.918 25.16,63.726 10.01,93.687 h 198.55 c -4.61,-14.808 -7.06,-30.578 -7.06,-46.828"
         style="fill:#e8e7e6;fill-opacity:1;fill-rule:nonzero;stroke:none"
         id="path305" />
      <path
         d="m 3922.05,612.129 c -1.84,-2.149 -3.78,-4.41 -5.94,-6.457 -33.73,-33.75 -88.36,-33.75 -122.11,0 -21.48,21.5 -29.25,51.469 -23.32,79.18 1.64,7.867 4.4,15.66 8.38,22.91 3.79,7.148 8.8,13.91 14.94,20.047 12.27,12.07 27.31,19.839 43.07,23.132 7.97,1.731 16.26,2.329 24.34,1.618 19.94,-1.329 39.48,-9.618 54.7,-24.75 6.66,-6.649 12,-14.02 15.98,-21.989 15.14,-29.859 11.76,-66.691 -10.04,-93.691"
         style="fill:#ffffff;fill-opacity:1;fill-rule:nonzero;stroke:none"
         id="path307" />
      <path
         d="m 3788.64,868.211 c 0,-24.941 -20.22,-45.152 -45.16,-45.152 -24.94,0 -45.16,20.211 -45.16,45.152 0,24.949 20.22,45.16 45.16,45.16 24.94,0 45.16,-20.211 45.16,-45.16"
         style="fill:#a4e1e9;fill-opacity:1;fill-rule:nonzero;stroke:none"
         id="path309" />
      <path
         d="m 3892.52,668.359 c 0,-20.679 -16.79,-37.48 -37.5,-37.48 -20.7,0 -37.5,16.801 -37.5,37.48 0,20.719 16.8,37.5 37.5,37.5 20.71,0 37.5,-16.781 37.5,-37.5"
         style="fill:#a4e1e9;fill-opacity:1;fill-rule:nonzero;stroke:none"
         id="path311" />
      <path
         d="M 4282.11,817.512 V 500.43 c -71.31,0 -131.54,47.16 -151.49,111.699 -4.6,14.922 -7.07,30.582 -7.07,46.84 0,16.261 2.47,32.113 7.07,46.851 4.4,14.012 10.63,27.309 18.52,39.391 6.02,9.508 13.18,18.199 21.07,26.078 28.64,28.633 68.22,46.223 111.9,46.223"
         style="fill:#ffffff;fill-opacity:1;fill-rule:nonzero;stroke:none"
         id="path313" />
      <path
         d="m 4265.02,875.512 c -9.73,-33.043 -39.08,-49.614 -62.7,-62.903 -16.17,-9.109 -31.4,-17.8 -33.85,-27.718 -0.93,-3.68 -0.31,-8.18 1.74,-13.602 -7.89,-7.879 -15.05,-16.57 -21.07,-26.078 -10.55,17.488 -13.91,32.918 -10.44,47.039 5.52,22.801 27.41,35.09 48.49,47.051 20.75,11.668 42.23,23.828 48.38,44.801 8.38,28.539 0.91,51.347 -23.32,71.707 -24.65,20.652 -63.11,12.882 -81.42,-0.618 -12.6,-9.203 -19.54,-24.453 -26.81,-40.609 -10.11,-22.5 -21.57,-47.98 -50.84,-58.812 -50.21,-20.051 -109.74,51.75 -125.29,88.679 l 28.02,12.461 c 12.38,-29.949 60.24,-82.73 86.22,-72.512 17.61,6.563 25.17,23.332 33.97,42.762 8.18,18.11 17.4,38.77 36.52,52.781 26.19,19.34 80.5,31.819 119.26,-0.601 33.35,-27.93 44.8,-63.84 33.14,-103.828"
         style="fill:#a4e1e9;fill-opacity:1;fill-rule:nonzero;stroke:none"
         id="path315" />
      <path
         d="m 3623.91,809.422 c -11.45,38.308 1.59,79.457 31.77,104.226 -7.21,-13.949 -11.07,-29.546 -11.08,-45.457 0,-9.992 1.52,-20.101 4.69,-30 0,-0.011 0,-0.019 0.01,-0.031 0.01,-0.031 0.02,-0.07 0.03,-0.101 1.08,-3.368 2.35,-6.719 3.82,-10.02 0.72,-1.527 1.44,-3.059 2.25,-4.59 l -31.49,-14.019"
         style="fill:#bdbcba;fill-opacity:1;fill-rule:nonzero;stroke:none"
         id="path317" />
      <path
         d="m 3649.33,838.059 c -0.01,0.031 -0.02,0.07 -0.03,0.101 0.01,-0.031 0.02,-0.07 0.03,-0.101 m -0.04,0.132 c -3.17,9.899 -4.69,20.008 -4.69,30 0.01,15.911 3.87,31.508 11.08,45.457 0.04,0.043 0.09,0.071 0.13,0.114 -11.83,-22.75 -14.73,-49.891 -6.52,-75.571"
         style="fill:#c8c7c5;fill-opacity:1;fill-rule:nonzero;stroke:none"
         id="path319" />
      <path
         d="M 4201.77,3819.64 V 3406.1 c -77.16,14.04 -139.65,70.09 -162.73,143.49 l -0.42,1.25 c -6.03,19.65 -9.36,40.45 -9.36,62.08 0,21.53 3.33,42.43 9.36,62.08 l 0.62,1.88 c 14.56,45.54 44.2,84.42 83.18,110.52 7.92,5.31 16.12,10.09 24.76,14.35 17.05,8.32 35.35,14.36 54.59,17.89"
         style="fill:#ffffff;fill-opacity:1;fill-rule:nonzero;stroke:none"
         id="path321" />
      <path
         d="m 3991.42,3824.73 -205.79,-60.41 -198.5,-58.23 -317.66,-93.17 -12.9,44.09 -26.09,89.12 150.14,8.32 581.36,170.52 7.07,-24.23 22.37,-76.01"
         style="fill:#e8e7e6;fill-opacity:1;fill-rule:nonzero;stroke:none"
         id="path323" />
      <path
         d="m 3961.98,3924.97 -581.36,-170.52 -150.14,-8.32 h -0.12 l -62.8,-3.44 -94.42,-5.2 -36.18,123.22 147.14,43.15 721.94,211.82 22.25,-76.02 33.69,-114.69"
         style="fill:#ffffff;fill-opacity:1;fill-rule:nonzero;stroke:none"
         id="path325" />
      <path
         d="m 4033.53,3919.67 -64.48,-18.93 -7.07,24.23 -33.69,114.69 64.47,18.93 15.19,-51.68 8.21,-27.97 17.37,-59.27"
         style="fill:#2d6e88;fill-opacity:1;fill-rule:nonzero;stroke:none"
         id="path327" />
      <path
         d="m 3256.57,3657.01 -58.86,-17.26 -30.15,102.94 62.8,3.44 26.21,-89.12"
         style="fill:#2d6e88;fill-opacity:1;fill-rule:nonzero;stroke:none"
         id="path329" />
      <path
         d="m 3715.45,3549.59 h 76.11 c -11.76,-11.43 -26.4,-20.37 -43.26,-25.26 -54.9,-16.12 -112.29,15.28 -128.31,70.08 l -32.86,111.68 198.5,58.23 25.68,-87.44 h -95.86 c -17.58,0 -33.49,-7.19 -44.93,-18.62 -11.54,-11.55 -18.62,-27.46 -18.62,-45.03 0,-35.14 28.4,-63.64 63.55,-63.64"
         style="fill:#cdccca;fill-opacity:1;fill-rule:nonzero;stroke:none"
         id="path331" />
      <path
         d="m 4038.62,3550.84 0.42,-1.25 h -323.59 c -35.15,0 -63.55,28.5 -63.55,63.64 0,17.57 7.08,33.48 18.62,45.03 11.44,11.43 27.35,18.62 44.93,18.62 h 323.79 l -0.62,-1.88 c -6.03,-19.65 -9.36,-40.55 -9.36,-62.08 0,-21.63 3.33,-42.43 9.36,-62.08"
         style="fill:#e8e7e6;fill-opacity:1;fill-rule:nonzero;stroke:none"
         id="path333" />
      <path
         d="m 4172.55,3929.03 c -3.85,-5.82 -8.12,-11.76 -12.48,-17.78 -18.82,-25.89 -38.17,-52.73 -31.3,-80.18 2.39,-9.45 8.63,-22.25 18.41,-29.32 -8.64,-4.26 -16.84,-9.04 -24.76,-14.35 -9.98,10.4 -16.84,23.92 -20.16,37.13 -9.88,39.71 15.39,74.65 35.77,102.73 4.16,5.72 8.21,11.33 11.85,16.84 9.06,13.52 10.92,34.22 4.67,52.62 -5.29,15.91 -15.48,27.66 -27.96,32.03 -36.61,12.99 -56.36,-4.27 -83.6,-28.08 -8.53,-7.38 -17.27,-14.97 -26.83,-21.73 l -8.21,27.97 c 5.81,4.57 11.54,9.46 17.04,14.35 27.76,24.13 59.17,51.47 110.75,33.17 20.38,-7.18 36.71,-25.06 44.71,-49.08 8.85,-26.52 5.83,-55.84 -7.9,-76.32"
         style="fill:#78cfdf;fill-opacity:1;fill-rule:nonzero;stroke:none"
         id="path335" />
      <path
         d="m 4277.15,3894.2 v -561.92 h -75.38 v 561.92 h 75.38"
         style="fill:#f5f5f5;fill-opacity:1;fill-rule:nonzero;stroke:none"
         id="path337" />
      <path
         d="m 3175.25,3716.29 -6.1,20.97 6.14,-20.97 h -0.04 m 62.88,3.42 -7.77,26.42 h 0.12 l 7.73,-26.42 h -0.04 -0.04 m 731.43,179.31 -0.51,1.72 0.01,0.01 v -0.01 l 0.5,-1.72"
         style="fill:#594478;fill-opacity:1;fill-rule:nonzero;stroke:none"
         id="path339" />
      <path
         d="m 3238.21,3719.71 -7.73,26.42 150.14,8.32 581.36,170.52 7.07,-24.23 0.51,-1.72 0.85,-2.95 -570.86,-167.41 -150.15,-8.33 h -0.09 l -11.1,-0.62"
         style="fill:#b2b2b1;fill-opacity:1;fill-rule:nonzero;stroke:none"
         id="path341" />
      <path
         d="m 3167.57,3742.69 v 0.01 l 55.18,3.01 -55.18,-3.02"
         style="fill:#c8c7c5;fill-opacity:1;fill-rule:nonzero;stroke:none"
         id="path343" />
      <path
         d="m 3969.05,3900.74 -7.07,24.23 7.08,-24.22 -0.01,-0.01"
         style="fill:#245468;fill-opacity:1;fill-rule:nonzero;stroke:none"
         id="path345" />
      <path
         d="m 3175.29,3716.29 -6.14,20.97 -1.58,5.43 55.18,3.02 7.61,0.41 7.77,-26.41 -51.65,-2.8 -11.19,-0.62"
         style="fill:#245468;fill-opacity:1;fill-rule:nonzero;stroke:none"
         id="path347" />
      <path
         d="m 3755.1,3612.88 c 0,-19.73 -16,-35.72 -35.72,-35.72 -19.72,0 -35.71,15.99 -35.71,35.72 0,19.71 15.99,35.71 35.71,35.71 19.72,0 35.72,-16 35.72,-35.71"
         style="fill:#2d6e88;fill-opacity:1;fill-rule:nonzero;stroke:none"
         id="path349" />
      <path
         d="m 2531.56,1285.76 c 3.67,-8.52 8,-20.72 11.61,-34.91 14.26,-55.21 19.78,-141.96 -50.75,-172.47 L 1887.68,816.809 c -39.02,-16.887 -80.78,-18.469 -118.6,-7.27 l -0.83,0.25 c -26.12,7.82 -50.28,21.66 -70.33,40.781 -16.66,15.668 -30.41,34.969 -40.06,57.258 l 873.7,377.932"
         style="fill:#ffffff;fill-opacity:1;fill-rule:nonzero;stroke:none"
         id="path351" />
      <path
         d="m 2553.48,1235.1 94.25,-217.9 c 12.09,-27.97 -0.78,-60.501 -28.75,-72.598 L 1904.49,635.559 c -27.98,-12.098 -60.5,0.781 -72.6,28.761 l -62.81,145.219 c 37.82,-11.199 79.58,-9.617 118.6,7.27 l 604.74,261.571 c 70.53,30.51 65.01,117.26 50.75,172.47 4.25,-4.54 7.73,-9.78 10.31,-15.75"
         style="fill:#e8e7e6;fill-opacity:1;fill-rule:nonzero;stroke:none"
         id="path353" />
      <path
         d="m 1768.25,809.609 55.19,-127.597 -44.38,-19.203 -81.14,187.589 c 20.05,-19.109 44.21,-32.968 70.33,-40.789"
         style="fill:#2d6e88;fill-opacity:1;fill-rule:nonzero;stroke:none"
         id="path355" />
      <path
         d="m 1711.37,819.301 53.7,-124.16 -40.54,-17.532 -53.7,124.153 40.54,17.539"
         style="fill:#2d6e88;fill-opacity:1;fill-rule:nonzero;stroke:none"
         id="path357" />
      <path
         d="m 2365.62,678.609 30.03,-69.23 c -15.02,1.871 -30.82,-0.109 -45.71,-6.641 -17.33,-7.5 -31.03,-19.976 -40.19,-34.988 l -31.59,73.102 c -15.46,35.66 -56.86,52.117 -92.52,36.648 l -29.04,67.141 216.64,93.64 29.04,-67.031 c -35.67,-15.449 -52.12,-56.98 -36.66,-92.641"
         style="fill:#e8e7e6;fill-opacity:1;fill-rule:nonzero;stroke:none"
         id="path359" />
      <path
         d="m 2458.58,474.34 c 15.36,23.851 19,54.648 6.86,82.699 -1.88,4.41 -4.19,8.609 -6.74,12.59 l 235.19,0.211 0.12,-95.289 -235.43,-0.211"
         style="fill:#e8e7e6;fill-opacity:1;fill-rule:nonzero;stroke:none"
         id="path361" />
      <path
         d="m 2458.58,474.34 c -9.16,-14.141 -22.29,-25.731 -38.85,-32.91 -44.61,-19.211 -96.29,1.211 -115.62,45.832 -11.7,27.148 -8.73,57.078 5.64,80.488 9.16,15.012 22.86,27.488 40.19,34.988 14.89,6.532 30.69,8.512 45.71,6.633 25.39,-3.199 48.81,-17.449 63.05,-39.742 2.55,-3.981 4.86,-8.18 6.74,-12.59 12.14,-28.051 8.5,-58.848 -6.86,-82.699"
         style="fill:#ffffff;fill-opacity:1;fill-rule:nonzero;stroke:none"
         id="path363" />
      <path
         d="m 2785,403.391 h -91.04 V 640.789 H 2785 V 403.391"
         style="fill:#ffffff;fill-opacity:1;fill-rule:nonzero;stroke:none"
         id="path365" />
      <path
         d="m 2425.7,523.512 c 0,-23.364 -18.93,-42.293 -42.29,-42.293 -23.36,0 -42.3,18.929 -42.3,42.293 0,23.359 18.94,42.289 42.3,42.289 23.36,0 42.29,-18.93 42.29,-42.289"
         style="fill:#a4e1e9;fill-opacity:1;fill-rule:nonzero;stroke:none"
         id="path367" />
      <path
         d="m 1852.27,805.73 c 0.23,0.04 0.45,0.09 0.67,0.129 11,2.243 21.94,5.582 32.68,10.071 -10.96,-4.578 -22.12,-7.961 -33.35,-10.2 m 34.04,10.489 c 0.25,0.113 0.5,0.211 0.76,0.32 -0.26,-0.109 -0.51,-0.207 -0.76,-0.32 m 0.91,0.39 c 0.16,0.071 0.31,0.133 0.46,0.2 l 116.51,50.39 -116.51,-50.39 c -0.15,-0.067 -0.3,-0.129 -0.46,-0.2 m 683.99,377.501 -17.73,40.99 c -1,2.3 -2.12,4.49 -3.38,6.58 1.29,-2.04 2.42,-4.24 3.41,-6.57 l 17.67,-40.87 c 0.01,-0.04 0.02,-0.09 0.03,-0.13"
         style="fill:#449290;fill-opacity:1;fill-rule:nonzero;stroke:none"
         id="path369" />
      <path
         d="m 1852.94,805.859 c 11.71,2.391 23.35,6.032 34.74,10.973 l 116.51,50.367 -116.51,-50.39 c -0.15,-0.067 -0.3,-0.129 -0.46,-0.2 -0.05,-0.019 -0.1,-0.039 -0.15,-0.07 -0.26,-0.109 -0.51,-0.207 -0.76,-0.32 -0.23,-0.098 -0.46,-0.188 -0.69,-0.289 -10.74,-4.489 -21.68,-7.828 -32.68,-10.071 m 678.62,303.781 c 26.03,36.97 22.93,90.86 13.77,131.75 l 0.11,0.05 c 3.84,-17.15 6.61,-36.59 6.61,-56.11 -0.01,-27.04 -5.33,-54.23 -20.49,-75.69"
         style="fill:#c8c7c5;fill-opacity:1;fill-rule:nonzero;stroke:none"
         id="path371" />
      <path
         d="m 1842.64,762.551 c -16.82,0 -33.44,2.437 -49.37,7.129 l -0.78,0.218 c -2.42,0.774 -4.85,1.551 -7.28,2.422 l -16.13,37.219 c 15.86,-4.73 32.45,-7.18 49.24,-7.18 11.28,0 22.65,1.102 33.95,3.371 11.23,2.239 22.39,5.622 33.35,10.2 0.23,0.101 0.46,0.191 0.69,0.289 0.25,0.113 0.5,0.211 0.76,0.32 0.05,0.031 0.1,0.051 0.15,0.07 0.16,0.071 0.31,0.133 0.46,0.2 l 116.51,50.39 488.26,211.111 c 17.28,7.51 29.98,18.38 39.11,31.33 15.16,21.46 20.48,48.65 20.49,75.69 0,19.52 -2.77,38.96 -6.61,56.11 l 3.76,1.61 c 0.31,-0.45 0.61,-0.91 0.9,-1.37 1.26,-2.09 2.38,-4.28 3.38,-6.58 l 17.73,-40.99 c 10.78,-54.64 9.08,-128.09 -54.59,-155.57 L 1911.96,776.961 c -22.64,-9.781 -46.17,-14.41 -69.32,-14.41"
         style="fill:#b2b2b1;fill-opacity:1;fill-rule:nonzero;stroke:none"
         id="path373" />
      <path
         d="m 2284.1,799.75 89.09,38.539 0.01,-0.027 -89.1,-38.512"
         style="fill:#449290;fill-opacity:1;fill-rule:nonzero;stroke:none"
         id="path375" />
      <path
         d="m 2156.67,744.672 -0.01,0.008 216.52,93.621 0.01,-0.012 -89.09,-38.539 -127.43,-55.078"
         style="fill:#b2b2b1;fill-opacity:1;fill-rule:nonzero;stroke:none"
         id="path377" />
      <path
         d="m 2185.7,677.539 -29.03,67.133 127.43,55.078 89.1,38.512 24.51,-56.563 c -13.5,-9.289 -16.58,-10.418 -31.84,-20.25 l -140.2,-79.168 c -3.95,0.699 -7.99,1.059 -12.05,1.059 -9.34,0 -18.84,-1.891 -27.92,-5.801"
         style="fill:#b2b2b1;fill-opacity:1;fill-rule:nonzero;stroke:none"
         id="path379" />
    </g>
  </g>
</svg>
