<?xml version="1.0" encoding="UTF-8" standalone="no"?>
<!-- Created with Inkscape (http://www.inkscape.org/) -->

<svg
   version="1.1"
   id="svg25"
   xml:space="preserve"
   width="457.36331"
   height="489.43201"
   viewBox="0 0 457.36331 489.432"
   sodipodi:docname="869.eps"
   xmlns:inkscape="http://www.inkscape.org/namespaces/inkscape"
   xmlns:sodipodi="http://sodipodi.sourceforge.net/DTD/sodipodi-0.dtd"
   xmlns="http://www.w3.org/2000/svg"
   xmlns:svg="http://www.w3.org/2000/svg"><defs
     id="defs29"><filter
       inkscape:label="Sharpen More"
       inkscape:menu="Image Effects"
       inkscape:menu-tooltip="Sharpen edges and boundaries within the object, force=0.3"
       style="color-interpolation-filters:sRGB;"
       id="filter2016"
       x="0"
       y="0"
       width="1"
       height="1"><feConvolveMatrix
         targetY="1"
         targetX="1"
         in="SourceGraphic"
         divisor="1"
         kernelMatrix="0 -0.3 0 -0.3 2.2 -0.3 0 -0.3 0"
         order="3 3"
         result="result1"
         id="feConvolveMatrix2012" /><feBlend
         in2="SourceGraphic"
         mode="normal"
         result="result2"
         id="feBlend2014" /></filter></defs><sodipodi:namedview
     id="namedview27"
     pagecolor="#ffffff"
     bordercolor="#666666"
     borderopacity="1.0"
     inkscape:pageshadow="2"
     inkscape:pageopacity="0.0"
     inkscape:pagecheckerboard="0"
     showgrid="false" /><g
     id="g31"
     inkscape:groupmode="layer"
     inkscape:label="ink_ext_XXXXXX"
     transform="matrix(1.3333333,0,0,-1.3333333,-334.7807,513.57953)"><g
       id="g33"
       transform="scale(0.1)"><path
         d="m 3613.83,2173.27 146.06,84.33 -146.06,84.32 -146.07,-84.32 -146.06,-84.33 146.06,-84.33 146.07,-84.33 146.06,84.33 -146.06,84.33"
         style="fill:#d9effb;fill-opacity:1;fill-rule:nonzero;stroke:none"
         id="path35" /><path
         d="m 3613.83,2383.33 v 618.42 l 146.06,84.32 v -618.41 l -146.06,-84.33"
         style="fill:#263c7a;fill-opacity:1;fill-rule:nonzero;stroke:none"
         id="path37" /><path
         d="m 3613.83,3001.75 -146.07,84.32 v -618.41 l 146.07,-84.33 v 618.42"
         style="fill:#4067b1;fill-opacity:1;fill-rule:nonzero;stroke:none"
         id="path39" /><path
         d="m 3759.89,3086.07 -146.06,84.34 -146.07,-84.34 146.07,-84.32 146.06,84.32"
         style="fill:#d9effb;fill-opacity:1;fill-rule:nonzero;stroke:none"
         id="path41" /><path
         d="m 3759.89,2355.21 -146.06,84.33 v -56.21 l 146.06,-84.34 v 56.22"
         style="fill:#8cd147;fill-opacity:1;fill-rule:nonzero;stroke:none"
         id="path43" /><path
         d="m 3467.76,2298.99 v 449.77 l 146.07,84.33 v -449.76 l -146.07,-84.34"
         style="fill:#c23222;fill-opacity:1;fill-rule:nonzero;stroke:none"
         id="path45" /><path
         d="m 3467.76,2748.76 -146.06,84.33 v -449.76 l 146.06,-84.34 v 449.77"
         style="fill:#dc4220;fill-opacity:1;fill-rule:nonzero;stroke:none"
         id="path47" /><path
         d="m 3613.83,2833.09 -146.07,84.32 -146.06,-84.32 146.06,-84.33 146.07,84.33"
         style="fill:#ef4b26;fill-opacity:1;fill-rule:nonzero;stroke:none"
         id="path49" /><path
         d="m 3467.76,2298.99 v 449.77 l 146.07,84.33 v -449.76 l -146.07,-84.34"
         style="fill:#4067b1;fill-opacity:1;fill-rule:nonzero;stroke:none"
         id="path51" /><path
         d="m 3467.76,2748.76 -146.06,84.33 v -449.76 l 146.06,-84.34 v 449.77"
         style="fill:#5f92d3;fill-opacity:1;fill-rule:nonzero;stroke:none"
         id="path53" /><path
         d="m 3613.83,2833.09 -146.07,84.32 -146.06,-84.32 146.06,-84.33 146.07,84.33"
         style="fill:#d9effb;fill-opacity:1;fill-rule:nonzero;stroke:none"
         id="path55" /><path
         d="m 3613.83,2214.67 v 252.99 l 146.06,84.32 v -252.99 l -146.06,-84.32"
         style="fill:#263c7a;fill-opacity:1;fill-rule:nonzero;stroke:none"
         id="path57" /><path
         d="m 3613.83,2467.66 -146.07,84.32 v -252.99 l 146.07,-84.32 v 252.99"
         style="fill:#4067b1;fill-opacity:1;fill-rule:nonzero;stroke:none"
         id="path59" /><path
         d="m 3759.89,2551.98 -146.06,84.34 -146.07,-84.34 146.07,-84.32 146.06,84.32"
         style="fill:#d9effb;fill-opacity:1;fill-rule:nonzero;stroke:none"
         id="path61" /><path
         d="m 2484.04,1872.17 h -7.59 v 46.43 c 0,3.04 -0.46,5.2 -1.38,6.48 -0.93,1.28 -2.38,1.92 -4.33,1.92 -3.27,0 -6.71,-1.84 -10.32,-5.52 v -49.31 h -7.59 v 59.89 h 7.59 v -6.23 c 4.42,4.76 9.23,7.14 14.42,7.14 2.96,0 5.24,-1.1 6.83,-3.31 1.58,-2.22 2.37,-5.36 2.37,-9.44 v -48.05"
         style="fill:#8aa5d0;fill-opacity:1;fill-rule:nonzero;stroke:none"
         id="path259" /><path
         d="m 2509.43,1871.41 c -4.08,0 -6.89,1.12 -8.45,3.37 -1.55,2.23 -2.34,5.51 -2.38,9.83 V 1927 h -7.23 v 5.06 h 7.23 v 18.51 h 7.59 v -18.51 h 9.97 V 1927 h -9.97 v -41.68 c 0,-3.04 0.36,-5.11 1.06,-6.25 0.72,-1.13 2.14,-1.7 4.3,-1.7 1.39,0 2.8,0.14 4.26,0.41 v -5.71 c -2.27,-0.44 -4.39,-0.66 -6.38,-0.66"
         style="fill:#8aa5d0;fill-opacity:1;fill-rule:nonzero;stroke:none"
         id="path261" /><path
         d="m 5480.99,1873.49 -4.34,16.95 49.25,12.62 4.34,-16.96 -49.25,-12.61"
         style="fill:#5f92d3;fill-opacity:1;fill-rule:nonzero;stroke:none"
         id="path267" /><path
         d="m 5455.88,1848.98 -4.35,16.96 49.24,12.61 4.34,-16.95 -49.23,-12.62"
         style="fill:#5f92d3;fill-opacity:1;fill-rule:nonzero;stroke:none"
         id="path269" /><path
         d="m 5430.76,1824.48 -4.35,16.96 49.24,12.61 4.35,-16.95 -49.24,-12.62"
         style="fill:#5f92d3;fill-opacity:1;fill-rule:nonzero;stroke:none"
         id="path271" /><path
         d="m 5405.63,1799.98 -4.34,16.94 49.24,12.63 4.35,-16.95 -49.25,-12.62"
         style="fill:#5f92d3;fill-opacity:1;fill-rule:nonzero;stroke:none"
         id="path273" /><path
         d="m 4227.35,640.25 -1103.1,636.88 c -31.21,18.02 -27.3,49.48 8.74,70.28 l 751.13,433.53 c 36.03,20.8 90.54,23.06 121.75,5.05 L 5108.96,1149.1 c 31.21,-18.01 27.3,-49.48 -8.74,-70.28 L 4349.1,645.289 c -36.04,-20.801 -90.55,-23.051 -121.75,-5.039"
         style="fill:#d9effb;fill-opacity:1;fill-rule:nonzero;stroke:none"
         id="path275" /><path
         d="m 5149.77,2401.9 -1121.31,646.85 c -14.43,8.33 -27.7,9.62 -38.38,5.17 l 0.04,0.12 -1.83,-0.85 -0.45,-0.21 -36.5,-17.18 39.62,-19.73 -0.07,-2.18 0.34,-920.98 c 0.01,-46.08 28.53,-99.89 63.71,-120.19 l 1091.4,-629.59 6.21,-51.37 39.85,19.01 c 13.12,7.72 21.44,25.15 21.43,49.98 l -0.35,920.97 c -0.02,46.09 -28.54,99.9 -63.71,120.18"
         style="fill:#263c7a;fill-opacity:1;fill-rule:nonzero;stroke:none"
         id="path277" /><path
         d="m 5149.77,2401.9 -1121.31,646.85 c -14.43,8.33 -27.7,9.62 -38.38,5.17 l 0.04,0.12 -1.83,-0.85 -0.45,-0.21 -36.5,-17.18 39.62,-19.73 -0.07,-2.18 0.22,-606.99 510.3,-403.19 692.88,348.7 c -11.49,21.34 -27.18,39.5 -44.52,49.49"
         style="fill:#4067b1;fill-opacity:1;fill-rule:nonzero;stroke:none"
         id="path279" /><path
         d="m 5168.5,2387.42 -109.89,-46.23 82.97,-63.91 69.29,29.49 c -6.03,30.28 -22.01,60.71 -42.37,80.65"
         style="fill:#2e4b8d;fill-opacity:1;fill-rule:nonzero;stroke:none"
         id="path281" /><path
         d="m 5113.27,1296.64 -1121.31,646.85 c -35.17,20.28 -63.69,74.09 -63.71,120.18 l -0.34,920.98 c -0.02,46.08 28.47,67 63.65,46.72 l 1121.3,-646.85 c 35.17,-20.29 63.7,-74.1 63.71,-120.18 l 0.34,-920.98 c 0.02,-46.08 -28.47,-67 -63.64,-46.72"
         style="fill:#d9effb;fill-opacity:1;fill-rule:nonzero;stroke:none"
         id="path283" /><path
         d="m 5075.96,1365.15 -1047.24,603.82 c -32.18,18.57 -58.28,67.81 -58.3,109.99 l -0.32,842.76 c -0.01,42.18 26.07,61.32 58.25,42.75 l 1047.24,-603.83 c 32.19,-18.56 58.29,-67.8 58.3,-109.98 l 0.32,-842.76 c 0.02,-42.18 -26.07,-61.32 -58.25,-42.75"
         style="fill:#ffffff;fill-opacity:1;fill-rule:nonzero;stroke:none"
         id="path285" /><path
         d="m 5075.96,1365.15 -1047.24,603.82 c -32.18,18.57 -58.28,67.81 -58.3,109.99 l -0.32,842.76 c -0.01,42.18 26.07,61.32 58.25,42.75 l 1047.24,-603.83 c 32.19,-18.56 58.29,-67.8 58.3,-109.98 l 0.32,-842.76 c 0.02,-42.18 -26.07,-61.32 -58.25,-42.75"
         style="fill:#ffffff;fill-opacity:1;fill-rule:nonzero;stroke:none"
         id="path287" /><path
         d="m 5130.01,1268.04 -150.78,19.91 -973.36,561.96 c -31.21,18.02 -85.72,15.76 -121.75,-5.04 l -689.72,-398.06 -91.18,12.04 v -51.74 l 0.1,-0.01 c -0.61,-11.95 6.2,-23.46 20.93,-31.95 l 1103.1,-636.88 c 31.2,-18.02 85.71,-15.758 121.75,5.039 l 751.12,433.531 c 20.28,11.7 30.38,26.77 29.79,40.93 v 50.27"
         style="fill:#263c7a;fill-opacity:1;fill-rule:nonzero;stroke:none"
         id="path289" /><path
         d="m 4398.66,1623.13 -69.15,39.93 h -760.29 l -374.82,-216.25 -91.18,12.04 v -51.74 l 0.1,-0.01 c -0.61,-11.95 6.2,-23.46 20.93,-31.95 l 1103.1,-636.88 c 16.49,-9.52 39.49,-13.329 62.83,-11.782 l 108.48,896.642"
         style="fill:#4067b1;fill-opacity:1;fill-rule:nonzero;stroke:none"
         id="path291" /><path
         d="m 3143.69,1453.51 -40.47,5.34 v -51.74 l 0.1,-0.01 c -0.61,-11.95 6.2,-23.46 20.93,-31.95 l 19.44,-11.23 v 89.59"
         style="fill:#5f92d3;fill-opacity:1;fill-rule:nonzero;stroke:none"
         id="path293" /><path
         d="m 4238.45,733.109 c 29.58,-11.218 71.88,-8.769 103.45,6.422 V 854.922 H 4238.45 V 733.109"
         style="fill:#2e4b8d;fill-opacity:1;fill-rule:nonzero;stroke:none"
         id="path295" /><path
         d="m 4227.35,789.941 -1103.1,636.879 c -31.21,18.01 -27.3,49.48 8.74,70.29 l 751.13,433.51 c 36.03,20.82 90.54,23.07 121.75,5.05 L 5108.96,1298.8 c 31.21,-18.02 27.3,-49.49 -8.74,-70.29 L 4349.1,794.988 c -36.04,-20.808 -90.55,-23.066 -121.75,-5.047"
         style="fill:#d9effb;fill-opacity:1;fill-rule:nonzero;stroke:none"
         id="path297" /><path
         d="M 5100.22,1247.4 4349.1,813.891 c -36.04,-20.809 -90.55,-23.071 -121.75,-5.051 l -1103.1,636.87 c -10.24,5.91 -16.62,13.27 -19.4,21.22 -4.88,-14.76 1.34,-29.68 19.4,-40.11 l 1103.1,-636.879 c 31.2,-18.019 85.71,-15.761 121.75,5.047 l 751.12,433.522 c 24.22,13.98 33.86,32.77 28.15,49.07 -3.56,-10.75 -12.96,-21.41 -28.15,-30.18"
         style="fill:#ffffff;fill-opacity:1;fill-rule:nonzero;stroke:none"
         id="path299" /><path
         d="m 3593.42,1637.66 -49.92,28.81 c -4.01,2.32 -3.5,6.36 1.13,9.04 l 58.9,34 c 4.63,2.68 11.63,2.97 15.64,0.66 l 49.91,-28.82 c 4,-2.32 3.51,-6.36 -1.12,-9.03 l -58.91,-34.01 c -4.63,-2.68 -11.63,-2.96 -15.63,-0.65"
         style="fill:#263c7a;fill-opacity:1;fill-rule:nonzero;stroke:none"
         id="path301" /><path
         d="m 3670.49,1593.16 -49.92,28.81 c -4,2.32 -3.49,6.36 1.13,9.04 l 58.91,34.01 c 4.63,2.67 11.63,2.96 15.64,0.64 l 49.91,-28.81 c 4,-2.32 3.51,-6.36 -1.12,-9.03 l -58.92,-34.01 c -4.63,-2.68 -11.62,-2.96 -15.63,-0.65"
         style="fill:#263c7a;fill-opacity:1;fill-rule:nonzero;stroke:none"
         id="path303" /><path
         d="m 3747.57,1548.66 -49.92,28.81 c -4,2.32 -3.5,6.36 1.13,9.03 l 58.91,34.02 c 4.63,2.66 11.62,2.96 15.64,0.64 l 49.91,-28.82 c 4,-2.31 3.51,-6.34 -1.12,-9.02 l -58.92,-34.01 c -4.63,-2.68 -11.63,-2.96 -15.63,-0.65"
         style="fill:#263c7a;fill-opacity:1;fill-rule:nonzero;stroke:none"
         id="path305" /><path
         d="m 3854.17,1585.41 -49.91,28.82 c -4.01,2.31 -3.51,6.35 1.12,9.02 l 49.45,28.56 c 4.63,2.66 11.63,2.96 15.64,0.64 l 49.91,-28.82 c 4,-2.31 3.5,-6.34 -1.12,-9.02 l -49.46,-28.56 c -4.63,-2.66 -11.62,-2.95 -15.63,-0.64"
         style="fill:#263c7a;fill-opacity:1;fill-rule:nonzero;stroke:none"
         id="path307" /><path
         d="m 3931.25,1540.91 -49.91,28.82 c -4.01,2.31 -3.51,6.35 1.12,9.02 l 49.45,28.55 c 4.63,2.67 11.63,2.96 15.64,0.65 l 49.91,-28.82 c 4,-2.3 3.5,-6.35 -1.12,-9.02 l -49.46,-28.56 c -4.63,-2.66 -11.63,-2.96 -15.63,-0.64"
         style="fill:#263c7a;fill-opacity:1;fill-rule:nonzero;stroke:none"
         id="path309" /><path
         d="m 4008.33,1496.41 -49.91,28.81 c -4.02,2.32 -3.51,6.36 1.12,9.03 l 49.45,28.55 c 4.63,2.68 11.62,2.96 15.64,0.65 l 49.91,-28.81 c 4,-2.32 3.5,-6.36 -1.12,-9.03 l -49.46,-28.55 c -4.63,-2.68 -11.63,-2.97 -15.63,-0.65"
         style="fill:#263c7a;fill-opacity:1;fill-rule:nonzero;stroke:none"
         id="path311" /><path
         d="m 4085.4,1451.9 -49.9,28.82 c -4.02,2.32 -3.51,6.36 1.11,9.03 l 49.45,28.55 c 4.63,2.68 11.63,2.96 15.64,0.66 l 49.91,-28.82 c 4.01,-2.32 3.5,-6.36 -1.12,-9.04 l -49.46,-28.54 c -4.62,-2.68 -11.62,-2.97 -15.63,-0.66"
         style="fill:#263c7a;fill-opacity:1;fill-rule:nonzero;stroke:none"
         id="path313" /><path
         d="m 4162.48,1407.4 -49.91,28.82 c -4.01,2.32 -3.51,6.36 1.12,9.03 l 49.45,28.55 c 4.63,2.67 11.63,2.97 15.64,0.65 l 49.91,-28.82 c 4,-2.31 3.5,-6.35 -1.12,-9.02 l -49.46,-28.55 c -4.63,-2.68 -11.63,-2.96 -15.63,-0.66"
         style="fill:#263c7a;fill-opacity:1;fill-rule:nonzero;stroke:none"
         id="path315" /><path
         d="m 4239.56,1362.91 -49.91,28.81 c -4.01,2.31 -3.51,6.36 1.12,9.03 l 49.45,28.55 c 4.63,2.67 11.63,2.97 15.64,0.65 l 49.91,-28.82 c 4,-2.31 3.5,-6.35 -1.12,-9.02 l -49.46,-28.56 c -4.63,-2.67 -11.63,-2.95 -15.63,-0.64"
         style="fill:#263c7a;fill-opacity:1;fill-rule:nonzero;stroke:none"
         id="path317" /><path
         d="m 4316.64,1318.41 -49.91,28.81 c -4.02,2.31 -3.51,6.35 1.12,9.03 l 49.45,28.55 c 4.63,2.67 11.62,2.96 15.64,0.65 l 49.91,-28.82 c 4,-2.31 3.5,-6.36 -1.12,-9.02 l -49.46,-28.56 c -4.63,-2.67 -11.63,-2.96 -15.63,-0.64"
         style="fill:#263c7a;fill-opacity:1;fill-rule:nonzero;stroke:none"
         id="path319" /><path
         d="m 4393.71,1273.91 -49.91,28.81 c -4.01,2.31 -3.5,6.35 1.12,9.03 l 49.45,28.55 c 4.63,2.67 11.63,2.96 15.64,0.65 l 49.91,-28.82 c 4.01,-2.32 3.51,-6.36 -1.12,-9.02 l -49.46,-28.56 c -4.62,-2.67 -11.62,-2.96 -15.63,-0.64"
         style="fill:#263c7a;fill-opacity:1;fill-rule:nonzero;stroke:none"
         id="path321" /><path
         d="m 4470.79,1229.4 -49.91,28.82 c -4.01,2.32 -3.51,6.35 1.12,9.03 l 49.45,28.55 c 4.63,2.67 11.63,2.96 15.64,0.65 l 49.91,-28.82 c 4,-2.32 3.51,-6.35 -1.12,-9.03 l -49.46,-28.55 c -4.63,-2.67 -11.63,-2.96 -15.63,-0.65"
         style="fill:#263c7a;fill-opacity:1;fill-rule:nonzero;stroke:none"
         id="path323" /><path
         d="m 4547.87,1184.9 -49.91,28.82 c -4.01,2.32 -3.51,6.36 1.12,9.02 l 49.45,28.56 c 4.63,2.66 11.63,2.96 15.64,0.64 l 49.91,-28.82 c 4,-2.3 3.51,-6.34 -1.12,-9.02 l -49.46,-28.55 c -4.63,-2.67 -11.63,-2.96 -15.63,-0.65"
         style="fill:#263c7a;fill-opacity:1;fill-rule:nonzero;stroke:none"
         id="path325" /><path
         d="m 3967.74,1606.47 -49.91,28.82 c -4.01,2.32 -3.51,6.36 1.12,9.03 l 49.46,28.55 c 4.62,2.68 11.62,2.96 15.63,0.66 l 49.91,-28.82 c 4.01,-2.32 3.5,-6.36 -1.12,-9.04 l -49.45,-28.54 c -4.63,-2.68 -11.63,-2.97 -15.64,-0.66"
         style="fill:#4067b1;fill-opacity:1;fill-rule:nonzero;stroke:none"
         id="path327" /><path
         d="m 3889.51,1651.64 -49.91,28.82 c -4.01,2.31 -3.51,6.36 1.12,9.02 l 49.45,28.56 c 4.63,2.67 11.63,2.96 15.64,0.64 l 49.91,-28.81 c 4,-2.31 3.51,-6.35 -1.12,-9.03 l -49.46,-28.55 c -4.62,-2.67 -11.63,-2.96 -15.63,-0.65"
         style="fill:#4067b1;fill-opacity:1;fill-rule:nonzero;stroke:none"
         id="path329" /><path
         d="m 3811.15,1696.88 -107.49,62.07 c -4,2.31 -3.51,6.35 1.12,9.02 l 49.46,28.55 c 4.62,2.68 11.63,2.96 15.63,0.65 l 107.49,-62.06 c 4.01,-2.32 3.51,-6.36 -1.12,-9.03 l -49.46,-28.55 c -4.61,-2.68 -11.62,-2.96 -15.63,-0.65"
         style="fill:#263c7a;fill-opacity:1;fill-rule:nonzero;stroke:none"
         id="path331" /><path
         d="m 3865.93,1751.89 -87.24,50.38 c -4,2.31 -3.51,6.34 1.12,9.02 l 49.46,28.55 c 4.62,2.67 11.63,2.96 15.63,0.65 l 87.24,-50.36 c 4,-2.32 3.5,-6.36 -1.13,-9.04 l -49.45,-28.54 c -4.63,-2.68 -11.63,-2.97 -15.63,-0.66"
         style="fill:#263c7a;fill-opacity:1;fill-rule:nonzero;stroke:none"
         id="path333" /><path
         d="m 4044.81,1561.97 -49.91,28.82 c -4,2.32 -3.5,6.36 1.12,9.03 l 49.46,28.55 c 4.62,2.67 11.63,2.97 15.63,0.65 l 49.91,-28.81 c 4.02,-2.32 3.51,-6.36 -1.12,-9.03 l -49.45,-28.55 c -4.62,-2.68 -11.62,-2.96 -15.64,-0.66"
         style="fill:#4067b1;fill-opacity:1;fill-rule:nonzero;stroke:none"
         id="path335" /><path
         d="m 4121.89,1517.48 -49.91,28.81 c -4,2.31 -3.51,6.36 1.12,9.03 l 49.46,28.55 c 4.63,2.67 11.63,2.97 15.63,0.65 l 49.91,-28.82 c 4.01,-2.31 3.51,-6.35 -1.12,-9.02 l -49.45,-28.56 c -4.63,-2.67 -11.63,-2.95 -15.64,-0.64"
         style="fill:#263c7a;fill-opacity:1;fill-rule:nonzero;stroke:none"
         id="path337" /><path
         d="m 4198.97,1472.98 -49.91,28.81 c -4,2.31 -3.51,6.35 1.12,9.03 l 49.46,28.55 c 4.63,2.67 11.63,2.96 15.63,0.65 l 49.91,-28.82 c 4.01,-2.31 3.51,-6.36 -1.12,-9.02 l -49.45,-28.56 c -4.63,-2.66 -11.63,-2.96 -15.64,-0.64"
         style="fill:#263c7a;fill-opacity:1;fill-rule:nonzero;stroke:none"
         id="path339" /><path
         d="m 4276.05,1428.48 -49.91,28.81 c -4.01,2.32 -3.51,6.35 1.12,9.03 l 49.46,28.55 c 4.63,2.67 11.62,2.96 15.63,0.65 l 49.91,-28.82 c 4.01,-2.32 3.5,-6.36 -1.12,-9.02 l -49.45,-28.56 c -4.63,-2.66 -11.63,-2.96 -15.64,-0.64"
         style="fill:#263c7a;fill-opacity:1;fill-rule:nonzero;stroke:none"
         id="path341" /><path
         d="m 4353.12,1383.97 -49.91,28.82 c -4,2.32 -3.5,6.35 1.12,9.03 l 49.46,28.55 c 4.63,2.67 11.63,2.96 15.63,0.65 l 49.91,-28.82 c 4.02,-2.32 3.51,-6.35 -1.12,-9.03 l -49.45,-28.55 c -4.63,-2.67 -11.62,-2.96 -15.64,-0.65"
         style="fill:#263c7a;fill-opacity:1;fill-rule:nonzero;stroke:none"
         id="path343" /><path
         d="m 4430.2,1339.47 -49.91,28.82 c -4,2.32 -3.51,6.36 1.12,9.02 l 49.46,28.56 c 4.63,2.67 11.63,2.96 15.63,0.64 l 49.91,-28.81 c 4.01,-2.31 3.51,-6.35 -1.12,-9.03 l -49.45,-28.55 c -4.63,-2.67 -11.63,-2.96 -15.64,-0.65"
         style="fill:#263c7a;fill-opacity:1;fill-rule:nonzero;stroke:none"
         id="path345" /><path
         d="m 4507.28,1294.97 -49.91,28.82 c -4,2.31 -3.51,6.36 1.12,9.02 l 49.46,28.56 c 4.63,2.67 11.63,2.96 15.63,0.64 l 49.91,-28.81 c 4.01,-2.31 3.51,-6.35 -1.12,-9.03 l -49.45,-28.55 c -4.63,-2.67 -11.63,-2.96 -15.64,-0.65"
         style="fill:#263c7a;fill-opacity:1;fill-rule:nonzero;stroke:none"
         id="path347" /><path
         d="m 4584.36,1250.47 -49.91,28.82 c -4.01,2.31 -3.51,6.35 1.12,9.02 l 49.46,28.56 c 4.63,2.67 11.62,2.95 15.63,0.65 l 49.91,-28.82 c 4.01,-2.31 3.5,-6.36 -1.12,-9.03 L 4600,1251.12 c -4.63,-2.67 -11.63,-2.97 -15.64,-0.65"
         style="fill:#263c7a;fill-opacity:1;fill-rule:nonzero;stroke:none"
         id="path349" /><path
         d="m 4661.43,1205.97 -49.91,28.82 c -4,2.31 -3.5,6.35 1.12,9.03 l 49.46,28.54 c 4.63,2.68 11.63,2.97 15.63,0.66 l 49.91,-28.82 c 4.02,-2.32 3.51,-6.36 -1.12,-9.02 l -49.45,-28.56 c -4.63,-2.67 -11.62,-2.96 -15.64,-0.65"
         style="fill:#263c7a;fill-opacity:1;fill-rule:nonzero;stroke:none"
         id="path351" /><path
         d="m 4798.46,1126.86 -108.9,62.88 c -4.01,2.31 -3.51,6.34 1.12,9.02 l 49.45,28.55 c 4.63,2.67 11.64,2.96 15.64,0.65 l 108.91,-62.87 c 4,-2.32 3.5,-6.36 -1.13,-9.04 l -49.45,-28.54 c -4.63,-2.68 -11.63,-2.97 -15.64,-0.65"
         style="fill:#263c7a;fill-opacity:1;fill-rule:nonzero;stroke:none"
         id="path353" /><path
         d="m 4948.52,1213.5 -91.91,53.06 c -4.01,2.32 -3.51,6.36 1.12,9.04 l 49.46,28.54 c 4.62,2.68 11.62,2.97 15.63,0.65 l 91.91,-53.07 c 4.01,-2.32 3.51,-6.35 -1.12,-9.02 l -49.45,-28.56 c -4.63,-2.67 -11.63,-2.96 -15.64,-0.64"
         style="fill:#263c7a;fill-opacity:1;fill-rule:nonzero;stroke:none"
         id="path355" /><path
         d="m 4179.79,1570.68 -49.91,28.82 c -4,2.32 -3.51,6.36 1.12,9.03 l 49.46,28.55 c 4.63,2.67 11.63,2.96 15.63,0.64 l 49.91,-28.81 c 4.02,-2.31 3.51,-6.35 -1.12,-9.03 l -49.45,-28.55 c -4.63,-2.67 -11.62,-2.96 -15.64,-0.65"
         style="fill:#263c7a;fill-opacity:1;fill-rule:nonzero;stroke:none"
         id="path357" /><path
         d="m 4100.8,1616.29 -49.91,28.82 c -4.01,2.31 -3.51,6.35 1.12,9.02 l 49.45,28.56 c 4.63,2.67 11.63,2.95 15.64,0.64 l 49.91,-28.81 c 4.01,-2.31 3.51,-6.36 -1.12,-9.03 l -49.46,-28.55 c -4.63,-2.67 -11.62,-2.97 -15.63,-0.65"
         style="fill:#263c7a;fill-opacity:1;fill-rule:nonzero;stroke:none"
         id="path359" /><path
         d="m 4021.8,1661.9 -49.91,28.81 c -4,2.32 -3.5,6.36 1.13,9.04 l 49.45,28.54 c 4.63,2.68 11.63,2.97 15.63,0.66 l 49.92,-28.82 c 4,-2.32 3.5,-6.36 -1.13,-9.03 l -49.45,-28.55 c -4.63,-2.68 -11.63,-2.96 -15.64,-0.65"
         style="fill:#4067b1;fill-opacity:1;fill-rule:nonzero;stroke:none"
         id="path361" /><path
         d="m 3942.81,1707.51 -49.91,28.82 c -4.01,2.3 -3.51,6.35 1.12,9.02 l 49.45,28.56 c 4.63,2.66 11.63,2.96 15.64,0.64 l 49.91,-28.82 c 4,-2.31 3.51,-6.36 -1.12,-9.02 l -49.46,-28.56 c -4.62,-2.66 -11.63,-2.95 -15.63,-0.64"
         style="fill:#263c7a;fill-opacity:1;fill-rule:nonzero;stroke:none"
         id="path363" /><path
         d="m 4256.87,1526.18 -49.91,28.82 c -4,2.31 -3.51,6.36 1.12,9.02 l 49.46,28.56 c 4.63,2.67 11.63,2.96 15.63,0.64 l 49.91,-28.81 c 4.01,-2.31 3.51,-6.35 -1.12,-9.03 l -49.45,-28.54 c -4.63,-2.68 -11.63,-2.97 -15.64,-0.66"
         style="fill:#263c7a;fill-opacity:1;fill-rule:nonzero;stroke:none"
         id="path365" /><path
         d="m 4333.95,1481.68 -49.91,28.82 c -4,2.31 -3.51,6.36 1.12,9.02 l 49.46,28.56 c 4.63,2.67 11.62,2.96 15.63,0.64 l 49.91,-28.81 c 4.01,-2.31 3.51,-6.36 -1.12,-9.03 l -49.45,-28.55 c -4.63,-2.67 -11.63,-2.96 -15.64,-0.65"
         style="fill:#263c7a;fill-opacity:1;fill-rule:nonzero;stroke:none"
         id="path367" /><path
         d="m 4411.02,1437.18 -49.9,28.82 c -4.01,2.31 -3.51,6.35 1.12,9.03 l 49.46,28.54 c 4.62,2.68 11.62,2.97 15.63,0.66 l 49.9,-28.82 c 4.02,-2.31 3.51,-6.36 -1.11,-9.02 l -49.46,-28.56 c -4.62,-2.67 -11.62,-2.96 -15.64,-0.65"
         style="fill:#263c7a;fill-opacity:1;fill-rule:nonzero;stroke:none"
         id="path369" /><path
         d="m 4488.1,1392.69 -49.91,28.8 c -4,2.32 -3.5,6.36 1.12,9.04 l 49.46,28.54 c 4.63,2.68 11.63,2.97 15.63,0.66 l 49.91,-28.82 c 4.02,-2.32 3.51,-6.36 -1.12,-9.03 l -49.45,-28.55 c -4.63,-2.68 -11.62,-2.96 -15.64,-0.64"
         style="fill:#263c7a;fill-opacity:1;fill-rule:nonzero;stroke:none"
         id="path371" /><path
         d="m 4565.18,1348.18 -49.91,28.81 c -4,2.32 -3.5,6.36 1.12,9.04 l 49.46,28.54 c 4.63,2.68 11.63,2.97 15.63,0.65 l 49.91,-28.81 c 4.01,-2.32 3.51,-6.36 -1.12,-9.03 l -49.45,-28.55 c -4.63,-2.68 -11.63,-2.96 -15.64,-0.65"
         style="fill:#263c7a;fill-opacity:1;fill-rule:nonzero;stroke:none"
         id="path373" /><path
         d="m 4642.26,1303.68 -49.91,28.82 c -4.01,2.3 -3.5,6.35 1.12,9.02 l 49.46,28.56 c 4.63,2.66 11.62,2.96 15.63,0.64 l 49.91,-28.82 c 4.01,-2.31 3.51,-6.35 -1.12,-9.02 l -49.45,-28.55 c -4.63,-2.67 -11.63,-2.96 -15.64,-0.65"
         style="fill:#263c7a;fill-opacity:1;fill-rule:nonzero;stroke:none"
         id="path375" /><path
         d="m 4719.33,1259.18 -49.9,28.82 c -4.01,2.31 -3.5,6.35 1.12,9.02 l 49.46,28.56 c 4.62,2.66 11.62,2.96 15.63,0.64 l 49.9,-28.82 c 4.02,-2.31 3.51,-6.35 -1.12,-9.02 l -49.45,-28.56 c -4.62,-2.66 -11.62,-2.95 -15.64,-0.64"
         style="fill:#263c7a;fill-opacity:1;fill-rule:nonzero;stroke:none"
         id="path377" /><path
         d="m 4796.41,1214.68 -49.91,28.82 c -4,2.31 -3.5,6.35 1.12,9.02 l 49.46,28.55 c 4.63,2.67 11.63,2.96 15.63,0.65 l 49.91,-28.82 c 4.02,-2.3 3.51,-6.35 -1.12,-9.02 l -49.45,-28.56 c -4.63,-2.66 -11.62,-2.96 -15.64,-0.64"
         style="fill:#263c7a;fill-opacity:1;fill-rule:nonzero;stroke:none"
         id="path379" /><path
         d="m 4873.49,1170.18 -49.91,28.81 c -4,2.32 -3.5,6.36 1.12,9.03 l 49.46,28.55 c 4.63,2.68 11.63,2.96 15.63,0.65 l 49.91,-28.81 c 4.01,-2.32 3.51,-6.36 -1.12,-9.04 l -49.45,-28.54 c -4.63,-2.68 -11.63,-2.97 -15.64,-0.65"
         style="fill:#263c7a;fill-opacity:1;fill-rule:nonzero;stroke:none"
         id="path381" /><path
         d="m 4139.21,1680.75 -49.92,28.82 c -4,2.31 -3.5,6.36 1.13,9.02 l 49.45,28.56 c 4.63,2.67 11.63,2.96 15.64,0.64 l 49.91,-28.81 c 4.01,-2.31 3.5,-6.35 -1.13,-9.03 l -49.45,-28.54 c -4.63,-2.68 -11.62,-2.97 -15.63,-0.66"
         style="fill:#263c7a;fill-opacity:1;fill-rule:nonzero;stroke:none"
         id="path383" /><path
         d="m 4062.52,1725.03 -49.92,28.82 c -4,2.31 -3.5,6.36 1.13,9.03 l 49.45,28.55 c 4.63,2.67 11.62,2.96 15.64,0.65 l 49.91,-28.82 c 4,-2.31 3.5,-6.36 -1.13,-9.02 l -49.45,-28.56 c -4.63,-2.67 -11.63,-2.96 -15.63,-0.65"
         style="fill:#263c7a;fill-opacity:1;fill-rule:nonzero;stroke:none"
         id="path385" /><path
         d="m 3985.82,1769.32 -49.91,28.8 c -4.01,2.32 -3.51,6.36 1.12,9.04 l 49.45,28.54 c 4.63,2.68 11.63,2.97 15.64,0.66 l 49.91,-28.82 c 4.01,-2.32 3.5,-6.36 -1.12,-9.02 l -49.46,-28.56 c -4.63,-2.67 -11.62,-2.96 -15.63,-0.64"
         style="fill:#263c7a;fill-opacity:1;fill-rule:nonzero;stroke:none"
         id="path387" /><path
         d="m 3909.13,1813.59 -49.91,28.82 c -4.01,2.32 -3.51,6.35 1.12,9.03 l 49.45,28.55 c 4.63,2.67 11.63,2.96 15.64,0.64 l 49.91,-28.81 c 4,-2.32 3.51,-6.35 -1.12,-9.03 l -49.46,-28.55 c -4.63,-2.67 -11.63,-2.96 -15.63,-0.65"
         style="fill:#263c7a;fill-opacity:1;fill-rule:nonzero;stroke:none"
         id="path389" /><path
         d="m 3988,1859.12 -49.92,28.82 c -4.01,2.31 -3.5,6.36 1.13,9.02 l 16.34,9.45 c 4.63,2.67 11.63,2.96 15.64,0.64 l 49.91,-28.81 c 4,-2.31 3.5,-6.36 -1.12,-9.03 l -16.35,-9.43 c -4.63,-2.68 -11.63,-2.97 -15.63,-0.66"
         style="fill:#263c7a;fill-opacity:1;fill-rule:nonzero;stroke:none"
         id="path391" /><path
         d="m 4088.07,1801.34 -49.91,28.82 c -4,2.31 -3.49,6.35 1.12,9.02 l 16.35,9.44 c 4.63,2.67 11.63,2.96 15.64,0.65 l 49.91,-28.82 c 4.01,-2.31 3.51,-6.35 -1.12,-9.02 l -16.35,-9.44 c -4.63,-2.67 -11.62,-2.97 -15.64,-0.65"
         style="fill:#263c7a;fill-opacity:1;fill-rule:nonzero;stroke:none"
         id="path393" /><path
         d="m 4164.45,1757.25 -49.91,28.81 c -4.01,2.32 -3.51,6.35 1.12,9.03 l 16.35,9.44 c 4.63,2.67 11.63,2.96 15.63,0.65 l 49.92,-28.82 c 4,-2.32 3.5,-6.36 -1.13,-9.03 l -16.34,-9.44 c -4.63,-2.67 -11.64,-2.96 -15.64,-0.64"
         style="fill:#263c7a;fill-opacity:1;fill-rule:nonzero;stroke:none"
         id="path395" /><path
         d="m 4240.83,1713.15 -49.91,28.81 c -4.01,2.32 -3.51,6.36 1.12,9.04 l 16.35,9.43 c 4.63,2.68 11.63,2.97 15.63,0.65 l 49.91,-28.81 c 4.01,-2.32 3.51,-6.36 -1.12,-9.04 l -16.35,-9.43 c -4.63,-2.68 -11.63,-2.96 -15.63,-0.65"
         style="fill:#263c7a;fill-opacity:1;fill-rule:nonzero;stroke:none"
         id="path397" /><path
         d="m 4317.2,1669.05 -49.91,28.82 c -4.01,2.32 -3.5,6.36 1.13,9.02 l 16.34,9.45 c 4.63,2.66 11.62,2.96 15.64,0.64 l 49.91,-28.81 c 4,-2.31 3.5,-6.35 -1.12,-9.03 l -16.35,-9.43 c -4.63,-2.68 -11.63,-2.97 -15.64,-0.66"
         style="fill:#263c7a;fill-opacity:1;fill-rule:nonzero;stroke:none"
         id="path399" /><path
         d="m 4743.59,1422.88 -49.91,28.82 c -4.01,2.31 -3.51,6.36 1.12,9.02 l 16.35,9.45 c 4.63,2.66 11.62,2.95 15.63,0.64 l 49.92,-28.82 c 4,-2.31 3.5,-6.36 -1.13,-9.02 l -16.34,-9.44 c -4.63,-2.67 -11.63,-2.96 -15.64,-0.65"
         style="fill:#263c7a;fill-opacity:1;fill-rule:nonzero;stroke:none"
         id="path401" /><path
         d="m 4819.96,1378.79 -49.9,28.81 c -4.02,2.31 -3.51,6.36 1.11,9.03 l 16.36,9.43 c 4.62,2.68 11.62,2.97 15.63,0.66 l 49.9,-28.82 c 4.02,-2.31 3.51,-6.36 -1.12,-9.02 l -16.35,-9.45 c -4.62,-2.67 -11.62,-2.96 -15.63,-0.64"
         style="fill:#263c7a;fill-opacity:1;fill-rule:nonzero;stroke:none"
         id="path403" /><path
         d="m 4896.34,1334.69 -49.92,28.82 c -4,2.31 -3.5,6.35 1.13,9.02 l 16.34,9.44 c 4.63,2.68 11.63,2.96 15.64,0.65 l 49.91,-28.81 c 4.01,-2.32 3.51,-6.36 -1.12,-9.03 l -16.35,-9.44 c -4.63,-2.67 -11.62,-2.97 -15.63,-0.65"
         style="fill:#263c7a;fill-opacity:1;fill-rule:nonzero;stroke:none"
         id="path405" /><path
         d="m 4972.71,1290.6 -49.91,28.81 c -4,2.32 -3.51,6.36 1.12,9.03 l 16.35,9.44 c 4.63,2.67 11.63,2.96 15.64,0.65 l 49.91,-28.82 c 4,-2.32 3.5,-6.35 -1.13,-9.03 l -16.34,-9.44 c -4.63,-2.67 -11.63,-2.96 -15.64,-0.64"
         style="fill:#263c7a;fill-opacity:1;fill-rule:nonzero;stroke:none"
         id="path407" /><path
         d="m 4216.29,1636.25 -49.92,28.82 c -4,2.31 -3.5,6.36 1.13,9.02 l 49.45,28.56 c 4.63,2.67 11.63,2.96 15.64,0.65 l 49.91,-28.82 c 4,-2.31 3.5,-6.36 -1.13,-9.03 l -49.45,-28.55 c -4.63,-2.67 -11.63,-2.96 -15.63,-0.65"
         style="fill:#263c7a;fill-opacity:1;fill-rule:nonzero;stroke:none"
         id="path409" /><path
         d="m 4293.37,1591.75 -49.92,28.82 c -4.01,2.31 -3.5,6.35 1.13,9.03 l 49.45,28.54 c 4.63,2.68 11.62,2.97 15.64,0.66 l 49.91,-28.82 c 4,-2.31 3.5,-6.36 -1.13,-9.02 L 4309,1592.4 c -4.63,-2.67 -11.63,-2.96 -15.63,-0.65"
         style="fill:#263c7a;fill-opacity:1;fill-rule:nonzero;stroke:none"
         id="path411" /><path
         d="m 4370.44,1547.26 -49.91,28.8 c -4.01,2.32 -3.5,6.36 1.13,9.04 l 49.45,28.54 c 4.62,2.68 11.62,2.97 15.64,0.66 l 49.9,-28.82 c 4.01,-2.32 3.5,-6.36 -1.13,-9.02 l -49.45,-28.56 c -4.62,-2.68 -11.62,-2.96 -15.63,-0.64"
         style="fill:#263c7a;fill-opacity:1;fill-rule:nonzero;stroke:none"
         id="path413" /><path
         d="m 4447.52,1502.75 -49.92,28.81 c -4,2.32 -3.5,6.36 1.13,9.04 l 49.45,28.55 c 4.63,2.67 11.63,2.96 15.64,0.64 l 49.91,-28.81 c 4.01,-2.32 3.5,-6.36 -1.13,-9.03 l -49.45,-28.55 c -4.63,-2.68 -11.62,-2.96 -15.63,-0.65"
         style="fill:#263c7a;fill-opacity:1;fill-rule:nonzero;stroke:none"
         id="path415" /><path
         d="m 4524.6,1458.25 -49.91,28.82 c -4.01,2.31 -3.51,6.35 1.12,9.02 l 49.45,28.56 c 4.63,2.66 11.63,2.96 15.64,0.64 l 49.91,-28.82 c 4,-2.31 3.5,-6.35 -1.12,-9.02 l -49.46,-28.55 c -4.63,-2.67 -11.63,-2.96 -15.63,-0.65"
         style="fill:#263c7a;fill-opacity:1;fill-rule:nonzero;stroke:none"
         id="path417" /><path
         d="m 4601.68,1413.75 -49.91,28.82 c -4.02,2.31 -3.51,6.35 1.12,9.02 l 49.45,28.56 c 4.63,2.66 11.62,2.96 15.64,0.64 l 49.91,-28.82 c 4,-2.31 3.5,-6.35 -1.12,-9.02 l -49.46,-28.56 c -4.63,-2.66 -11.63,-2.95 -15.63,-0.64"
         style="fill:#263c7a;fill-opacity:1;fill-rule:nonzero;stroke:none"
         id="path419" /><path
         d="m 4678.75,1369.25 -49.9,28.82 c -4.02,2.31 -3.51,6.35 1.12,9.02 l 49.45,28.55 c 4.62,2.67 11.62,2.96 15.64,0.65 l 49.9,-28.82 c 4.01,-2.3 3.5,-6.35 -1.12,-9.02 l -49.46,-28.56 c -4.62,-2.66 -11.62,-2.96 -15.63,-0.64"
         style="fill:#263c7a;fill-opacity:1;fill-rule:nonzero;stroke:none"
         id="path421" /><path
         d="m 4755.83,1324.75 -49.91,28.81 c -4.01,2.32 -3.51,6.36 1.12,9.03 l 49.45,28.55 c 4.63,2.68 11.63,2.96 15.64,0.65 l 49.91,-28.81 c 4.01,-2.32 3.5,-6.36 -1.12,-9.03 l -49.46,-28.55 c -4.63,-2.68 -11.62,-2.97 -15.63,-0.65"
         style="fill:#263c7a;fill-opacity:1;fill-rule:nonzero;stroke:none"
         id="path423" /><path
         d="m 4832.91,1280.24 -49.91,28.82 c -4.01,2.32 -3.51,6.36 1.12,9.03 l 49.45,28.55 c 4.63,2.68 11.63,2.96 15.64,0.65 l 49.91,-28.81 c 4,-2.32 3.5,-6.36 -1.12,-9.04 l -49.46,-28.54 c -4.63,-2.68 -11.63,-2.97 -15.63,-0.66"
         style="fill:#263c7a;fill-opacity:1;fill-rule:nonzero;stroke:none"
         id="path425" /><path
         d="m 3775.62,1630.76 -146.99,84.86 c -4.01,2.32 -3.51,6.36 1.12,9.03 l 49.46,28.55 c 4.63,2.68 11.62,2.96 15.63,0.65 l 146.99,-84.87 c 4.01,-2.31 3.51,-6.35 -1.12,-9.02 l -49.45,-28.55 c -4.63,-2.67 -11.63,-2.96 -15.64,-0.65"
         style="fill:#263c7a;fill-opacity:1;fill-rule:nonzero;stroke:none"
         id="path427" /><path
         d="m 4722.54,1084.05 -147,84.88 c -4,2.31 -3.5,6.34 1.13,9.02 l 49.45,28.55 c 4.63,2.67 11.63,2.96 15.64,0.65 l 146.99,-84.86 c 4,-2.32 3.5,-6.36 -1.13,-9.04 l -49.45,-28.54 c -4.63,-2.68 -11.62,-2.97 -15.63,-0.66"
         style="fill:#263c7a;fill-opacity:1;fill-rule:nonzero;stroke:none"
         id="path429" /><path
         d="m 4414.29,1163.72 -49.91,28.82 c -4,2.31 -3.5,6.36 1.13,9.02 l 58.91,34.02 c 4.62,2.67 11.62,2.96 15.64,0.65 l 49.91,-28.82 c 4,-2.31 3.49,-6.36 -1.12,-9.02 l -58.92,-34.02 c -4.63,-2.67 -11.63,-2.96 -15.64,-0.65"
         style="fill:#263c7a;fill-opacity:1;fill-rule:nonzero;stroke:none"
         id="path431" /><path
         d="m 3854.56,1486.88 -79.83,46.1 c -4,2.31 -3.5,6.35 1.13,9.02 l 58.9,34.02 c 4.63,2.66 11.63,2.95 15.64,0.64 l 79.82,-46.08 c 4.02,-2.32 3.51,-6.36 -1.12,-9.03 l -58.91,-34.01 c -4.63,-2.68 -11.63,-2.96 -15.63,-0.66"
         style="fill:#263c7a;fill-opacity:1;fill-rule:nonzero;stroke:none"
         id="path433" /><path
         d="m 4340.03,1206.6 -79.83,46.09 c -4,2.31 -3.49,6.35 1.13,9.02 l 58.91,34.01 c 4.63,2.68 11.63,2.97 15.64,0.66 l 79.82,-46.09 c 4,-2.31 3.51,-6.35 -1.12,-9.03 l -58.92,-34.01 c -4.63,-2.67 -11.62,-2.96 -15.63,-0.65"
         style="fill:#263c7a;fill-opacity:1;fill-rule:nonzero;stroke:none"
         id="path435" /><path
         d="m 3965.76,1422.69 -79.82,46.08 c -4.01,2.31 -3.5,6.36 1.12,9.02 l 58.91,34.02 c 4.63,2.67 11.63,2.97 15.64,0.65 l 79.82,-46.08 c 4.01,-2.32 3.51,-6.36 -1.12,-9.04 l -58.92,-34.01 c -4.62,-2.67 -11.62,-2.96 -15.63,-0.64"
         style="fill:#263c7a;fill-opacity:1;fill-rule:nonzero;stroke:none"
         id="path437" /><path
         d="m 3962.15,1512.15 347.04,-200.37 c 4.3,-2.48 4.3,-6.52 0,-9.01 l -60.07,-34.67 c -4.31,-2.49 -11.29,-2.49 -15.6,0 l -347.04,200.36 75.67,43.69"
         style="fill:#263c7a;fill-opacity:1;fill-rule:nonzero;stroke:none"
         id="path439" /><path
         d="m 4629.71,1083.04 55.6,-32.1 c 3.28,-1.9 2.87,-5.21 -0.92,-7.4 l -24.1,-13.91 c -3.79,-2.19 -9.53,-2.43 -12.81,-0.53 l -55.6,32.09 c -3.29,1.91 -2.88,5.22 0.92,7.4 l 24.1,13.92 c 3.79,2.19 9.53,2.42 12.81,0.53"
         style="fill:#263c7a;fill-opacity:1;fill-rule:nonzero;stroke:none"
         id="path441" /><path
         d="m 4552,1127.91 55.6,-32.1 c 3.28,-1.89 2.87,-5.2 -0.93,-7.4 l -24.09,-13.91 c -3.8,-2.2 -9.54,-2.43 -12.83,-0.54 l -55.59,32.1 c -3.28,1.9 -2.87,5.21 0.93,7.41 l 24.09,13.9 c 3.8,2.2 9.53,2.43 12.82,0.54"
         style="fill:#263c7a;fill-opacity:1;fill-rule:nonzero;stroke:none"
         id="path443" /><path
         d="m 4474.92,1172.41 55.6,-32.1 c 3.28,-1.89 2.87,-5.2 -0.92,-7.4 l -24.1,-13.92 c -3.79,-2.18 -9.54,-2.42 -12.82,-0.52 l -55.59,32.1 c -3.29,1.89 -2.87,5.2 0.92,7.4 l 24.1,13.9 c 3.79,2.2 9.53,2.44 12.81,0.54"
         style="fill:#263c7a;fill-opacity:1;fill-rule:nonzero;stroke:none"
         id="path445" /><path
         d="m 4594.56,1152.48 55.59,-32.1 c 3.29,-1.89 2.87,-5.2 -0.91,-7.39 l -24.11,-13.92 c -3.78,-2.19 -9.53,-2.43 -12.81,-0.53 l -55.59,32.09 c -3.29,1.91 -2.88,5.22 0.91,7.41 l 24.11,13.91 c 3.78,2.19 9.53,2.42 12.81,0.53"
         style="fill:#263c7a;fill-opacity:1;fill-rule:nonzero;stroke:none"
         id="path447" /><path
         d="m 4677.3,2248.26 -47.73,27.56 c -4.43,2.56 -8.1,9.45 -8.2,15.4 -0.09,5.95 3.42,8.69 7.85,6.14 l 47.74,-27.57 c 4.42,-2.55 8.1,-9.44 8.19,-15.39 0.09,-5.94 -3.41,-8.7 -7.85,-6.14"
         style="fill:#d9effb;fill-opacity:1;fill-rule:nonzero;stroke:none"
         id="path449" /><path
         d="m 4791.01,2182.61 -70.39,40.64 c -4.42,2.56 -8.09,9.46 -8.19,15.4 -0.1,5.95 3.42,8.69 7.85,6.14 l 70.38,-40.64 c 4.44,-2.56 8.1,-9.45 8.19,-15.4 0.1,-5.95 -3.4,-8.7 -7.84,-6.14"
         style="fill:#d9effb;fill-opacity:1;fill-rule:nonzero;stroke:none"
         id="path451" /><path
         d="m 4653.65,1993.7 -47.73,27.56 c -4.43,2.56 -8.1,9.45 -8.2,15.4 -0.1,5.95 3.42,8.69 7.84,6.14 l 47.75,-27.57 c 4.42,-2.54 8.09,-9.44 8.19,-15.39 0.09,-5.94 -3.42,-8.7 -7.85,-6.14"
         style="fill:#d9effb;fill-opacity:1;fill-rule:nonzero;stroke:none"
         id="path453" /><path
         d="m 4755.02,1935.18 -70.39,40.64 c -4.44,2.56 -8.1,9.45 -8.2,15.4 -0.09,5.95 3.42,8.69 7.84,6.13 l 70.4,-40.63 c 4.43,-2.56 8.09,-9.45 8.19,-15.4 0.1,-5.95 -3.42,-8.7 -7.84,-6.14"
         style="fill:#d9effb;fill-opacity:1;fill-rule:nonzero;stroke:none"
         id="path455" /><path
         d="m 4546.41,2279.13 -29.82,17.22 c -4.42,2.56 -8.1,9.45 -8.19,15.4 -0.1,5.95 3.41,8.69 7.84,6.13 l 29.82,-17.22 c 4.44,-2.54 8.1,-9.44 8.2,-15.39 0.09,-5.94 -3.42,-8.7 -7.85,-6.14"
         style="fill:#d9effb;fill-opacity:1;fill-rule:nonzero;stroke:none"
         id="path457" /><path
         d="m 4648.25,2175.63 -91.11,52.61 c -4.44,2.56 -8.11,9.45 -8.2,15.39 -0.09,5.95 3.41,8.7 7.84,6.15 l 91.12,-52.61 c 4.42,-2.56 8.09,-9.46 8.19,-15.4 0.1,-5.95 -3.42,-8.69 -7.84,-6.14"
         style="fill:#d9effb;fill-opacity:1;fill-rule:nonzero;stroke:none"
         id="path459" /><path
         d="m 4588.42,2120.77 -29.83,17.22 c -4.42,2.56 -8.09,9.45 -8.19,15.4 -0.1,5.95 3.42,8.69 7.85,6.13 l 29.81,-17.22 c 4.44,-2.54 8.1,-9.44 8.2,-15.39 0.09,-5.94 -3.42,-8.7 -7.84,-6.14"
         style="fill:#d9effb;fill-opacity:1;fill-rule:nonzero;stroke:none"
         id="path461" /><path
         d="m 4790.21,1825.45 -79.65,45.99 c -4.43,2.55 -8.09,9.45 -8.19,15.4 -0.1,5.94 3.42,8.7 7.84,6.14 l 79.65,-45.99 c 4.43,-2.56 8.1,-9.45 8.19,-15.4 0.1,-5.95 -3.41,-8.7 -7.84,-6.14"
         style="fill:#d9effb;fill-opacity:1;fill-rule:nonzero;stroke:none"
         id="path463" /><path
         d="m 4579.2,2036.69 -19.14,11.04 c -4.43,2.56 -8.1,9.46 -8.2,15.4 -0.09,5.95 3.42,8.71 7.84,6.15 l 19.15,-11.06 c 4.43,-2.56 8.1,-9.45 8.19,-15.4 0.1,-5.95 -3.41,-8.69 -7.84,-6.13"
         style="fill:#d9effb;fill-opacity:1;fill-rule:nonzero;stroke:none"
         id="path465" /><path
         d="m 4585.29,1943.77 -23.77,13.72 c -4.43,2.56 -8.09,9.45 -8.19,15.4 -0.1,5.95 3.42,8.69 7.84,6.13 l 23.77,-13.72 c 4.43,-2.56 8.09,-9.45 8.19,-15.4 0.1,-5.94 -3.41,-8.69 -7.84,-6.13"
         style="fill:#d9effb;fill-opacity:1;fill-rule:nonzero;stroke:none"
         id="path467" /><path
         d="m 4677.77,1890.37 -62.67,36.18 c -4.43,2.56 -8.1,9.46 -8.2,15.4 -0.1,5.95 3.42,8.7 7.84,6.15 l 62.68,-36.19 c 4.42,-2.55 8.1,-9.45 8.19,-15.4 0.1,-5.94 -3.42,-8.7 -7.84,-6.14"
         style="fill:#d9effb;fill-opacity:1;fill-rule:nonzero;stroke:none"
         id="path469" /><path
         d="m 4607.31,1886.35 -45.06,26.01 c -4.43,2.56 -8.09,9.46 -8.19,15.4 -0.1,5.95 3.42,8.7 7.84,6.14 l 45.06,-26.02 c 4.43,-2.55 8.1,-9.44 8.19,-15.39 0.1,-5.95 -3.4,-8.7 -7.84,-6.14"
         style="fill:#d9effb;fill-opacity:1;fill-rule:nonzero;stroke:none"
         id="path471" /><path
         d="m 4858.59,1785.78 -28.93,16.71 c -4.43,2.55 -8.1,9.44 -8.2,15.39 -0.1,5.95 3.42,8.7 7.84,6.14 l 28.95,-16.71 c 4.42,-2.55 8.1,-9.45 8.19,-15.4 0.1,-5.94 -3.42,-8.69 -7.85,-6.13"
         style="fill:#d9effb;fill-opacity:1;fill-rule:nonzero;stroke:none"
         id="path473" /><path
         d="m 4699.34,2056.73 -79.65,45.98 c -4.43,2.56 -8.09,9.46 -8.19,15.41 -0.1,5.94 3.42,8.69 7.84,6.13 l 79.65,-45.99 c 4.44,-2.56 8.1,-9.45 8.2,-15.4 0.09,-5.95 -3.42,-8.69 -7.85,-6.13"
         style="fill:#d9effb;fill-opacity:1;fill-rule:nonzero;stroke:none"
         id="path475" /><path
         d="m 4696.68,2102.97 -138.82,80.15 c -4.42,2.55 -8.1,9.45 -8.19,15.4 -0.09,5.94 3.41,8.69 7.85,6.13 l 138.82,-80.15 c 4.42,-2.56 8.09,-9.45 8.19,-15.4 0.1,-5.95 -3.42,-8.69 -7.85,-6.13"
         style="fill:#d9effb;fill-opacity:1;fill-rule:nonzero;stroke:none"
         id="path477" /><path
         d="m 4638.97,2046.87 -79.65,45.99 c -4.42,2.56 -8.09,9.45 -8.19,15.4 -0.1,5.95 3.42,8.7 7.84,6.14 l 79.65,-45.98 c 4.43,-2.56 8.11,-9.46 8.2,-15.4 0.09,-5.95 -3.41,-8.7 -7.85,-6.15"
         style="fill:#d9effb;fill-opacity:1;fill-rule:nonzero;stroke:none"
         id="path479" /><path
         d="m 4759.75,2021.85 -28.93,16.7 c -4.44,2.56 -8.11,9.46 -8.2,15.41 -0.09,5.94 3.41,8.69 7.85,6.14 l 28.93,-16.71 c 4.44,-2.56 8.1,-9.45 8.2,-15.4 0.09,-5.95 -3.42,-8.7 -7.85,-6.14"
         style="fill:#d9effb;fill-opacity:1;fill-rule:nonzero;stroke:none"
         id="path481" /><path
         d="m 5005.7,2058.65 -171.37,98.95 c -4.42,2.56 -8.09,9.45 -8.19,15.4 -0.1,5.95 3.42,8.69 7.84,6.13 l 171.38,-98.93 c 4.42,-2.56 8.09,-9.46 8.19,-15.41 0.1,-5.94 -3.42,-8.69 -7.85,-6.14"
         style="fill:#d9effb;fill-opacity:1;fill-rule:nonzero;stroke:none"
         id="path483" /><path
         d="m 4656.53,1947.33 -95.74,55.29 c -4.44,2.56 -8.1,9.45 -8.19,15.4 -0.1,5.94 3.41,8.69 7.84,6.13 l 95.74,-55.27 c 4.43,-2.56 8.1,-9.46 8.19,-15.4 0.1,-5.95 -3.41,-8.7 -7.84,-6.15"
         style="fill:#d9effb;fill-opacity:1;fill-rule:nonzero;stroke:none"
         id="path485" /><path
         d="m 4586.25,2300.83 -70.39,40.64 c -4.43,2.56 -8.1,9.46 -8.2,15.4 -0.09,5.95 3.42,8.7 7.86,6.14 l 70.38,-40.64 c 4.43,-2.56 8.09,-9.45 8.19,-15.4 0.1,-5.94 -3.41,-8.69 -7.84,-6.14"
         style="fill:#d9effb;fill-opacity:1;fill-rule:nonzero;stroke:none"
         id="path487" /><path
         d="m 4604.69,1843.15 -81.52,47.07 c -4.42,2.56 -8.09,9.46 -8.19,15.4 -0.1,5.95 3.42,8.7 7.84,6.14 l 81.52,-47.06 c 4.44,-2.56 8.1,-9.46 8.2,-15.4 0.09,-5.95 -3.41,-8.7 -7.85,-6.15"
         style="fill:#d9effb;fill-opacity:1;fill-rule:nonzero;stroke:none"
         id="path489" /><path
         d="m 2520.29,1772.28 419.9,244.49 c 83.19,48.02 161.63,55.62 220.9,21.43 59.25,-34.22 91.89,-105.95 91.89,-202.01 v -30.76 c -2.97,-2.01 -6.08,-3.97 -9.26,-5.91 v 36.67 c 0,92.61 -30.99,161.5 -87.26,193.99 -56.28,32.48 -131.44,24.87 -211.64,-21.43 l -419.9,-244.48 c -2.19,-1.31 -5.04,-0.54 -6.32,1.69 -1.28,2.2 -0.52,5.05 1.69,6.32"
         style="fill:#d9effb;fill-opacity:1;fill-rule:nonzero;stroke:none"
         id="path491" /><path
         d="m 3829.77,2063.53 v 946.27 c 0,189.4 133.46,420.56 297.5,515.26 80.33,46.38 156.12,53.73 213.36,20.68 57.25,-33.04 88.77,-102.33 88.77,-195.1 v -65.98 c -3.08,-3.09 -6.17,-6.18 -9.26,-9.26 v 75.24 c 0,89.32 -29.88,155.77 -84.14,187.09 -54.26,31.3 -126.74,23.97 -204.1,-20.68 -161.48,-93.24 -292.87,-320.79 -292.87,-507.25 v -946.27 c 0,-157 -92.37,-342.82 -217.65,-454.63 0,4.14 0,8.28 0,12.42 120.33,110.57 208.39,290.13 208.39,442.21"
         style="fill:#d9effb;fill-opacity:1;fill-rule:nonzero;stroke:none"
         id="path493" /><path
         d="m 4429.4,3255.7 v 0 c 15.21,14.44 86.11,76.99 189.56,92.8 117.17,17.92 165.59,-119.11 165.59,-119.11 0,0 13.56,-71.17 13.07,-113.3 -0.48,-42.11 -3.5,-195.09 -3.5,-195.09 l -371.43,213.96 v 0.06 c -1.49,0.76 -2.55,2.28 -2.55,4.07 v 108.61 c 3.09,3.08 6.18,4.91 9.26,8"
         style="fill:#263c7a;fill-opacity:1;fill-rule:nonzero;stroke:none"
         id="path495" /><path
         d="m 4692.69,3342.78 -352.06,202.96 1.38,-5.05 c -54.26,35.05 -136.26,38.83 -245.96,-41.61 -217.88,-159.78 -244.05,-382.22 -255.16,-423.89 -11.11,-41.69 -6.54,-305.77 -6.54,-305.77 0,0 -0.72,-636.93 -1.45,-711.01 -0.72,-74.07 -22.29,-157.19 -63.91,-246.93 -41.62,-89.74 -148.52,-198.64 -148.52,-198.64 V 1483.2 c 17.07,-140.16 76.62,-172.85 165.22,-180.84 71.51,-6.44 147.71,45.19 208.58,101.46 -2.24,-2.35 -3.69,-3.83 -3.69,-3.83 v -129.64 c 17.07,-140.16 76.62,-172.84 165.23,-180.84 88.6,-7.99 184.42,73.18 249.35,141.87 64.93,68.69 119.68,173.6 150.09,268.23 30.42,94.64 20.34,216.91 20.34,216.91 0,0 0.73,696.25 1.46,833.51 0.72,137.26 5.08,113.3 50.11,251.29 45.03,138 164.38,234.59 164.38,234.59 l 286.41,85.29 -385.26,221.58"
         style="fill:#d9effb;fill-opacity:1;fill-rule:nonzero;stroke:none"
         id="path497" /><path
         d="m 4079.81,1101.17 c -4.82,6.56 -67.56,48.62 -83.53,122.71 -8.9,41.21 -7.99,103.85 -7.99,103.85 0,0 0.25,34.84 1.09,66.52 l 2.12,1.79 c 0,4.15 0,8.29 0,12.43 l -1.74,-1.53 c 0.24,7.16 0.51,13.87 0.82,19.56 1.82,32.92 -22.51,103.13 -22.51,103.13 0,0 -34.5,94.05 -137.26,97.68 -91.25,3.23 -187.29,-62.41 -207.72,-77.19 v 42.46 c -1.35,-0.92 -2.82,-1.8 -4.23,-2.7 0.12,5.7 0.26,11.51 0.41,17.22 l 2.11,1.8 c 0,4.14 0,8.28 0,12.43 l -1.73,-1.53 c 0.23,7.15 0.5,13.86 0.82,19.56 1.81,32.92 -22.51,103.12 -22.51,103.12 0,0 -34.51,94.05 -137.27,97.69 -91.24,3.22 -187.28,-62.42 -207.71,-77.2 v 42.46 c -2.97,-2 -6.08,-3.97 -9.26,-5.91 v -74.35 c 0,-90.08 30.01,-157.79 84.51,-191.41 l 0.22,-0.25 1.91,-1.1 1.49,-0.95 1.03,-0.49 376.81,-216.95 -0.47,0.5 370.59,-213.35"
         style="fill:#263c7a;fill-opacity:1;fill-rule:nonzero;stroke:none"
         id="path499" /><path
         d="m 3531.21,1825.34 c 0,0 -2.82,1.46 -7.8,3.49 -1.53,0.73 -3,1.59 -4.56,2.28 l -357.76,207.08 c 0,0 -65.73,34.55 -145.23,5.45 -79.51,-29.1 -496.1,-279.01 -496.1,-279.01 l 372.17,-214.42 0.07,0.03 1,-0.26 369.05,-212.63 c 0,0 208.8,129.36 353.24,212.82 l 9.27,5.33 c 59.05,33.96 105.96,59.32 120.67,63.22 89.05,23.6 151.03,-5.16 167.16,-14.01 l -381.18,220.63"
         style="fill:#d9effb;fill-opacity:1;fill-rule:nonzero;stroke:none"
         id="path501" /><path
         d="m 3912.39,1604.71 4.31,-2.49 c 0,0 -1.58,0.99 -4.31,2.49"
         style="fill:#d9effb;fill-opacity:1;fill-rule:nonzero;stroke:none"
         id="path503" /><path
         d="m 4799.52,3042.84 v 0 c 15.2,14.45 86.1,77 189.56,92.8 117.17,17.92 165.59,-119.1 165.59,-119.1 0,0 13.55,-71.17 13.07,-113.3 -0.49,-42.12 -3.5,-195.1 -3.5,-195.1 l -371.43,213.97 v 0.05 c -1.49,0.77 -2.55,2.28 -2.55,4.08 v 108.6 c 3.09,3.09 6.17,4.92 9.26,8"
         style="fill:#263c7a;fill-opacity:1;fill-rule:nonzero;stroke:none"
         id="path505" /><path
         d="m 4152.19,1084.33 c 40.95,0 86.29,13.68 133.2,40.76 162.85,94.02 295.34,323.5 295.34,511.54 v 946.27 c 0,186.46 131.38,414.01 292.87,507.27 77.35,44.63 149.84,51.99 204.09,20.67 54.26,-31.34 84.14,-97.77 84.14,-187.1 V 2712.2 c 0,-2.56 2.07,-4.63 4.63,-4.63 2.56,0 4.63,2.07 4.63,4.63 v 211.54 c 0,92.78 -31.52,162.06 -88.77,195.11 -57.24,33.05 -133.02,25.7 -213.35,-20.67 -164.05,-94.71 -297.51,-325.88 -297.51,-515.28 v -946.27 c 0,-185.1 -130.41,-410.98 -290.7,-503.52 -76.77,-44.32 -148.72,-51.63 -202.58,-20.52 -53.86,31.08 -83.51,97.03 -83.51,185.68 v 111.03 c 0,96.05 -32.63,167.79 -91.89,202 -59.26,34.2 -137.7,26.6 -220.89,-21.44 L 3262,1345.38 c -2.22,-1.27 -2.98,-4.11 -1.69,-6.32 1.27,-2.22 4.14,-2.95 6.32,-1.69 l 419.89,244.49 c 80.2,46.29 155.36,53.91 211.63,21.42 56.27,-32.49 87.26,-101.39 87.26,-193.98 v -111.03 c 0,-92.1 31.31,-160.89 88.14,-193.71 23.42,-13.52 49.96,-20.23 78.64,-20.23"
         style="fill:#4067b1;fill-opacity:1;fill-rule:nonzero;stroke:none"
         id="path507" /><path
         d="m 4181.18,2350.98 -62.08,35.84 c -5.75,3.32 -10.53,12.28 -10.66,20.02 -0.12,7.73 4.45,11.3 10.21,7.98 l 62.07,-35.84 c 5.76,-3.33 10.53,-12.29 10.65,-20.02 0.13,-7.74 -4.44,-11.31 -10.19,-7.98"
         style="fill:#5f92d3;fill-opacity:1;fill-rule:nonzero;stroke:none"
         id="path509" /><path
         d="m 4312.99,2274.87 -91.54,52.85 c -5.76,3.32 -10.52,12.29 -10.65,20.02 -0.13,7.74 4.44,11.31 10.2,7.98 l 91.53,-52.84 c 5.76,-3.33 10.52,-12.29 10.65,-20.02 0.13,-7.73 -4.44,-11.31 -10.19,-7.99"
         style="fill:#5f92d3;fill-opacity:1;fill-rule:nonzero;stroke:none"
         id="path511" /><path
         d="m 4174.15,2587.55 -118.49,68.41 c -5.75,3.33 -10.53,12.29 -10.65,20.02 -0.13,7.73 4.44,11.31 10.2,7.98 l 118.48,-68.4 c 5.76,-3.32 10.53,-12.29 10.65,-20.02 0.13,-7.74 -4.44,-11.31 -10.19,-7.99"
         style="fill:#5f92d3;fill-opacity:1;fill-rule:nonzero;stroke:none"
         id="path513" /><path
         d="m 4096.35,2516.21 -38.78,22.39 c -5.77,3.32 -10.53,12.29 -10.66,20.02 -0.13,7.74 4.44,11.31 10.21,7.98 l 38.77,-22.38 c 5.76,-3.33 10.53,-12.3 10.65,-20.03 0.13,-7.73 -4.43,-11.3 -10.19,-7.98"
         style="fill:#5f92d3;fill-opacity:1;fill-rule:nonzero;stroke:none"
         id="path515" /><path
         d="m 4084.36,2406.87 -24.89,14.37 c -5.76,3.33 -10.53,12.3 -10.65,20.03 -0.13,7.73 4.44,11.31 10.19,7.98 l 24.89,-14.37 c 5.77,-3.33 10.53,-12.29 10.66,-20.03 0.13,-7.73 -4.45,-11.31 -10.2,-7.98"
         style="fill:#5f92d3;fill-opacity:1;fill-rule:nonzero;stroke:none"
         id="path517" /><path
         d="m 4240.59,2432.93 -103.57,59.79 c -5.76,3.33 -10.53,12.3 -10.66,20.03 -0.12,7.74 4.45,11.31 10.2,7.98 l 103.57,-59.79 c 5.77,-3.33 10.53,-12.3 10.66,-20.03 0.13,-7.73 -4.44,-11.3 -10.2,-7.98"
         style="fill:#5f92d3;fill-opacity:1;fill-rule:nonzero;stroke:none"
         id="path519" /><path
         d="m 4237.13,2493.06 -180.51,104.22 c -5.76,3.33 -10.53,12.29 -10.66,20.02 -0.12,7.74 4.45,11.31 10.2,7.98 l 180.52,-104.22 c 5.75,-3.33 10.52,-12.29 10.65,-20.02 0.13,-7.73 -4.44,-11.3 -10.2,-7.98"
         style="fill:#5f92d3;fill-opacity:1;fill-rule:nonzero;stroke:none"
         id="path521" /><path
         d="m 4162.09,2420.13 -103.58,59.79 c -5.75,3.33 -10.52,12.3 -10.65,20.02 -0.12,7.74 4.44,11.31 10.2,7.99 l 103.58,-59.81 c 5.75,-3.32 10.53,-12.28 10.65,-20.01 0.13,-7.74 -4.44,-11.31 -10.2,-7.98"
         style="fill:#5f92d3;fill-opacity:1;fill-rule:nonzero;stroke:none"
         id="path523" /><path
         d="m 4319.15,2387.58 -37.64,21.73 c -5.75,3.32 -10.53,12.28 -10.65,20.02 -0.13,7.73 4.44,11.3 10.2,7.97 l 37.63,-21.71 c 5.76,-3.33 10.53,-12.3 10.65,-20.03 0.13,-7.74 -4.44,-11.31 -10.19,-7.98"
         style="fill:#5f92d3;fill-opacity:1;fill-rule:nonzero;stroke:none"
         id="path525" /><path
         d="m 4211.93,2681.99 -62.07,35.84 c -5.76,3.33 -10.53,12.3 -10.65,20.02 -0.13,7.74 4.44,11.31 10.19,7.99 l 62.08,-35.84 c 5.75,-3.33 10.53,-12.29 10.66,-20.02 0.12,-7.73 -4.45,-11.31 -10.21,-7.99"
         style="fill:#5f92d3;fill-opacity:1;fill-rule:nonzero;stroke:none"
         id="path527" /><path
         d="m 4359.79,2596.62 -91.52,52.85 c -5.76,3.32 -10.54,12.29 -10.67,20.02 -0.11,7.74 4.45,11.31 10.21,7.98 l 91.53,-52.84 c 5.76,-3.32 10.53,-12.29 10.66,-20.02 0.12,-7.74 -4.45,-11.31 -10.21,-7.99"
         style="fill:#5f92d3;fill-opacity:1;fill-rule:nonzero;stroke:none"
         id="path529" /><path
         d="m 4181.18,2350.98 -62.08,35.84 c -5.75,3.32 -10.53,12.28 -10.66,20.02 -0.12,7.73 4.45,11.3 10.21,7.98 l 62.07,-35.84 c 5.76,-3.33 10.53,-12.29 10.65,-20.02 0.13,-7.74 -4.44,-11.31 -10.19,-7.98"
         style="fill:#5f92d3;fill-opacity:1;fill-rule:nonzero;stroke:none"
         id="path531" /><path
         d="m 4312.99,2274.87 -91.54,52.85 c -5.76,3.32 -10.52,12.29 -10.65,20.02 -0.13,7.74 4.44,11.31 10.2,7.98 l 91.53,-52.84 c 5.76,-3.33 10.52,-12.29 10.65,-20.02 0.13,-7.73 -4.44,-11.31 -10.19,-7.99"
         style="fill:#5f92d3;fill-opacity:1;fill-rule:nonzero;stroke:none"
         id="path533" /><path
         d="m 4041.73,2722.14 -38.78,22.38 c -5.76,3.33 -10.53,12.3 -10.66,20.03 -0.12,7.74 4.45,11.31 10.21,7.98 l 38.77,-22.39 c 5.76,-3.32 10.53,-12.29 10.65,-20.02 0.13,-7.74 -4.43,-11.31 -10.19,-7.98"
         style="fill:#5f92d3;fill-opacity:1;fill-rule:nonzero;stroke:none"
         id="path535" /><path
         d="m 4174.15,2587.55 -118.49,68.41 c -5.75,3.33 -10.53,12.29 -10.65,20.02 -0.13,7.73 4.44,11.31 10.2,7.98 l 118.48,-68.4 c 5.76,-3.32 10.53,-12.29 10.65,-20.02 0.13,-7.74 -4.44,-11.31 -10.19,-7.99"
         style="fill:#5f92d3;fill-opacity:1;fill-rule:nonzero;stroke:none"
         id="path537" /><path
         d="m 4096.35,2516.21 -38.78,22.39 c -5.77,3.32 -10.53,12.29 -10.66,20.02 -0.13,7.74 4.44,11.31 10.21,7.98 l 38.77,-22.38 c 5.76,-3.33 10.53,-12.3 10.65,-20.03 0.13,-7.73 -4.43,-11.3 -10.19,-7.98"
         style="fill:#5f92d3;fill-opacity:1;fill-rule:nonzero;stroke:none"
         id="path539" /><path
         d="m 4358.75,2132.19 -103.57,59.8 c -5.76,3.32 -10.53,12.29 -10.66,20.02 -0.12,7.74 4.44,11.31 10.2,7.99 l 103.58,-59.8 c 5.75,-3.33 10.53,-12.29 10.65,-20.02 0.13,-7.74 -4.44,-11.31 -10.2,-7.99"
         style="fill:#5f92d3;fill-opacity:1;fill-rule:nonzero;stroke:none"
         id="path541" /><path
         d="m 4084.36,2406.87 -24.89,14.37 c -5.76,3.33 -10.53,12.3 -10.65,20.03 -0.13,7.73 4.44,11.31 10.19,7.98 l 24.89,-14.37 c 5.77,-3.33 10.53,-12.29 10.66,-20.03 0.13,-7.73 -4.45,-11.31 -10.2,-7.98"
         style="fill:#5f92d3;fill-opacity:1;fill-rule:nonzero;stroke:none"
         id="path543" /><path
         d="m 4092.28,2286.04 -30.91,17.85 c -5.76,3.33 -10.53,12.28 -10.65,20.02 -0.13,7.73 4.43,11.3 10.2,7.98 l 30.9,-17.85 c 5.77,-3.32 10.54,-12.28 10.66,-20.02 0.12,-7.73 -4.44,-11.31 -10.2,-7.98"
         style="fill:#5f92d3;fill-opacity:1;fill-rule:nonzero;stroke:none"
         id="path545" /><path
         d="m 4212.54,2216.61 -81.5,47.05 c -5.76,3.33 -10.53,12.3 -10.65,20.03 -0.13,7.73 4.43,11.3 10.19,7.98 l 81.5,-47.05 c 5.76,-3.33 10.52,-12.3 10.65,-20.03 0.13,-7.73 -4.44,-11.31 -10.19,-7.98"
         style="fill:#5f92d3;fill-opacity:1;fill-rule:nonzero;stroke:none"
         id="path547" /><path
         d="m 4120.92,2211.38 -58.6,33.83 c -5.76,3.33 -10.53,12.29 -10.65,20.02 -0.13,7.74 4.44,11.31 10.2,7.98 l 58.6,-33.83 c 5.75,-3.33 10.52,-12.29 10.65,-20.02 0.13,-7.73 -4.44,-11.3 -10.2,-7.98"
         style="fill:#5f92d3;fill-opacity:1;fill-rule:nonzero;stroke:none"
         id="path549" /><path
         d="m 4240.59,2432.93 -103.57,59.79 c -5.76,3.33 -10.53,12.3 -10.66,20.03 -0.12,7.74 4.45,11.31 10.2,7.98 l 103.57,-59.79 c 5.77,-3.33 10.53,-12.3 10.66,-20.03 0.13,-7.73 -4.44,-11.3 -10.2,-7.98"
         style="fill:#5f92d3;fill-opacity:1;fill-rule:nonzero;stroke:none"
         id="path551" /><path
         d="m 4237.13,2493.06 -180.51,104.22 c -5.76,3.33 -10.53,12.29 -10.66,20.02 -0.12,7.74 4.45,11.31 10.2,7.98 l 180.52,-104.22 c 5.75,-3.33 10.52,-12.29 10.65,-20.02 0.13,-7.73 -4.44,-11.3 -10.2,-7.98"
         style="fill:#5f92d3;fill-opacity:1;fill-rule:nonzero;stroke:none"
         id="path553" /><path
         d="m 4162.09,2420.13 -103.58,59.79 c -5.75,3.33 -10.52,12.3 -10.65,20.02 -0.12,7.74 4.44,11.31 10.2,7.99 l 103.58,-59.81 c 5.75,-3.32 10.53,-12.28 10.65,-20.01 0.13,-7.74 -4.44,-11.31 -10.2,-7.98"
         style="fill:#5f92d3;fill-opacity:1;fill-rule:nonzero;stroke:none"
         id="path555" /><path
         d="m 4319.15,2387.58 -37.64,21.73 c -5.75,3.32 -10.53,12.28 -10.65,20.02 -0.13,7.73 4.44,11.3 10.2,7.97 l 37.63,-21.71 c 5.76,-3.33 10.53,-12.3 10.65,-20.03 0.13,-7.74 -4.44,-11.31 -10.19,-7.98"
         style="fill:#5f92d3;fill-opacity:1;fill-rule:nonzero;stroke:none"
         id="path557" /><path
         d="m 4184.92,2290.68 -124.5,71.89 c -5.75,3.32 -10.53,12.28 -10.66,20.02 -0.12,7.73 4.45,11.31 10.21,7.98 l 124.5,-71.88 c 5.75,-3.33 10.53,-12.29 10.65,-20.03 0.12,-7.73 -4.44,-11.3 -10.2,-7.98"
         style="fill:#5f92d3;fill-opacity:1;fill-rule:nonzero;stroke:none"
         id="path559" /><path
         d="M 4093.52,2750.36 4002,2803.2 c -5.76,3.32 -10.54,12.29 -10.65,20.02 -0.13,7.74 4.43,11.31 10.19,7.99 l 91.53,-52.85 c 5.77,-3.32 10.53,-12.29 10.66,-20.02 0.12,-7.73 -4.45,-11.31 -10.21,-7.98"
         style="fill:#5f92d3;fill-opacity:1;fill-rule:nonzero;stroke:none"
         id="path561" /><path
         d="m 4117.52,2155.21 -106.02,61.21 c -5.75,3.33 -10.53,12.29 -10.65,20.03 -0.12,7.73 4.44,11.29 10.2,7.97 l 106.01,-61.2 c 5.76,-3.33 10.53,-12.29 10.65,-20.03 0.13,-7.73 -4.44,-11.31 -10.19,-7.98"
         style="fill:#5f92d3;fill-opacity:1;fill-rule:nonzero;stroke:none"
         id="path563" /><path
         d="m 4166.59,1794.13 -62.08,35.84 c -5.76,3.32 -10.53,12.29 -10.66,20.02 -0.12,7.73 4.45,11.31 10.21,7.99 l 62.07,-35.84 c 5.76,-3.33 10.53,-12.3 10.65,-20.03 0.13,-7.74 -4.44,-11.31 -10.19,-7.98"
         style="fill:#5f92d3;fill-opacity:1;fill-rule:nonzero;stroke:none"
         id="path565" /><path
         d="m 4298.4,1718.03 -91.54,52.85 c -5.76,3.32 -10.52,12.28 -10.65,20.02 -0.13,7.73 4.44,11.31 10.19,7.99 l 91.54,-52.85 c 5.76,-3.33 10.52,-12.29 10.65,-20.02 0.13,-7.74 -4.44,-11.31 -10.19,-7.99"
         style="fill:#5f92d3;fill-opacity:1;fill-rule:nonzero;stroke:none"
         id="path567" /><path
         d="m 4159.55,2030.7 -118.48,68.41 c -5.76,3.33 -10.53,12.3 -10.65,20.03 -0.13,7.73 4.44,11.3 10.2,7.98 l 118.48,-68.41 c 5.76,-3.32 10.53,-12.28 10.65,-20.02 0.13,-7.73 -4.44,-11.31 -10.2,-7.99"
         style="fill:#5f92d3;fill-opacity:1;fill-rule:nonzero;stroke:none"
         id="path569" /><path
         d="m 4081.76,1959.37 -38.78,22.39 c -5.77,3.32 -10.53,12.28 -10.66,20.02 -0.13,7.73 4.45,11.31 10.2,7.99 l 38.78,-22.4 c 5.76,-3.32 10.52,-12.28 10.65,-20.02 0.13,-7.73 -4.44,-11.31 -10.19,-7.98"
         style="fill:#5f92d3;fill-opacity:1;fill-rule:nonzero;stroke:none"
         id="path571" /><path
         d="m 4069.76,1850.03 -24.88,14.37 c -5.76,3.32 -10.54,12.29 -10.65,20.02 -0.13,7.74 4.43,11.31 10.19,7.98 l 24.89,-14.36 c 5.77,-3.33 10.53,-12.3 10.66,-20.03 0.13,-7.74 -4.45,-11.31 -10.21,-7.98"
         style="fill:#5f92d3;fill-opacity:1;fill-rule:nonzero;stroke:none"
         id="path573" /><path
         d="m 4225.99,1876.08 -103.56,59.81 c -5.76,3.32 -10.54,12.28 -10.66,20.02 -0.12,7.73 4.44,11.31 10.2,7.98 l 103.57,-59.8 c 5.77,-3.32 10.53,-12.28 10.66,-20.02 0.13,-7.73 -4.44,-11.31 -10.21,-7.99"
         style="fill:#5f92d3;fill-opacity:1;fill-rule:nonzero;stroke:none"
         id="path575" /><path
         d="m 4222.54,1936.21 -180.51,104.23 c -5.76,3.32 -10.54,12.28 -10.67,20.02 -0.11,7.73 4.45,11.31 10.21,7.98 l 180.52,-104.22 c 5.75,-3.32 10.52,-12.29 10.65,-20.02 0.12,-7.74 -4.44,-11.31 -10.2,-7.99"
         style="fill:#5f92d3;fill-opacity:1;fill-rule:nonzero;stroke:none"
         id="path577" /><path
         d="m 4147.5,1863.28 -103.58,59.8 c -5.75,3.33 -10.52,12.29 -10.65,20.03 -0.13,7.73 4.44,11.29 10.2,7.97 l 103.58,-59.79 c 5.75,-3.33 10.53,-12.3 10.65,-20.03 0.12,-7.73 -4.44,-11.31 -10.2,-7.98"
         style="fill:#5f92d3;fill-opacity:1;fill-rule:nonzero;stroke:none"
         id="path579" /><path
         d="m 4304.55,1830.73 -37.63,21.73 c -5.76,3.32 -10.53,12.29 -10.65,20.02 -0.13,7.73 4.44,11.31 10.2,7.99 l 37.63,-21.73 c 5.76,-3.33 10.53,-12.29 10.65,-20.03 0.13,-7.73 -4.44,-11.31 -10.2,-7.98"
         style="fill:#5f92d3;fill-opacity:1;fill-rule:nonzero;stroke:none"
         id="path581" /><path
         d="M 4620.37,498 4735.34,564.371 4850.31,498 4735.34,431.621 4620.37,498"
         style="fill:#d9effb;fill-opacity:1;fill-rule:nonzero;stroke:none"
         id="path583" /><path
         d="m 4864.41,640.781 114.96,66.379 114.97,-66.379 -114.97,-66.383 -114.96,66.383"
         style="fill:#d9effb;fill-opacity:1;fill-rule:nonzero;stroke:none"
         id="path585" /><path
         d="m 5107.7,780.16 114.97,66.371 114.97,-66.371 -114.97,-66.379 -114.97,66.379"
         style="fill:#d9effb;fill-opacity:1;fill-rule:nonzero;stroke:none"
         id="path587" /><path
         d="m 4979.37,640.781 v 354.008 l -114.96,66.371 v -354 l 114.96,-66.379"
         style="fill:#c23222;fill-opacity:1;fill-rule:nonzero;stroke:none"
         id="path589" /><path
         d="m 4979.37,994.789 114.97,66.371 v -354 l -114.97,-66.379 v 354.008"
         style="fill:#d1078d;fill-opacity:1;fill-rule:nonzero;stroke:none"
         id="path591" /><path
         d="m 4979.37,640.781 v 354.008 l -114.96,66.371 v -354 l 114.96,-66.379"
         style="fill:#d1078d;fill-opacity:1;fill-rule:nonzero;stroke:none"
         id="path593" /><path
         d="m 4735.34,498 v 199.129 l -114.97,66.383 V 564.371 L 4735.34,498"
         style="fill:#d1078d;fill-opacity:1;fill-rule:nonzero;stroke:none"
         id="path595" /><path
         d="m 4735.34,697.129 114.97,66.383 V 564.371 L 4735.34,498 v 199.129"
         style="fill:#d1078d;fill-opacity:1;fill-rule:nonzero;stroke:none"
         id="path597" /><path
         d="m 4620.37,763.512 114.97,66.367 114.97,-66.367 -114.97,-66.383 -114.97,66.383"
         style="fill:#ee1696;fill-opacity:1;fill-rule:nonzero;stroke:none"
         id="path599" /><path
         d="m 5222.67,780.16 v 486.75 l -114.97,66.38 V 846.531 l 114.97,-66.371"
         style="fill:#d1078d;fill-opacity:1;fill-rule:nonzero;stroke:none"
         id="path601" /><path
         d="m 5222.67,1266.91 114.97,66.38 V 846.531 L 5222.67,780.16 v 486.75"
         style="fill:#d1078d;fill-opacity:1;fill-rule:nonzero;stroke:none"
         id="path603" /><path
         d="m 5107.7,1333.29 114.97,66.38 114.97,-66.38 -114.97,-66.38 -114.97,66.38"
         style="fill:#ee1696;fill-opacity:1;fill-rule:nonzero;stroke:none"
         id="path605" /><path
         d="m 4864.41,1061.16 114.96,66.38 114.97,-66.38 -114.97,-66.371 -114.96,66.371"
         style="fill:#ee1696;fill-opacity:1;fill-rule:nonzero;stroke:none"
         id="path607" /><path
         d="m 2984.75,1162.12 c 0,0 -35.48,17.9 -57.27,-8.75 -21.8,-26.65 -52.95,-89.56 -53.92,-132.07 -0.96,-42.511 33.64,-39.64 54.21,-29.581 20.57,10.071 80.67,97.231 84.3,114.311 3.64,17.08 -4.29,40.17 -10.07,44.69 -5.78,4.52 -17.25,11.4 -17.25,11.4"
         style="fill:#5f92d3;fill-opacity:1;fill-rule:nonzero;stroke:none"
         id="path609" /><path
         d="m 2992.5,1170.67 1.64,-36.76 c 0.35,-7.83 -3.58,-15.28 -10.38,-19.13 -6.2,-3.52 -15.21,-6.22 -27.39,-4.26 -26.72,4.29 -29.11,11.93 -31.02,48.69 -1.91,36.76 67.15,11.46 67.15,11.46"
         style="fill:#d9effb;fill-opacity:1;fill-rule:nonzero;stroke:none"
         id="path611" /><path
         d="m 2854.85,1232.81 c 0,0 -35.49,17.9 -57.28,-8.75 -21.79,-26.65 -52.95,-89.56 -53.91,-132.07 -0.97,-42.51 33.63,-39.64 54.21,-29.58 20.57,10.07 80.65,97.24 84.3,114.32 3.63,17.08 -4.3,40.16 -10.08,44.69 -5.78,4.52 -17.24,11.39 -17.24,11.39"
         style="fill:#5f92d3;fill-opacity:1;fill-rule:nonzero;stroke:none"
         id="path613" /><path
         d="m 2862.6,1241.37 1.64,-36.77 c 0.35,-7.82 -3.59,-15.26 -10.39,-19.13 -6.2,-3.52 -15.2,-6.21 -27.38,-4.26 -26.73,4.3 -29.12,11.94 -31.02,48.7 -1.92,36.76 67.15,11.46 67.15,11.46"
         style="fill:#d9effb;fill-opacity:1;fill-rule:nonzero;stroke:none"
         id="path615" /><path
         d="m 3179.26,1916.39 c -10.5,170.9 -185.08,-25.15 -185.08,-25.15 L 2874.69,1774.12 2767.1,1655.93 c -21.02,-23.09 -30.79,-54.26 -26.73,-85.21 l 43.52,-331.42 c 2.15,-16.37 16.16,-28.44 32.67,-28.31 4.66,0.04 10,0.47 16.12,1.41 38.83,6.05 35.96,42.97 35.96,42.97 l -7.96,309.98 225.97,136.21 c 0,0 103.11,43.92 92.61,214.83"
         style="fill:#263c7a;fill-opacity:1;fill-rule:nonzero;stroke:none"
         id="path617" /><path
         d="m 3309.17,1851.27 c -10.51,170.9 -185.09,-25.15 -185.09,-25.15 L 3004.6,1709 2897,1590.81 c -21.02,-23.09 -30.79,-54.25 -26.73,-85.2 l 43.53,-331.43 c 2.14,-16.37 16.15,-28.44 32.66,-28.3 4.66,0.03 10,0.46 16.13,1.41 38.82,6.05 35.95,42.96 35.95,42.96 l -7.95,309.98 225.96,136.22 c 0,0 103.12,43.91 92.62,214.82"
         style="fill:#263c7a;fill-opacity:1;fill-rule:nonzero;stroke:none"
         id="path619" /><path
         d="m 3205.88,2399.87 c 132.36,-54.87 129.7,-133.11 129.7,-133.11 0,0 -25.92,-286.83 -17.08,-478.39 3.7,-80.08 -425.46,-86.19 -361.45,127.45 75.46,251.9 47.18,455.83 82.5,486.58 35.33,30.76 132.1,11.66 166.33,-2.53"
         style="fill:#5f92d3;fill-opacity:1;fill-rule:nonzero;stroke:none"
         id="path621" /><path
         d="m 3248.46,2330.5 c -6.92,-26.88 -42.12,-41.04 -78.64,-31.63 -36.51,9.4 -60.5,38.81 -53.57,65.68 6.92,26.88 42.13,41.04 78.64,31.63 36.51,-9.4 60.5,-38.82 53.57,-65.68"
         style="fill:#fab6a9;fill-opacity:1;fill-rule:nonzero;stroke:none"
         id="path623" /><path
         d="m 3172.23,2392.77 c -24.58,0 -45.12,-11.43 -49.86,-29.8 -2.83,-11 0.47,-23.01 9.28,-33.81 9.28,-11.37 23.39,-19.95 39.75,-24.17 33.04,-8.51 64.9,3.64 70.94,27.09 2.83,11 -0.47,23 -9.28,33.81 -9.27,11.37 -23.38,19.95 -39.75,24.17 -7.16,1.84 -14.28,2.71 -21.08,2.71 z m 19.94,-103.11 c -7.77,0 -15.82,0.99 -23.93,3.08 -18.96,4.88 -35.43,14.97 -46.4,28.42 -11.42,14.01 -15.58,29.97 -11.72,44.97 7.78,30.22 46.51,46.46 86.35,36.17 18.96,-4.87 35.43,-14.97 46.4,-28.41 11.42,-14.01 15.58,-29.98 11.72,-44.97 -6.19,-24.07 -32.04,-39.26 -62.42,-39.26"
         style="fill:#ffffff;fill-opacity:1;fill-rule:nonzero;stroke:none"
         id="path625" /><path
         d="m 3152.81,2405.84 c 0,0 1.14,-5.31 -1.14,-47.26 -0.73,-13.18 45.45,-25.49 57.38,-13.56 11.93,11.93 7.16,24.35 10.02,69.22 2.87,44.87 -66.26,-8.4 -66.26,-8.4"
         style="fill:#fab6a9;fill-opacity:1;fill-rule:nonzero;stroke:none"
         id="path627" /><path
         d="m 3219.07,2414.24 c 0,0 -11.37,-41.6 -67.41,-57.57 l 0.85,37.82 66.56,19.75"
         style="fill:#eb8b8a;fill-opacity:1;fill-rule:nonzero;stroke:none"
         id="path629" /><path
         d="m 3254.58,2519.95 c 14.08,-54.47 -18.66,-110.06 -73.14,-124.14 -54.47,-14.08 -110.05,18.66 -124.14,73.14 -14.08,54.48 18.66,110.05 73.14,124.14 54.48,14.08 110.06,-18.67 124.14,-73.14"
         style="fill:#fab6a9;fill-opacity:1;fill-rule:nonzero;stroke:none"
         id="path631" /><path
         d="m 3179.34,2490.71 c 0,0 -56.09,-24.03 -94.93,-24.3 -38.85,-0.28 -30.28,32.25 -30.28,32.25 l 115.29,16.66 9.92,-24.61"
         style="fill:#eb8b8a;fill-opacity:1;fill-rule:nonzero;stroke:none"
         id="path633" /><path
         d="m 3072.83,2484.38 c 0,0 48.86,20.75 91.73,12.09 10.08,-2.03 19.41,-7.42 25.91,-15.39 2.12,-2.6 4.79,-4.99 7.84,-5.67 7.6,-1.72 20.04,29.81 34.81,30.53 14.78,0.72 24.64,-9.74 12.52,-29.13 -12.12,-19.4 -8.02,-41.11 -2.44,-44.21 5.57,-3.12 64.7,42.16 12.54,145.48 -52.15,103.31 -184.62,47.66 -205.22,26.72 0,0 -21.71,-18.91 -39.36,-2.09 0,0 -19.8,-148.21 61.67,-118.33"
         style="fill:#ee1696;fill-opacity:1;fill-rule:nonzero;stroke:none"
         id="path635" /><path
         d="m 3261.34,2057.2 v -77.5 c 0,-8.89 -3.74,-17.36 -10.31,-23.34 l -159.22,-145.16 18.1,-27.66 210.26,152.5 c 9.82,7.1 16.15,18.06 17.42,30.12 l 14.2,135.17 -90.45,-44.13"
         style="fill:#fab6a9;fill-opacity:1;fill-rule:nonzero;stroke:none"
         id="path637" /><path
         d="m 3324.38,2305.51 c 0,0 48.3,-72.64 66.3,-263.85 0,0 -82.52,-26.69 -129.34,-11.54 -46.83,15.15 63.04,275.39 63.04,275.39"
         style="fill:#5f92d3;fill-opacity:1;fill-rule:nonzero;stroke:none"
         id="path639" /><path
         d="m 3252.52,2213.66 c 0,0 -18.92,-101.2 -19.98,-148.77 -0.3,-13.07 7.68,-24.87 19.98,-29.31 v 178.08"
         style="fill:#4067b1;fill-opacity:1;fill-rule:nonzero;stroke:none"
         id="path641" /><path
         d="m 3211.21,1710.42 -35.19,4.65 -227.17,131.15 c -7.27,4.2 -20,3.67 -28.4,-1.18 l -160.97,-92.9 -21.28,2.81 v -21.18 h 0.02 c -0.14,-2.79 1.46,-5.48 4.89,-7.46 l 257.43,-148.63 c 7.29,-4.21 20.01,-3.69 28.42,1.18 l 175.3,101.17 c 4.73,2.73 7.09,6.25 6.95,9.55 v 20.84"
         style="fill:#5f92d3;fill-opacity:1;fill-rule:nonzero;stroke:none"
         id="path643" /><path
         d="m 3040.52,1793.29 -16.13,9.32 h -177.44 l -87.47,-50.47 -21.28,2.81 v -21.18 h 0.02 c -0.14,-2.79 1.46,-5.48 4.89,-7.46 l 257.43,-148.63 c 3.86,-2.22 9.22,-3.11 14.67,-2.75 l 25.31,218.36"
         style="fill:#4067b1;fill-opacity:1;fill-rule:nonzero;stroke:none"
         id="path645" /><path
         d="m 2747.64,1753.7 -9.44,1.25 v -21.18 h 0.02 c -0.14,-2.79 1.46,-5.48 4.89,-7.46 l 4.53,-2.62 v 30.01"
         style="fill:#5f92d3;fill-opacity:1;fill-rule:nonzero;stroke:none"
         id="path647" /><path
         d="m 3003.14,1576.47 c 6.91,-2.61 16.77,-2.05 24.14,1.5 v 36.04 h -24.14 v -37.54"
         style="fill:#ffffff;fill-opacity:1;fill-rule:nonzero;stroke:none"
         id="path649" /><path
         d="m 3000.54,1598.85 -257.43,148.63 c -7.28,4.2 -6.37,11.54 2.04,16.41 l 175.3,101.17 c 8.4,4.85 21.13,5.38 28.4,1.17 L 3206.3,1717.6 c 7.28,-4.2 6.36,-11.55 -2.04,-16.4 l -175.3,-101.18 c -8.41,-4.85 -21.13,-5.38 -28.42,-1.17"
         style="fill:#ffffff;fill-opacity:1;fill-rule:nonzero;stroke:none"
         id="path651" /><path
         d="m 2996.19,1621.38 -214.05,123.58 c -6.06,3.5 -5.3,9.6 1.7,13.64 l 93.93,52.83 c 6.99,4.03 17.57,4.47 23.62,0.97 l 214.06,-123.58 c 6.06,-3.5 5.3,-9.61 -1.69,-13.64 l -93.94,-52.83 c -6.99,-4.03 -17.57,-4.47 -23.63,-0.97"
         style="fill:#d9effb;fill-opacity:1;fill-rule:nonzero;stroke:none"
         id="path653" /><path
         d="m 2930.4,1869.93 -2.67,-17.76 c -2.26,-15.13 -1.87,-30.55 1.16,-45.55 l 3.18,-15.64 c 1.78,-8.83 8.77,-15.69 17.63,-17.3 6.92,-1.26 13.46,3.61 14.24,10.6 l 4.25,37.97 c 0,0 9.72,-12.73 14.41,-12.73 4.69,0 -5.25,38.03 -15.85,59.55 -10.62,21.53 -36.35,0.86 -36.35,0.86"
         style="fill:#fab6a9;fill-opacity:1;fill-rule:nonzero;stroke:none"
         id="path655" /><path
         d="m 3017.66,2152.25 -27.61,-54.67 c -6.54,-12.93 -10.38,-27.05 -11.31,-41.51 l -11.99,-187 -36.35,0.86 -16.5,210.01 c -0.5,6.49 -0.19,13.01 0.94,19.42 l 18.85,106.49 83.97,-53.6"
         style="fill:#fab6a9;fill-opacity:1;fill-rule:nonzero;stroke:none"
         id="path657" /><path
         d="m 2991.82,1584.57 -21.58,28.17 -227,131.44 c -7.28,4.21 -13.16,15.5 -13.15,25.2 l 0.19,185.85 -13.05,17.05 12.27,7.09 0.01,-0.01 c 2.35,1.51 5.47,1.47 8.9,-0.51 l 257.26,-148.95 c 7.28,-4.22 13.17,-15.5 13.16,-25.21 l -0.22,-202.4 c -0.01,-5.46 -1.88,-9.26 -4.81,-10.79 l -11.98,-6.93"
         style="fill:#263c7a;fill-opacity:1;fill-rule:nonzero;stroke:none"
         id="path659" /><path
         d="m 2834.85,1691.14 -16.13,9.34 -88.53,153.77 0.09,100.98 -13.05,17.05 12.27,7.09 0.01,-0.01 c 2.35,1.51 5.47,1.47 8.9,-0.51 l 257.26,-148.95 c 3.84,-2.22 7.29,-6.43 9.7,-11.34 l -170.52,-127.42"
         style="fill:#4067b1;fill-opacity:1;fill-rule:nonzero;stroke:none"
         id="path661" /><path
         d="m 2723.02,1964.72 -5.79,7.56 12.27,7.09 0.01,-0.01 c 2.35,1.51 5.47,1.47 8.9,-0.51 l 4.54,-2.63 -19.93,-11.5"
         style="fill:#5f92d3;fill-opacity:1;fill-rule:nonzero;stroke:none"
         id="path663" /><path
         d="m 2998.01,1828.25 c 5.71,-4.67 10.14,-13.5 10.74,-21.67 l -25.14,-14.51 -12.04,20.92 26.44,15.26"
         style="fill:#2e4b8d;fill-opacity:1;fill-rule:nonzero;stroke:none"
         id="path665" /><path
         d="m 2983.42,1822.8 -257.26,148.95 c -7.28,4.22 -13.18,-0.24 -13.2,-9.95 l -0.22,-202.4 c -0.01,-9.71 5.88,-20.99 13.16,-25.21 l 257.25,-148.95 c 7.29,-4.2 13.2,0.25 13.2,9.96 l 0.22,202.4 c 0.01,9.7 -5.88,20.99 -13.15,25.2"
         style="fill:#5f92d3;fill-opacity:1;fill-rule:nonzero;stroke:none"
         id="path667" /><path
         d="m 3109.91,1783.54 -4.12,-8.54 c -4.75,-9.83 -12.21,-18.11 -21.51,-23.84 l -25.55,-15.75 c -7.95,-4.9 -18.02,-5.3 -26.09,-0.61 l -0.87,0.53 c -8.12,5.09 -8.85,16.75 -2.17,23.63 l 26.71,27.45 c 0,0 -15.01,-11.5 -19.21,-6.87 -3.09,3.39 14.55,19.94 28.08,20.49 13.54,0.54 26.63,11.17 26.63,11.17 l 18.1,-27.66"
         style="fill:#fab6a9;fill-opacity:1;fill-rule:nonzero;stroke:none"
         id="path669" /><path
         d="m 3042.19,2402.8 c 0,0 -97.89,-106.51 -137.38,-204.23 0,0 33.48,-60.3 115.42,-83.97 81.94,-23.66 21.96,288.2 21.96,288.2"
         style="fill:#5f92d3;fill-opacity:1;fill-rule:nonzero;stroke:none"
         id="path671" /><path
         d="m 3001.79,2120.92 15.87,153.27 -37.38,-143.59 c 6.66,-3.48 13.87,-6.71 21.51,-9.68"
         style="fill:#4067b1;fill-opacity:1;fill-rule:nonzero;stroke:none"
         id="path673" /><path
         d="m 3115.52,2424.3 -26.3,7.22 c 0,0 12.55,-19.75 30.88,-24.78 18.34,-5.04 21.2,10.48 21.2,10.48 l -25.78,7.08"
         style="fill:#ffffff;fill-opacity:1;fill-rule:nonzero;stroke:none"
         id="path675" /><path
         d="m 3256.02,2466.41 c 0,-8.1 -6.56,-14.65 -14.65,-14.65 -8.09,0 -14.65,6.55 -14.65,14.65 0,8.09 6.56,14.64 14.65,14.64 8.09,0 14.65,-6.55 14.65,-14.64"
         style="fill:#ffffff;fill-opacity:1;fill-rule:nonzero;stroke:none"
         id="path677" /><path
         d="m 5425.61,2491.04 26.47,-53.85 53.84,26.46 -26.47,53.85 z m 17.35,-80.63 -44.12,89.75 89.73,44.12 44.12,-89.75 -89.73,-44.12"
         style="fill:#ee1696;fill-opacity:1;fill-rule:nonzero;stroke:none"
         id="path679" /><path
         d="m 3454.22,551.051 c -45.05,-26 -118.09,-26 -163.14,0 -45.04,26.019 -45.05,68.191 0,94.187 45.05,26.012 118.09,26.012 163.14,0 45.04,-26.008 45.05,-68.179 0,-94.187 z m 95.87,149.551 c -98,56.578 -256.89,56.578 -354.89,0 -98,-56.59 -97.99,-148.313 0.01,-204.903 98,-56.578 256.89,-56.578 354.89,0 97.99,56.59 97.98,148.313 -0.01,204.903"
         style="fill:#d9effb;fill-opacity:1;fill-rule:nonzero;stroke:none"
         id="path681" /><path
         d="m 3158.19,734.121 89.51,-1.402 c 6.63,8.633 16.04,16.703 28.27,23.769 49.23,28.422 126.63,30.621 180.26,6.633 l 53.19,50.02 81.91,-1.27 c -4.05,2.649 -8.21,5.258 -12.59,7.789 -113.82,65.719 -298.36,65.719 -412.18,0.012 -20.94,-12.09 -37.98,-25.57 -51.22,-39.902 l 42.85,-45.649"
         style="fill:#b41086;fill-opacity:1;fill-rule:nonzero;stroke:none"
         id="path683" /><path
         d="m 3591.33,941.871 v -130 l -81.91,1.27 v 129.988 l 81.91,-1.258"
         style="fill:#d1078d;fill-opacity:1;fill-rule:nonzero;stroke:none"
         id="path685" /><path
         d="m 3456.23,893.121 v -130 l 53.19,50.02 v 129.988 l -53.19,-50.008"
         style="fill:#b41086;fill-opacity:1;fill-rule:nonzero;stroke:none"
         id="path687" /><path
         d="M 3247.7,862.711 V 732.719 l 117.76,95.961 90.77,-65.559 v 130 l -83.58,40.539 c 0,0 -115.06,-35.219 -121.04,-36.719 -5.99,-1.492 -3.91,-34.23 -3.91,-34.23"
         style="fill:#b41086;fill-opacity:1;fill-rule:nonzero;stroke:none"
         id="path689" /><path
         d="M 3158.19,864.109 V 734.121 l 89.51,-1.402 v 129.992 l -89.51,1.398"
         style="fill:#b41086;fill-opacity:1;fill-rule:nonzero;stroke:none"
         id="path691" /><path
         d="M 3115.34,909.762 V 779.77 l 42.85,-45.649 v 129.988 l -42.85,45.653"
         style="fill:#d1078d;fill-opacity:1;fill-rule:nonzero;stroke:none"
         id="path693" /><path
         d="m 3158.19,864.109 89.51,-1.398 c 6.63,8.629 16.04,16.699 28.27,23.769 49.23,28.418 126.63,30.622 180.26,6.641 l 53.19,50.008 81.91,-1.258 c -4.05,2.641 -8.21,5.25 -12.59,7.777 -113.82,65.722 -298.36,65.722 -412.18,0.012 -20.94,-12.09 -37.98,-25.57 -51.22,-39.898 l 42.85,-45.653"
         style="fill:#ee1696;fill-opacity:1;fill-rule:nonzero;stroke:none"
         id="path695" /><path
         d="M 3483.19,877.121 V 757.629 l 77.49,18.562 c 0,0 -4.55,69.918 -6.2,71.789 -1.65,1.872 -71.29,29.141 -71.29,29.141"
         style="fill:#5f92d3;fill-opacity:1;fill-rule:nonzero;stroke:none"
         id="path697" /><path
         d="M 3424.56,757.629 V 627.641 l 8.37,-8.922 54.63,31.492 c 0,0 -8.48,99.23 -9.48,101.23 -0.99,1.989 -53.52,6.188 -53.52,6.188"
         style="fill:#263c7a;fill-opacity:1;fill-rule:nonzero;stroke:none"
         id="path699" /><path
         d="m 3530.04,791.191 -46.85,-44.05 c 39.02,-30.879 34.41,-74.411 -13.87,-102.282 -13.22,-7.629 -28.48,-13.371 -44.76,-17.218 l 48.42,-51.59 -42.9,-40.34 c 54.47,6.289 106.43,21.598 148.67,45.98 97.84,56.489 111.48,143.129 41.1,208.098 l -89.81,1.402"
         style="fill:#4067b1;fill-opacity:1;fill-rule:nonzero;stroke:none"
         id="path701" /><path
         d="M 3430.08,665.699 V 535.711 l 106.22,41.019 127.75,121.879 -0.47,138.039 -135.16,-107.136 -98.34,-63.813"
         style="fill:#4067b1;fill-opacity:1;fill-rule:nonzero;stroke:none"
         id="path703" /><path
         d="m 3530.04,921.18 -46.85,-44.059 c 39.02,-30.871 34.41,-74.402 -13.87,-102.269 -13.22,-7.633 -28.48,-13.372 -44.76,-17.223 l 48.42,-51.59 -42.9,-40.34 c 54.47,6.289 106.43,21.602 148.67,45.981 97.84,56.492 111.48,143.129 41.1,208.101 l -89.81,1.399"
         style="fill:#d9effb;fill-opacity:1;fill-rule:nonzero;stroke:none"
         id="path705" /><path
         d="m 3429.72,576.73 -42.67,45.469 c -39.62,-2.41 -80.7,5.133 -111.08,22.66 -31.35,18.11 -44.27,42.832 -38.78,66.391 l -101.64,1.578 -39.07,41.633 c -34.18,-58.66 -10.86,-126.031 70.08,-172.762 59.48,-34.347 138.27,-50.699 216.18,-49.148 l 46.98,44.179"
         style="fill:#4067b1;fill-opacity:1;fill-rule:nonzero;stroke:none"
         id="path707" /><path
         d="M 3382.74,662.539 V 532.551 l -301.47,167.058 v 130.063 l 44.02,-17.801 257.45,-149.332"
         style="fill:#4067b1;fill-opacity:1;fill-rule:nonzero;stroke:none"
         id="path709" /><path
         d="M 3429.72,706.719 V 576.73 l -46.98,-44.179 v 129.988 l 46.98,44.18"
         style="fill:#263c7a;fill-opacity:1;fill-rule:nonzero;stroke:none"
         id="path711" /><path
         d="m 3429.72,706.719 -42.67,45.472 c -39.62,-2.41 -80.7,5.129 -111.08,22.661 -31.35,18.109 -44.27,42.828 -38.78,66.386 l -101.64,1.582 -39.07,41.629 c -34.18,-58.66 -10.86,-126.027 70.08,-172.758 59.48,-34.351 138.27,-50.703 216.18,-49.152 l 46.98,44.18"
         style="fill:#5f92d3;fill-opacity:1;fill-rule:nonzero;stroke:none"
         id="path713" /><path
         d="m 2753.77,2913.12 c -24.82,0 -45,-20.19 -45,-45 0,-24.82 20.18,-45 45,-45 24.81,0 45,20.18 45,45 0,24.81 -20.19,45 -45,45 z m 0,-110 c -35.84,0 -65,29.16 -65,65 0,35.84 29.16,65 65,65 35.84,0 65,-29.16 65,-65 0,-35.84 -29.16,-65 -65,-65"
         style="fill:#5f92d3;fill-opacity:1;fill-rule:nonzero;stroke:none"
         id="path715" /><path
         d="m 2595.87,772.801 c 0,-26.051 -21.13,-47.18 -47.18,-47.18 -26.07,0 -47.18,21.129 -47.18,47.18 0,26.058 21.11,47.179 47.18,47.179 26.05,0 47.18,-21.121 47.18,-47.179"
         style="fill:#d9effb;fill-opacity:1;fill-rule:nonzero;stroke:none"
         id="path717" /><path
         d="m 5007.95,3472.59 c 0,-31.05 -25.18,-56.22 -56.22,-56.22 -31.06,0 -56.23,25.17 -56.23,56.22 0,31.05 25.17,56.23 56.23,56.23 31.04,0 56.22,-25.18 56.22,-56.23"
         style="fill:#d9effb;fill-opacity:1;fill-rule:nonzero;stroke:none"
         id="path719" /><path
         d="m 4703.92,2891.02 -267.39,154.36 c -5.29,3.06 -10.07,3.17 -13.82,1.12 l 0.02,0.17 -25.94,-14.99 c 0,0 11.49,-4.18 18.23,-6.66 V 2830.3 c 0,-15.84 9.64,-34.25 21.51,-41.1 l 255.58,-147.56 v -22.84 l 26.2,15.09 -0.15,0.05 c 4.44,2.7 7.28,8.62 7.28,17.14 v 198.82 c 0,15.85 -9.64,34.25 -21.52,41.12"
         style="fill:#d1078d;fill-opacity:1;fill-rule:nonzero;stroke:none"
         id="path721" /><path
         d="m 4677.51,2619.6 -267.39,154.37 c -11.88,6.86 -21.51,25.27 -21.51,41.11 v 198.81 c 0,15.84 9.63,23.13 21.51,16.28 l 267.39,-154.38 c 11.88,-6.86 21.51,-25.26 21.51,-41.11 v -198.82 c 0,-15.84 -9.63,-23.13 -21.51,-16.26"
         style="fill:#ee1696;fill-opacity:1;fill-rule:nonzero;stroke:none"
         id="path723" /><path
         d="m 4500.05,2842.49 c 0,-11.5 -8.09,-16.17 -18.05,-10.42 -9.96,5.75 -18.04,19.75 -18.04,31.25 0,11.5 8.08,16.16 18.04,10.41 9.96,-5.75 18.05,-19.74 18.05,-31.24"
         style="fill:#ffffff;fill-opacity:1;fill-rule:nonzero;stroke:none"
         id="path725" /><path
         d="m 4554.69,2810.93 c 0,-11.51 -8.07,-16.16 -18.03,-10.41 -9.97,5.75 -18.05,19.74 -18.05,31.25 0,11.5 8.08,16.16 18.05,10.41 9.96,-5.75 18.03,-19.74 18.03,-31.25"
         style="fill:#ffffff;fill-opacity:1;fill-rule:nonzero;stroke:none"
         id="path727" /><path
         d="m 4609.35,2779.37 c 0,-11.5 -8.07,-16.16 -18.04,-10.41 -9.96,5.76 -18.04,19.74 -18.04,31.25 0,11.51 8.08,16.17 18.04,10.41 9.97,-5.75 18.04,-19.74 18.04,-31.25"
         style="fill:#ffffff;fill-opacity:1;fill-rule:nonzero;stroke:none"
         id="path729" /><path
         d="m 3403.8,3194.72 -262.32,151.44 c -5.19,3 -9.88,3.11 -13.56,1.09 l 0.02,0.16 -25.44,-14.7 c 0,0 11.26,-4.1 17.88,-6.53 v -191.02 c 0,-15.55 9.44,-33.6 21.1,-40.34 l 250.72,-144.74 v -22.42 l 25.71,14.8 -0.14,0.05 c 4.34,2.66 7.13,8.47 7.13,16.83 v 195.05 c 0,15.54 -9.45,33.59 -21.1,40.33"
         style="fill:#5f92d3;fill-opacity:1;fill-rule:nonzero;stroke:none"
         id="path731" /><path
         d="m 3377.89,2928.45 -262.32,151.44 c -11.66,6.73 -21.11,24.79 -21.11,40.34 v 195.04 c 0,15.54 9.45,22.68 21.11,15.95 l 262.32,-151.45 c 11.65,-6.72 21.1,-24.78 21.1,-40.32 V 2944.4 c 0,-15.54 -9.45,-22.68 -21.1,-15.95"
         style="fill:#d9effb;fill-opacity:1;fill-rule:nonzero;stroke:none"
         id="path733" /><path
         d="m 3203.79,3147.11 c 0,-11.29 -7.93,-15.86 -17.71,-10.22 -9.77,5.64 -17.69,19.37 -17.69,30.66 0,11.28 7.92,15.86 17.69,10.22 9.78,-5.65 17.71,-19.37 17.71,-30.66"
         style="fill:#ffffff;fill-opacity:1;fill-rule:nonzero;stroke:none"
         id="path735" /><path
         d="m 3257.4,3116.15 c 0,-11.29 -7.92,-15.86 -17.7,-10.21 -9.77,5.64 -17.7,19.36 -17.7,30.65 0,11.28 7.93,15.86 17.7,10.22 9.78,-5.65 17.7,-19.37 17.7,-30.66"
         style="fill:#ffffff;fill-opacity:1;fill-rule:nonzero;stroke:none"
         id="path737" /><path
         d="m 3311.01,3085.2 c 0,-11.29 -7.92,-15.86 -17.69,-10.22 -9.78,5.65 -17.7,19.37 -17.7,30.66 0,11.29 7.92,15.86 17.7,10.21 9.77,-5.64 17.69,-19.37 17.69,-30.65"
         style="fill:#ffffff;fill-opacity:1;fill-rule:nonzero;stroke:none"
         id="path739" /><ellipse
         style="fill:#99d6da;fill-opacity:0.297899;stroke-width:6.92726;paint-order:stroke fill markers;filter:url(#filter2016)"
         id="path1894"
         cx="4225.9678"
         cy="-2016.4764"
         transform="scale(1,-1)"
         rx="1715.1124"
         ry="1835.3701" /></g></g></svg>
