<?xml version="1.0" encoding="UTF-8" standalone="no"?>
<!-- Created with Inkscape (http://www.inkscape.org/) -->

<svg
   width="100.989mm"
   height="100.98899mm"
   viewBox="0 0 100.989 100.98899"
   version="1.1"
   id="svg38251"
   inkscape:version="1.1 (c4e8f9e, 2021-05-24)"
   sodipodi:docname="wassap2.svg"
   xmlns:inkscape="http://www.inkscape.org/namespaces/inkscape"
   xmlns:sodipodi="http://sodipodi.sourceforge.net/DTD/sodipodi-0.dtd"
   xmlns="http://www.w3.org/2000/svg"
   xmlns:svg="http://www.w3.org/2000/svg">
  <sodipodi:namedview
     id="namedview38253"
     pagecolor="#ffffff"
     bordercolor="#666666"
     borderopacity="1.0"
     inkscape:pageshadow="2"
     inkscape:pageopacity="0.0"
     inkscape:pagecheckerboard="0"
     inkscape:document-units="mm"
     showgrid="false"
     inkscape:zoom="0.42850028"
     inkscape:cx="211.20173"
     inkscape:cy="268.37789"
     inkscape:window-width="1366"
     inkscape:window-height="695"
     inkscape:window-x="0"
     inkscape:window-y="0"
     inkscape:window-maximized="1"
     inkscape:current-layer="layer1" />
  <defs
     id="defs38248">
    <linearGradient
       x1="0"
       y1="0"
       x2="1"
       y2="0"
       gradientUnits="userSpaceOnUse"
       gradientTransform="matrix(0,86.821792,-86.821792,0,101.32615,83.881831)"
       spreadMethod="pad"
       id="linearGradient36283">
      <stop
         style="stop-opacity:1;stop-color:#21b04c"
         offset="0"
         id="stop36279" />
      <stop
         style="stop-opacity:1;stop-color:#128c49"
         offset="1"
         id="stop36281" />
    </linearGradient>
    <filter
       inkscape:label="Sharpen More"
       inkscape:menu="Image Effects"
       inkscape:menu-tooltip="Sharpen edges and boundaries within the object, force=0.3"
       style="color-interpolation-filters:sRGB;"
       id="filter38285"
       x="0"
       y="0"
       width="1"
       height="1">
      <feConvolveMatrix
         targetY="1"
         targetX="1"
         in="SourceGraphic"
         divisor="1"
         kernelMatrix="0 -0.3 0 -0.3 2.2 -0.3 0 -0.3 0"
         order="3 3"
         result="result1"
         id="feConvolveMatrix38281" />
      <feBlend
         in2="SourceGraphic"
         mode="normal"
         result="result2"
         id="feBlend38283" />
    </filter>
  </defs>
  <g
     inkscape:label="Capa 1"
     inkscape:groupmode="layer"
     id="layer1"
     transform="translate(-49.659729,-77.727623)">
    <path
       d="m 101.32827,83.881831 c -24.129648,0 -43.751501,19.471569 -43.751501,43.413189 0,9.49431 3.093156,18.294 8.332612,25.45327 l -5.46347,16.11947 16.809861,-5.3414 c 6.906331,4.53178 15.181793,7.17726 24.072498,7.17726 24.11942,0 43.74762,-19.47298 43.74762,-43.4086 0,-23.94162 -19.6282,-43.413189 -43.74762,-43.413189"
       style="fill:url(#linearGradient36283);fill-opacity:1;fill-rule:evenodd;stroke:none;stroke-width:0.0352778"
       id="path36285" />
    <path
       d="m 126.10809,138.25371 c -0.30692,-0.50342 -1.1176,-0.8054 -2.32798,-1.40829 -1.21638,-0.60184 -7.1942,-3.52214 -8.30651,-3.92148 -1.11231,-0.40146 -1.92863,-0.60325 -2.73367,0.60149 -0.81069,1.2065 -3.14078,3.92288 -3.85163,4.72828 -0.70697,0.80645 -1.41394,0.90452 -2.62961,0.30162 -1.21743,-0.60184 -5.13538,-1.8796 -9.775117,-5.9824 -3.610328,-3.20076 -6.049434,-7.14481 -6.762045,-8.35096 -0.705555,-1.20509 -0.0702,-1.85738 0.531636,-2.45886 0.548217,-0.54293 1.217437,-1.40829 1.824567,-2.10961 0.608895,-0.70697 0.811036,-1.21179 1.216378,-2.01683 0.405342,-0.8054 0.2032,-1.50636 -0.104069,-2.10961 -0.301273,-0.60184 -2.733676,-6.53627 -3.747559,-8.95315 -1.007181,-2.40947 -2.021417,-2.31951 -2.733675,-2.31951 -0.706967,0 -2.018595,0.2099 -2.018595,0.2099 0,0 -2.436283,0.30162 -3.548592,1.50812 -1.112308,1.20474 -4.251325,4.12503 -4.251325,10.05382 0,5.93337 4.350809,11.66989 4.958292,12.46928 0.608542,0.8068 8.404578,13.3798 20.760264,18.20757 12.35534,4.82635 12.35534,3.21627 14.58454,3.01272 2.22427,-0.19614 7.18856,-2.91465 8.20244,-5.73088 1.01424,-2.81657 1.01424,-5.23169 0.71226,-5.73122 z M 101.07427,85.562817 c -22.989117,0 -41.683164,18.551173 -41.683164,41.360373 0,9.04557 2.947105,17.42934 7.938911,24.2503 l -5.205236,15.35712 16.015405,-5.08882 c 6.579659,4.3173 14.463537,6.83789 22.934084,6.83789 22.97924,0 41.67894,-18.55258 41.67894,-41.35649 0,-22.8092 -18.6997,-41.360373 -41.67894,-41.360373 z m 49.57446,41.360373 c 0,27.1646 -22.19502,49.19169 -49.57446,49.19169 -8.694914,0 -16.863837,-2.22038 -23.965254,-6.1214 l -27.449287,8.72313 8.947504,-26.39201 c -4.515203,-7.41398 -7.111295,-16.10889 -7.111295,-25.40141 0,-27.170238 22.195014,-49.195567 49.578332,-49.195567 27.37944,0 49.57446,22.025329 49.57446,49.195567"
       style="fill:#ffffff;fill-opacity:1;fill-rule:evenodd;stroke:none;stroke-width:0.0352778;filter:url(#filter38285)"
       id="path36287" />
  </g>
</svg>
