<?xml version="1.0" encoding="UTF-8" standalone="no"?>
<!-- Created with Inkscape (http://www.inkscape.org/) -->

<svg
   width="78.827354mm"
   height="57.12167mm"
   viewBox="0 0 78.827355 57.121669"
   version="1.1"
   id="svg66882"
   inkscape:version="1.1.1 (3bf5ae0, 2021-09-20)"
   sodipodi:docname="logo.svg"
   xmlns:inkscape="http://www.inkscape.org/namespaces/inkscape"
   xmlns:sodipodi="http://sodipodi.sourceforge.net/DTD/sodipodi-0.dtd"
   xmlns="http://www.w3.org/2000/svg"
   xmlns:svg="http://www.w3.org/2000/svg">
  <sodipodi:namedview
     id="namedview66884"
     pagecolor="#ffffff"
     bordercolor="#666666"
     borderopacity="1.0"
     inkscape:pageshadow="2"
     inkscape:pageopacity="0.0"
     inkscape:pagecheckerboard="0"
     inkscape:document-units="mm"
     showgrid="false"
     inkscape:zoom="1.2119818"
     inkscape:cx="118.40112"
     inkscape:cy="134.49047"
     inkscape:window-width="1366"
     inkscape:window-height="695"
     inkscape:window-x="0"
     inkscape:window-y="0"
     inkscape:window-maximized="1"
     inkscape:current-layer="layer1" />
  <defs
     id="defs66879">
    <inkscape:path-effect
       effect="powerstroke"
       id="path-effect99571"
       is_visible="true"
       lpeversion="1"
       offset_points="23,0.1322915"
       not_jump="false"
       sort_points="true"
       interpolator_type="CentripetalCatmullRom"
       interpolator_beta="0.2"
       start_linecap_type="zerowidth"
       linejoin_type="round"
       miter_limit="4"
       scale_width="1"
       end_linecap_type="zerowidth" />
    <inkscape:path-effect
       effect="perp_bisector"
       id="path-effect99569"
       is_visible="true"
       lpeversion="1"
       length-left="200"
       length-right="200" />
    <inkscape:path-effect
       effect="roughen"
       id="path-effect99567"
       is_visible="true"
       lpeversion="1.1"
       method="size"
       max_segment_size="15.404"
       segments="31"
       displace_x="0;1"
       displace_y="0;1"
       global_randomize="3.2;1"
       handles="along"
       shift_nodes="true"
       fixed_displacement="false"
       spray_tool_friendly="false" />
    <linearGradient
       id="linearGradient99383"
       inkscape:swatch="solid">
      <stop
         style="stop-color:#008000;stop-opacity:1;"
         offset="0"
         id="stop99381" />
    </linearGradient>
    <linearGradient
       x1="0"
       y1="0"
       x2="1"
       y2="0"
       gradientUnits="userSpaceOnUse"
       gradientTransform="matrix(0,25.901844,-34.826034,0,103.23486,125.53764)"
       spreadMethod="pad"
       id="linearGradient66241">
      <stop
         style="stop-opacity:1;stop-color:#81bd5b"
         offset="0"
         id="stop66237" />
      <stop
         style="stop-opacity:1;stop-color:#54a45b"
         offset="1"
         id="stop66239" />
    </linearGradient>
    <inkscape:path-effect
       effect="fill_between_many"
       method="bsplinespiro"
       linkedpaths="#path99565,0,1"
       id="path-effect99573"
       is_visible="true"
       lpeversion="0"
       join="true"
       close="true"
       autoreverse="true"
       applied="false" />
  </defs>
  <g
     inkscape:label="Capa 1"
     inkscape:groupmode="layer"
     id="layer1"
     transform="translate(-60.15921,-111.37041)">
    <path
       id="path66243"
       style="opacity:0.748267;fill:#008000;fill-opacity:1;fill-rule:nonzero;stroke:none;stroke-width:0.207699"
       d="M 161.07422,0.0234375 C 159.33496,-0.10346014 157.4784,0.30865997 156,1.125 c -6.49501,3.5893795 -3.46631,18.587094 1.06445,22.572266 9.75606,8.584478 5.75083,-6.153743 5.51563,-9.556641 -0.24983,-3.576907 5.10273,-9.0083483 2.86914,-11.9765625 -1.01382,-1.34683439 -2.63574,-2.01372736 -4.375,-2.140625 z M 227.8418,15.535156 c -8.15479,1.115414 -14.09266,6.24878 -17.77539,11.328125 -2.09621,2.890961 -4.95055,14.654353 -11.52149,8.482422 -3.64565,1.794558 -4.90326,7.745009 -10.68945,5.873047 -6.40664,-2.074658 1.10919,-7.835874 -1.60742,-10.833984 -5.68815,-6.27258 -6.91421,3.061968 -8.05664,4.583984 -2.94475,3.92829 -6.13779,4.4218 -10.72266,0.359375 -4.93799,2.631987 -7.83931,10.137642 -13.97852,4.289063 -3.6974,-3.520593 -0.33853,-13.50798 -10.39843,-12.925782 -0.48791,7.808429 9.5604,20.420297 -7.32032,20.070313 -11.42796,-0.235578 -8.70148,-6.766402 -14.48046,-11.476563 -3.09664,-2.521323 -7.33278,-3.949648 -9.45118,0.109375 -1.83636,3.524259 4.7783,7.767716 6.39649,10.697266 2.87348,5.202671 1.49122,4.706307 -2.41211,8.142578 -2.65283,2.336428 -3.8912,4.404852 -6.2793,6.875 -2.35129,2.43685 -6.82492,3.181286 -8.03125,6.105469 -1.27986,3.105524 2.61892,6.794846 1.28516,10.326172 C 94.268888,76.327069 87.210032,74.093957 81.107422,69.587891 75.441249,65.400287 71.342684,58.627655 64.126953,55.671875 c -8.608395,-3.527735 -9.671252,0.957039 -6.371094,6.599609 4.572662,7.822489 14.299169,9.679064 24.4375,12.175782 6.144299,1.514872 13.858291,3.398049 9.408203,9.146484 -3.420323,4.419666 8.431178,11.190541 5.101563,16.61328 -0.774769,1.25802 -5.040526,1.21528 -5.542969,2.69141 -0.59828,1.75419 2.547857,2.54548 2.341797,3.65039 -0.674196,3.60344 0.777853,3.37844 -5.322265,5.92773 -3.812595,1.59232 -7.876524,2.15889 -11.892579,3.35352 -8.549593,2.54422 -16.405514,12.15481 -1.419921,9.32031 5.364527,-1.01348 20.313631,-12.37484 23.947265,-4.61914 2.606267,5.5686 -6.329726,3.87428 1.052735,7.94922 5.565612,3.07026 9.895872,1.0476 8.083982,8.29492 0.0784,-0.31491 7.60028,0.31577 8.42383,1.30273 2.54987,3.05617 -6.29195,8.04379 -4.69336,11.29883 1.11312,2.26594 7.32513,1.97593 8.13672,4.41993 2.21152,6.65248 -18.71834,9.65007 -19.41211,15.89453 -0.706148,6.33755 8.02695,1.61737 11.11133,-0.95313 4.96741,-4.14191 5.95193,-7.78892 14.96484,-7.72656 0.43394,6.32183 6.24063,2.5894 12,3.47461 14.70863,2.25917 5.1895,14.19711 3.93164,20.63867 -0.90221,4.61854 1.43146,8.67983 1.05664,13.4375 -0.39855,5.10773 -4.62533,11.42295 -0.16797,16.20312 6.22038,6.67382 7.93017,-18.36179 8.36915,-20.28124 1.02222,-4.47788 2.80826,-8.39784 2.93359,-13.02149 0.1127,-4.14724 -2.06913,-10.48474 2.72656,-13.80664 7.73556,-5.35926 3.68333,3.22598 9.36914,3.12695 5.276,-0.0915 1.45468,-7.81343 6.04688,-8.48632 4.58007,-0.67223 4.66466,6.3968 8.52148,5.22851 5.63921,-1.70838 -0.22001,-10.11228 11.61524,-5.66797 8.61807,3.23739 27.2648,43.23576 41.7207,29.90235 6.52422,-6.02091 -3.97546,-11.20045 -9.64649,-14.90235 -8.18188,-5.34349 -11.26411,-10.64111 -10.76367,-18.79101 7.1127,-0.59112 14.4786,1.05931 9.83008,-6.43946 7.70347,-2.58123 10.27256,2.21109 12.88867,-5.04492 0.62098,-1.73132 -3.08296,-2.42884 0.32032,-4.79883 2.1353,-1.48694 7.41255,-1.11003 10.0996,-0.9082 -1.5863,-7.27548 10.53948,-4.26172 12.1504,-9.94141 1.21347,-4.2737 -7.76924,-7.36195 -9.58594,-11.05859 -4.86206,-9.88989 7.08779,-5.67564 13.64648,-8.14258 1.95659,-0.73527 3.0127,-1.39581 3.4043,-1.99219 v -0.002 c 1.72626,-2.6183 -9.30699,-4.01535 -12.89649,-5.21875 -1.5936,-0.53476 9.40613,-3.21588 10.23438,-3.34765 3.45702,-0.55076 6.90532,-0.92705 10.45312,-0.96485 7.74278,-0.0581 15.44964,1.67533 22.92774,2.89453 13.62236,2.22391 -6.24733,11.88873 0,0 5.83294,-11.09881 -13.97559,-13.494526 -27.96094,-12.080076 -15.35335,1.55195 15.28222,-2.081499 0,0 -9.76796,1.32824 -28.04934,1.042862 -32.77148,-7.191406 -2.64306,-4.611477 1.94463,-5.587134 3.0625,-9.982422 1.17936,-4.625423 -4.02452,-9.235571 -2.28125,-13.896484 0.40448,-1.074973 17.03168,-16.89345 14.63867,-16.837891 -9.81226,0.207723 -14.23582,7.390045 -22.28516,10.1875 -14.90215,5.183396 -9.30428,-5.799362 -10.41992,-11.960937 -2.46161,0.478941 -5.82693,0.826234 -8.72266,0.423828 -0.007,-9.794835 19.17226,-15.055854 16.91407,-26.228516 z m -114.70899,0.578125 c -2.78528,-0.175761 -3.34221,3.338135 -2.83593,4.945313 0.96337,3.06856 5.73631,5.592765 8.94335,7.447265 -0.0919,-2.436812 -3.14278,-3.285872 -4.12109,-5.476562 -0.76466,-1.722369 1.89529,-5.601864 -0.65234,-6.597656 -0.4922,-0.192 -0.93609,-0.293251 -1.33399,-0.31836 z m 139.02344,4.908203 c -6.79002,-0.326279 -16.59747,15.653713 -7.07031,11.337891 3.47172,-1.571036 12.72926,-4.365955 10.90039,-8.3125 -0.82538,-1.77702 -1.93606,-2.674005 -3.18164,-2.941406 -0.212,-0.04569 -0.42941,-0.07346 -0.64844,-0.08398 z m -211.119141,5.4375 c -1.783235,-0.02386 -3.653997,0.487188 -4.322265,1.515625 -2.150238,3.30773 6.982436,3.872478 8.029297,1.259766 0.733732,-1.831918 -1.4143,-2.744714 -3.707032,-2.775391 z m 5.509766,6.244141 c -0.443478,2.241449 4.613054,6.222065 6.736328,3.164063 2.491068,-3.592933 -6.863864,-2.520183 -6.736328,-3.164063 z m 12.507813,2.960937 c -0.957943,-0.09375 -1.55627,0.212289 -1.498047,1.160157 0.25765,4.201625 11.126489,7.901318 15.267578,9.810547 C 82.420696,51.06509 88.9007,57.511225 97.205078,62.830078 96.567392,56.944598 90.033967,54.566175 84,51.476562 78.037164,48.425665 74.464457,44.472895 69.386719,40.800781 68.04071,39.828214 61.928501,35.945302 59.054688,35.664062 Z M 264.11328,49.441406 c -1.14942,-0.05357 -2.26655,0.06495 -3.31445,0.384766 -5.51437,1.683931 -5.68026,6.740541 -6.23438,10.361328 -0.59319,3.874658 -8.68202,7.881125 -7.10547,11.21875 0.94632,2.002318 5.37891,3.238361 8.0586,2.724609 3.35913,-0.644107 2.82453,-2.898534 5.08008,-3.945312 5.07307,-2.35937 9.50164,2.688895 15.20703,0.804687 v -0.002 c 13.66725,-4.51402 -0.58035,-21.029067 -11.69141,-21.546875 z M 77.390625,144.29297 c -0.02606,0.002 -0.05205,0.004 -0.07813,0.006 0.139472,0.12843 0.277867,0.25892 0.417969,0.38672 0.03554,-0.003 0.07156,-0.007 0.107422,-0.01 -0.120476,-0.1088 -0.299206,-0.25496 -0.447266,-0.38281 z m 5.271484,0.37109 c 0.0065,0.003 0.0071,0.003 0.01367,0.006 0.0037,-8.7e-4 0.0061,-5e-4 0.0098,-0.002 -0.0077,-0.002 -0.01569,-0.002 -0.02344,-0.004 z m -2.363281,0.11719 c 0.06045,0.0608 0.1295,0.12642 0.207031,0.19922 0.0668,-6e-4 0.123056,0.004 0.177735,0.008 -0.130865,-0.071 -0.263687,-0.14288 -0.384766,-0.20703 z m 5.478516,0.85937 c 0.218273,0.13946 0.381653,0.25103 0.662109,0.41993 0.01805,0.0221 0.05075,0.0649 0.07227,0.0918 0.149997,0.0309 0.295078,0.0758 0.439453,0.12696 -0.111616,-0.0612 -0.221465,-0.12733 -0.333984,-0.18555 -0.0083,-9.8e-4 -0.01314,-4.6e-4 -0.02148,-0.002 0.0046,-9.1e-4 0.0091,-6e-4 0.01367,-0.002 -0.279129,-0.14422 -0.547627,-0.32315 -0.832031,-0.44922 z m 200.160156,3.6504 -0.004,0.0117 c 4.6e-4,0.002 0.002,0.004 0.002,0.006 6.3e-4,-0.006 9.5e-4,-0.0117 0.002,-0.0176 z m -272.978516,1.9414 c -0.193044,0.0538 -0.381483,0.11533 -0.574218,0.16992 0.09888,-0.0162 0.198269,-0.0338 0.292968,-0.0449 0.05802,-0.009 0.115863,-0.0183 0.173828,-0.0273 0.03599,-0.0327 0.07167,-0.0648 0.107422,-0.0977 z m -2.416015,0.71875 c -0.7196472,0.21933 -1.4593083,0.40164 -2.1640628,0.64453 0.2749419,0.0184 0.8022072,-0.0952 1.2382813,-0.16015 0.2968418,-0.1845 0.6071735,-0.34595 0.9257815,-0.48438 z m 280.029301,1.9668 c -0.1207,-0.008 -0.31074,0.0456 -0.36719,0.125 -0.1414,0.19889 -0.188,0.54585 -0.1582,0.88867 0.24506,-0.28951 0.4927,-0.57802 0.625,-0.92773 0.0207,-0.0547 -0.0272,-0.0813 -0.0996,-0.0859 z m -1.61329,2.16992 c -6e-4,0.0884 -0.003,0.17721 -0.004,0.26563 0.0585,-0.0761 0.11633,-0.15163 0.17383,-0.22852 -0.0567,-0.0135 -0.113,-0.0244 -0.16993,-0.0371 z m 3.50782,0.10156 c -0.0558,-0.0153 -0.52052,0.30154 -0.38477,0.35938 0.0196,0.008 0.039,0.0171 0.0586,0.0254 0.1218,-0.10293 0.2306,-0.22045 0.32227,-0.35742 0.0117,-0.0175 0.0118,-0.0251 0.004,-0.0274 z m -237.130862,2.38672 c -0.03436,0.003 -0.05076,0.008 -0.08398,0.0117 -0.03344,0.0729 -0.07745,0.14588 -0.109375,0.21875 0.04626,0.01 0.09237,0.02 0.138672,0.0293 0.01745,-0.0741 0.03573,-0.15944 0.05469,-0.24414 -4.3e-5,-0.005 3.3e-5,-0.0104 0,-0.0156 z m 14.128906,0.3125 c 0.0036,0.016 0.04811,0.0959 0.0957,0.17969 -3.28e-4,-0.0189 3.02e-4,-0.0378 0,-0.0566 -0.026,-0.0362 -0.05326,-0.0718 -0.08008,-0.10742 -0.01309,-0.0174 -0.01716,-0.0225 -0.01563,-0.0156 z m -5.173828,0.70508 c 0.0031,0.007 0.0066,0.0143 0.0098,0.0215 0.0013,1e-5 0.0026,0 0.0039,0 -0.0049,-0.007 -0.0088,-0.0146 -0.01367,-0.0215 z m 22.214843,0.0273 c -0.04748,0.008 -0.09546,0.0148 -0.142578,0.0195 -0.03523,0.0694 -0.06607,0.13894 -0.0918,0.21094 0.0251,-0.0241 0.04881,-0.0481 0.07422,-0.0723 0.05691,-0.0476 0.120693,-0.0895 0.185547,-0.13086 -0.01067,-0.0114 -0.01446,-0.0157 -0.02539,-0.0273 z m 188.683591,0.69727 c -0.0216,0.0277 -0.0333,0.0582 -0.0547,0.0859 0.0254,0.0417 0.051,0.0831 0.0762,0.125 -0.007,-0.0703 -0.0153,-0.1408 -0.0215,-0.21094 z m -184.498044,2.1875 c 0.0595,0.0499 0.0281,0.0532 -0.05469,0.0273 0.0092,-0.004 0.01834,-0.007 0.02734,-0.0117 0.009,-0.005 0.01834,-0.0106 0.02734,-0.0156 z m -86.0703122,3.63672 c 0.09814,0.10945 0.2158189,0.2168 0.3496093,0.32031 -0.059873,-0.0916 -0.114917,-0.19122 -0.1660156,-0.29883 -0.061172,-0.008 -0.1224346,-0.0139 -0.1835937,-0.0215 z m 53.0292972,2.16406 c -0.123272,0.62118 -0.247823,1.2421 -0.371094,1.86328 0.003,0.003 0.0068,0.005 0.0098,0.008 0.454258,-0.2511 0.925713,-0.42892 1.414063,-0.50976 0.0025,-0.0763 0.02261,-0.17051 0.05078,-0.27149 -0.182762,-0.1536 -0.361583,-0.28464 -0.558594,-0.51367 -0.191569,-0.21182 -0.373435,-0.3988 -0.544921,-0.57617 z m 26.242187,0.79492 c 0.0054,0.0428 0.02813,0.0937 0.04102,0.14063 0.0043,-0.002 0.0093,-0.004 0.01367,-0.006 -0.01734,-0.0448 -0.03873,-0.0902 -0.05469,-0.13477 z m 113.560542,17.98242 c 0,0.007 4e-5,0.013 0,0.0195 0.0385,0.0304 0.0767,0.0613 0.11524,0.0918 0.004,1.2e-4 0.008,0.002 0.0117,0.002 -0.0423,-0.0378 -0.0846,-0.0755 -0.12696,-0.11329 z m -4.28124,15.35157 c -0.30628,0.22942 -0.3103,0.40596 -0.0762,0.32226 0.0416,-0.0642 0.0805,-0.13508 0.12305,-0.19726 -0.0167,-0.0435 -0.0241,-0.0694 -0.0469,-0.125 z"
       sodipodi:nodetypes="sccccscccccccccccccccccccccccccccccccccccccccccccccccccccccsccccccccccccccccccccccsccccsscccsssccscccscccccsscccccccsscccccccccsccccccccccccccccccscscccssccccsscssscccccsccssssccccsscccscccccscsccccsssccsssccsssccssccccccccscccsscccssccccc"
       transform="matrix(0.26458333,0,0,0.26458333,58.936546,111.3702)" />
    <path
       style="opacity:0.748267;fill:#008000;stroke-width:0.264583;paint-order:stroke fill markers"
       id="path88618"
       d="m 106.73083,131.05597 c -0.523,-0.44588 -0.90475,-1.03388 -1.27637,-1.60544 -0.27969,-0.39882 -0.47007,-0.86272 -0.78434,-1.23795 -0.16838,-0.20103 -0.24823,-0.25009 -0.44781,-0.41125 -0.70189,-0.44837 -1.55564,-0.53408 -2.36008,-0.66836 -0.95688,-0.16588 -1.924664,-0.18345 -2.889175,-0.0934 -0.772388,0.11363 -1.514707,0.37613 -2.237274,0.66439 -0.648588,0.27851 -1.26505,0.62033 -1.877263,0.96953 -0.213157,0.8262 -3.259691,1.43047 -4.19613,2.65214 -0.09696,0.12649 -0.199986,0.31525 -0.279426,0.45288 -0.30526,0.51335 -0.322478,1.11149 -0.375437,1.69065 -0.0053,0.40999 -0.06008,0.82215 -0.03942,1.23259 0.01177,0.23393 0.04525,0.38143 0.08596,0.60981 0.121273,0.63722 0.557795,1.10641 0.963056,1.58209 0.383487,0.49293 0.711959,1.02624 1.102482,1.51335 0.366581,0.42609 0.730074,0.85678 1.111835,1.26951 0.33429,0.35249 0.658931,0.55295 1.124607,0.68562 0.582159,0.10971 1.177861,0.13171 1.767846,0.17811 0.495827,0.0417 0.993861,0.0605 1.491056,0.0392 0.5048,-0.0485 0.969133,-0.28029 1.431073,-0.47567 0.355164,-0.14101 0.671759,-0.35519 1.03204,-0.48236 0.34864,-0.11102 0.71149,-0.16447 1.07174,-0.22224 0.31672,-0.0553 0.63698,-0.0765 0.95791,-0.085 0.33707,-0.01 0.67414,-0.007 1.01129,-0.007 0.27663,0.018 0.56996,-0.036 0.83914,0.0533 0.0674,0.0224 0.12846,0.0608 0.19269,0.0912 0.56505,0.37545 0.86519,0.98272 1.10419,1.59637 0.13497,0.40198 0.2516,0.80984 0.32564,1.22761 0.0495,0.31445 0.0575,0.63345 0.0557,0.95116 0.0116,0.33695 0.006,0.67411 0.006,1.01117 -0.0122,0.33756 -0.10796,0.63761 -0.29844,0.91441 -0.0954,0.15416 -0.23826,0.27192 -0.34762,0.41425 -0.12001,0.15619 -0.22327,0.32779 -0.34221,0.48568 -0.19219,0.20772 -0.34759,0.47742 -0.58889,0.63575 -0.0471,0.0309 -0.10032,0.0513 -0.15048,0.0769 -1.26052,0.59891 -0.0901,0.0482 2.97507,-1.73747 0.0745,-0.0434 -0.1521,0.0815 -0.22918,0.12032 -0.23442,0.1179 -0.47478,0.21483 -0.71928,0.30934 -0.61179,0.19553 -1.25713,0.26456 -1.89491,0.31593 -0.689,0.0558 -1.38055,0.0625 -2.07136,0.0695 -0.62319,-0.0131 -1.24646,-0.007 -1.86971,-0.0121 -0.750125,-0.009 -1.490464,-0.13821 -2.231863,-0.23944 -0.60745,-0.0959 -1.190315,-0.3096 -1.735541,-0.58965 -0.583545,-0.36704 -1.200676,-0.67657 -1.787136,-1.03816 -0.479264,-0.29475 -0.912282,-0.6519 -1.342044,-1.01255 -0.207826,-0.15771 -0.424318,-0.30326 -0.640906,-0.44847 0,0 -3.268157,2.10237 -3.268157,2.10237 v 0 c 0.212338,0.12808 0.430337,0.24899 0.622688,0.40702 0.457375,0.35924 0.90579,0.73129 1.401344,1.03855 0.600091,0.35433 1.222764,0.66565 1.806046,1.04841 0.0529,0.0297 0.553303,0.31193 0.612149,0.34013 0.376859,0.18062 0.799488,0.25768 1.20035,0.36257 0.362459,0.0502 0.725949,0.0864 1.088821,0.13342 0.270483,0.035 0.5388,0.0864 0.809866,0.1166 0.116549,0.013 0.234064,0.0149 0.351096,0.0224 0.63031,0.0452 1.262092,0.0221 1.893546,0.0154 0.689412,0.002 1.379531,0.008 2.068171,-0.0301 0.64571,-0.0537 1.29258,-0.11008 1.93053,-0.22664 0.32657,-0.0925 0.67591,-0.20043 0.97312,-0.36875 3.46298,-1.96124 2.44903,-1.2324 3.69807,-2.14078 0.25493,-0.24989 0.4783,-0.52842 0.68462,-0.8196 0.22671,-0.31544 0.48975,-0.60593 0.6728,-0.95055 0.15224,-0.34832 0.22248,-0.71018 0.21903,-1.09158 0.002,-0.34253 1.9e-4,-0.68507 0.004,-1.0276 -0.0172,-0.33592 -0.0402,-0.67177 -0.11138,-1.00153 -0.10147,-0.43557 -0.21039,-0.87099 -0.41209,-1.27294 -0.3139,-0.6477 -0.6412,-1.31583 -1.1968,-1.79217 -0.0797,-0.0681 -0.15074,-0.14769 -0.23893,-0.20429 -0.25004,-0.16046 -0.60258,-0.16205 -0.88745,-0.15808 -0.33765,-6.1e-4 -0.67531,-0.001 -1.01292,-0.002 -0.33218,0.004 -0.66637,9.2e-4 -0.99597,0.0478 -0.37038,0.0556 -0.74116,0.10995 -1.1079,0.18533 -0.11996,0.0281 -0.24213,0.048 -0.3599,0.0842 -0.26263,0.0807 -0.47255,0.26354 -0.72138,0.37423 -0.4452,0.2 -0.89501,0.3909 -1.34618,0.57647 -0.49587,0.0509 -0.990298,0.049 -1.488294,0.0231 -0.569795,-0.026 -1.13673,-0.0816 -1.703486,-0.14333 -0.125082,-0.0221 -0.260932,-0.0392 -0.381042,-0.0853 -0.23339,-0.0896 -0.430437,-0.26041 -0.623485,-0.41302 -0.391983,-0.38891 -0.762127,-0.8011 -1.129085,-1.2134 -0.382607,-0.49774 -0.719601,-1.02842 -1.104068,-1.52521 -0.35302,-0.43324 -0.763424,-0.83666 -0.849485,-1.41489 -0.09719,-0.57604 -0.05358,-1.16285 -0.01232,-1.74306 0.05832,-0.55714 0.152116,-1.06624 0.478994,-1.5358 0.148036,-0.20352 0.297491,-0.38211 0.492772,-0.5431 0.25382,-0.20924 0.490683,-0.33932 0.467312,-0.32601 -1.008481,0.57459 -2.011459,1.15878 -3.017189,1.73817 0.399305,-0.23276 0.79505,-0.48518 1.20817,-0.69252 0.107799,-0.0541 0.220843,-0.0972 0.32901,-0.15061 0.106539,-0.0526 0.209887,-0.11135 0.31483,-0.16703 0.715306,-0.31809 1.45375,-0.59178 2.21457,-0.7791 0.381057,-0.0593 0.539547,-0.0947 0.929536,-0.11077 0.636688,-0.0262 1.275086,0.0279 1.905563,0.11107 0.737832,0.11505 1.508327,0.21895 2.176237,0.57081 0.15473,0.10449 0.27595,0.17468 0.40707,0.31084 0.33151,0.34423 0.54045,0.79535 0.82527,1.1745 0.36558,0.5909 0.73109,1.18335 1.15652,1.73389 0,0 3.38817,-2.03359 3.38817,-2.03359 z" />
    <path
       style="opacity:0.748267;fill:#008000;stroke-width:0.264583;paint-order:stroke fill markers"
       id="path88620"
       d="m 108.70138,128.1517 c 0.39637,0.49874 0.62668,1.09753 0.82616,1.69572 0.24493,0.6693 0.40687,1.36817 0.56114,2.06339 0.11899,0.63623 0.24782,1.27079 0.33647,1.91213 0.11892,0.65338 0.1602,1.31671 0.2186,1.97727 0.0533,0.61378 0.0827,1.22889 0.0884,1.84487 -0.005,0.54181 -0.0181,1.08384 -0.005,1.62559 0.0286,0.59574 -0.003,1.19183 -0.007,1.78766 0.0156,0.5747 0.0155,1.14743 -0.0278,1.72065 -0.0906,0.51853 -0.24028,1.02592 -0.37514,1.53464 -0.0688,0.41572 -0.21372,0.81228 -0.29415,1.22524 -0.008,0.34645 -0.13286,0.65893 -0.2314,0.98429 -0.0948,0.0826 -0.12568,0.47711 -0.19258,0.54465 -0.0219,0.0221 -0.058,0.0223 -0.087,0.0335 -0.0534,0.036 -0.13259,0.0841 -0.1766,0.13335 -0.0172,0.0192 -0.0634,0.0763 -0.0396,0.0664 1.24264,-0.51721 2.48118,-1.04477 3.70996,-1.59409 0.0363,-0.0162 0.29452,-0.31479 0.29588,-0.31631 0.40472,-0.44732 0.85473,-0.84881 1.27615,-1.27979 0.33294,-0.35238 0.70718,-0.66228 1.11216,-0.92783 0.34708,-0.21276 0.66858,-0.46397 1.01202,-0.68116 1.24483,-0.70854 -0.2585,0.14662 -3.05943,1.77504 -0.0448,0.0261 0.0913,-0.0492 0.13683,-0.0741 0.15697,-0.0857 0.29298,-0.15464 0.46529,-0.20714 0.4366,-0.0948 0.88706,-0.0992 1.3321,-0.10197 0.24709,0.003 0.50122,-0.0135 0.74512,0.0389 0.11162,0.024 0.2961,0.0944 0.40217,0.13254 0.4693,0.18912 0.87755,0.49263 1.32161,0.72988 0.57515,0.25375 0.92351,0.59238 1.34228,1.04003 0.312,0.30749 0.56007,0.66143 0.76676,1.04502 0.14843,0.29598 0.32883,0.57353 0.51454,0.84704 0,0 3.36604,-1.98053 3.36604,-1.98053 v 0 c -0.1843,-0.26029 -0.34672,-0.53375 -0.49393,-0.81678 -0.23742,-0.40526 -0.50741,-0.7789 -0.84681,-1.10724 -0.41969,-0.44351 -0.85348,-0.87798 -1.41826,-1.13358 -0.44457,-0.25652 -0.86514,-0.55284 -1.31934,-0.79297 -0.42171,-0.1784 7.9e-4,-0.003 -0.42153,-0.16856 -0.0733,-0.0287 -0.14273,-0.0685 -0.21873,-0.089 -0.18486,-0.0499 -0.39592,-0.0333 -0.5846,-0.0421 -0.4585,0.006 -0.91663,0.0174 -1.37452,0.0435 -0.007,6.6e-4 -0.36888,0.0356 -0.38684,0.0402 -0.0521,0.0133 -0.23191,0.11259 -0.27455,0.13712 -3.50492,2.01671 -2.38802,1.25764 -3.64047,2.11493 -0.31835,0.23209 -0.65562,0.43701 -0.97008,0.67491 -0.38821,0.30247 -0.7608,0.62428 -1.0886,0.99277 -0.4159,0.42969 -0.85257,0.83881 -1.26432,1.27267 -0.0727,0.0676 -0.14556,0.1352 -0.21821,0.20293 -0.0557,0.052 -0.23811,0.18364 -0.16701,0.15617 0.58185,-0.22475 3.02976,-0.56075 3.7847,-1.70104 0.0664,-0.23264 0.13903,-0.46227 0.2133,-0.69244 0.0927,-0.3281 0.13659,-0.66179 0.19494,-0.99702 0.0987,-0.40312 0.20025,-0.80544 0.28808,-1.21118 0.1191,-0.5239 0.25365,-1.04695 0.31317,-1.58173 0.0282,-0.58336 0.0281,-1.16684 0.0347,-1.75073 -0.004,-0.59373 -0.0347,-1.18772 -0.005,-1.78133 0.0129,-0.54026 0.002,-1.08101 -0.0181,-1.621 -0.015,-0.62635 -0.011,-1.25522 -0.0984,-1.87706 -0.0789,-0.66503 -0.11718,-1.33402 -0.22,-1.99612 -0.10306,-0.64559 -0.24127,-1.28487 -0.38488,-1.92252 -0.17631,-0.70768 -0.29493,-1.43167 -0.55657,-2.11502 -0.23137,-0.60579 -0.51654,-1.18794 -0.75053,-1.79183 0,0 -3.44077,1.95913 -3.44077,1.95913 z" />
    <path
       style="opacity:0.748267;fill:#008000;stroke-width:0.825095;paint-order:stroke fill markers"
       d=""
       id="path89909"
       transform="matrix(0.26458333,0,0,0.26458333,58.936546,111.3702)" />
    <path
       style="opacity:0.748267;fill:#008000;stroke-width:0.825095;paint-order:stroke fill markers"
       d=""
       id="path89948"
       transform="matrix(0.26458333,0,0,0.26458333,58.936546,111.3702)" />
  </g>
</svg>
